<?xml version="1.0" encoding="UTF-8"?>
<!-- Generator: visioncortex VTracer 0.6.5 -->
<svg version="1.1" xmlns="http://www.w3.org/2000/svg" width="649" height="645">
<path d="M0 0 C0.39 -0 0.39 -0 2.36 -0.01 C4.97 -0.01 7.58 -0.01 10.18 -0.01 C12.07 -0.01 13.96 -0.01 15.85 -0.02 C21.04 -0.03 26.23 -0.03 31.42 -0.03 C37.02 -0.03 42.62 -0.04 48.22 -0.04 C60.47 -0.06 72.71 -0.06 84.96 -0.07 C92.61 -0.07 100.26 -0.08 107.91 -0.08 C129.1 -0.09 150.29 -0.1 171.49 -0.11 C172.86 -0.11 174.23 -0.11 175.6 -0.11 C176.97 -0.11 178.34 -0.11 179.72 -0.11 C182.47 -0.11 185.22 -0.11 187.98 -0.11 C188.66 -0.11 189.34 -0.11 190.05 -0.11 C212.17 -0.11 234.3 -0.13 256.42 -0.15 C279.84 -0.18 303.25 -0.19 326.67 -0.19 C339.42 -0.19 352.18 -0.2 364.93 -0.22 C375.79 -0.23 386.66 -0.24 397.52 -0.23 C403.06 -0.22 408.6 -0.23 414.13 -0.24 C419.22 -0.25 424.3 -0.25 429.38 -0.24 C431.21 -0.24 433.03 -0.24 434.86 -0.25 C464.92 -0.38 492.68 6.31 515.88 26.13 C516.22 26.41 516.22 26.41 517.89 27.83 C529.79 38.82 538.05 54.31 542.7 69.63 C542.89 70.27 543.09 70.91 543.29 71.57 C546.95 84.6 547.18 97.69 547.15 111.11 C547.15 113 547.15 114.89 547.16 116.78 C547.17 121.94 547.17 127.11 547.16 132.27 C547.16 137.85 547.17 143.43 547.17 149.01 C547.19 159.94 547.19 170.86 547.19 181.78 C547.19 190.67 547.19 199.55 547.19 208.43 C547.19 209.7 547.19 210.96 547.19 212.27 C547.19 214.84 547.2 217.41 547.2 219.99 C547.2 237.25 547.21 254.52 547.2 271.78 C547.2 272.46 547.2 273.13 547.2 273.83 C547.2 277.24 547.2 280.66 547.2 284.08 C547.2 284.76 547.2 285.44 547.2 286.14 C547.2 287.51 547.2 288.88 547.2 290.25 C547.19 311.6 547.2 332.94 547.22 354.29 C547.24 378.3 547.25 402.32 547.25 426.33 C547.25 439.04 547.25 451.74 547.26 464.44 C547.27 475.26 547.28 486.07 547.26 496.89 C547.26 502.4 547.26 507.91 547.27 513.42 C547.28 518.48 547.28 523.54 547.26 528.6 C547.26 530.41 547.26 532.23 547.27 534.05 C547.4 564.16 541.46 591.22 520.88 614.13 C520.57 614.48 520.57 614.48 518.99 616.27 C501.95 634.47 475.9 644.28 451.29 645.41 C446.28 645.55 441.28 645.53 436.27 645.51 C434.35 645.52 432.42 645.52 430.5 645.53 C425.26 645.54 420.02 645.53 414.78 645.52 C409.11 645.52 403.44 645.53 397.77 645.54 C386.68 645.55 375.59 645.55 364.51 645.54 C355.49 645.53 346.47 645.53 337.46 645.53 C336.17 645.53 334.88 645.53 333.56 645.53 C330.95 645.54 328.33 645.54 325.72 645.54 C301.95 645.55 278.18 645.54 254.41 645.52 C232.74 645.51 211.07 645.51 189.41 645.52 C165.02 645.54 140.64 645.54 116.26 645.54 C113.65 645.53 111.05 645.53 108.45 645.53 C107.81 645.53 107.81 645.53 104.57 645.53 C95.57 645.53 86.57 645.53 77.57 645.54 C66.59 645.55 55.62 645.55 44.64 645.53 C39.05 645.52 33.45 645.52 27.86 645.53 C22.73 645.54 17.6 645.53 12.46 645.52 C10.62 645.51 8.77 645.52 6.93 645.52 C-21.23 645.63 -47.85 639.62 -69.12 620.13 C-70.04 619.3 -70.97 618.47 -71.92 617.61 C-92.57 598.1 -101.14 570.21 -102.39 542.35 C-102.53 537.47 -102.52 532.59 -102.5 527.7 C-102.5 525.83 -102.5 523.97 -102.51 522.1 C-102.52 517.03 -102.52 511.96 -102.51 506.89 C-102.5 501.4 -102.51 495.91 -102.52 490.42 C-102.53 479.68 -102.53 468.95 -102.52 458.21 C-102.51 449.49 -102.51 440.76 -102.52 432.03 C-102.52 430.78 -102.52 429.53 -102.52 428.25 C-102.52 425.72 -102.52 423.19 -102.52 420.66 C-102.53 397.63 -102.52 374.61 -102.51 351.58 C-102.49 330.61 -102.49 309.63 -102.51 288.66 C-102.52 265.04 -102.53 241.42 -102.52 217.8 C-102.52 215.28 -102.52 212.76 -102.52 210.24 C-102.52 209 -102.52 207.76 -102.52 206.48 C-102.51 197.77 -102.52 189.05 -102.52 180.34 C-102.53 169.72 -102.53 159.09 -102.51 148.46 C-102.51 143.05 -102.5 137.63 -102.51 132.22 C-102.52 127.25 -102.52 122.28 -102.5 117.31 C-102.5 115.53 -102.5 113.74 -102.51 111.96 C-102.62 80.95 -95.69 53.19 -74.12 30.13 C-73.8 29.78 -73.8 29.78 -72.21 28.02 C-54.51 9.19 -25.21 -0.06 0 0 Z " fill="#1D253B" transform="translate(102.11530017852783,-0.13142776489257813)"/>
<path d="M0 0 C0.39 -0 0.39 -0 2.36 -0.01 C4.97 -0.01 7.58 -0.01 10.18 -0.01 C12.07 -0.01 13.96 -0.01 15.85 -0.02 C21.04 -0.03 26.23 -0.03 31.42 -0.03 C37.02 -0.03 42.62 -0.04 48.22 -0.04 C60.47 -0.06 72.71 -0.06 84.96 -0.07 C92.61 -0.07 100.26 -0.08 107.91 -0.08 C129.1 -0.09 150.29 -0.1 171.49 -0.11 C172.86 -0.11 174.23 -0.11 175.6 -0.11 C176.97 -0.11 178.34 -0.11 179.72 -0.11 C182.47 -0.11 185.22 -0.11 187.98 -0.11 C188.66 -0.11 189.34 -0.11 190.05 -0.11 C212.17 -0.11 234.3 -0.13 256.42 -0.15 C279.84 -0.18 303.25 -0.19 326.67 -0.19 C339.42 -0.19 352.18 -0.2 364.93 -0.22 C375.79 -0.23 386.66 -0.24 397.52 -0.23 C403.06 -0.22 408.6 -0.23 414.13 -0.24 C419.22 -0.25 424.3 -0.25 429.38 -0.24 C431.21 -0.24 433.03 -0.24 434.86 -0.25 C464.92 -0.38 492.68 6.31 515.88 26.13 C516.22 26.41 516.22 26.41 517.89 27.83 C529.79 38.82 538.05 54.31 542.7 69.63 C542.89 70.27 543.09 70.91 543.29 71.57 C546.95 84.6 547.18 97.69 547.15 111.11 C547.15 113 547.15 114.89 547.16 116.78 C547.17 121.94 547.17 127.11 547.16 132.27 C547.16 137.85 547.17 143.43 547.17 149.01 C547.19 159.94 547.19 170.86 547.19 181.78 C547.19 190.67 547.19 199.55 547.19 208.43 C547.19 209.7 547.19 210.96 547.19 212.27 C547.19 214.84 547.2 217.41 547.2 219.99 C547.2 237.25 547.21 254.52 547.2 271.78 C547.2 272.46 547.2 273.13 547.2 273.83 C547.2 277.24 547.2 280.66 547.2 284.08 C547.2 284.76 547.2 285.44 547.2 286.14 C547.2 287.51 547.2 288.88 547.2 290.25 C547.19 311.6 547.2 332.94 547.22 354.29 C547.24 378.3 547.25 402.32 547.25 426.33 C547.25 439.04 547.25 451.74 547.26 464.44 C547.27 475.26 547.28 486.07 547.26 496.89 C547.26 502.4 547.26 507.91 547.27 513.42 C547.28 518.48 547.28 523.54 547.26 528.6 C547.26 530.41 547.26 532.23 547.27 534.05 C547.4 564.16 541.46 591.22 520.88 614.13 C520.57 614.48 520.57 614.48 518.99 616.27 C501.95 634.47 475.9 644.28 451.29 645.41 C446.28 645.55 441.28 645.53 436.27 645.51 C434.35 645.52 432.42 645.52 430.5 645.53 C425.26 645.54 420.02 645.53 414.78 645.52 C409.11 645.52 403.44 645.53 397.77 645.54 C386.68 645.55 375.59 645.55 364.51 645.54 C355.49 645.53 346.47 645.53 337.46 645.53 C336.17 645.53 334.88 645.53 333.56 645.53 C330.95 645.54 328.33 645.54 325.72 645.54 C301.95 645.55 278.18 645.54 254.41 645.52 C232.74 645.51 211.07 645.51 189.41 645.52 C165.02 645.54 140.64 645.54 116.26 645.54 C113.65 645.53 111.05 645.53 108.45 645.53 C107.81 645.53 107.81 645.53 104.57 645.53 C95.57 645.53 86.57 645.53 77.57 645.54 C66.59 645.55 55.62 645.55 44.64 645.53 C39.05 645.52 33.45 645.52 27.86 645.53 C22.73 645.54 17.6 645.53 12.46 645.52 C10.62 645.51 8.77 645.52 6.93 645.52 C-21.23 645.63 -47.85 639.62 -69.12 620.13 C-70.04 619.3 -70.97 618.47 -71.92 617.61 C-92.57 598.1 -101.14 570.21 -102.39 542.35 C-102.53 537.47 -102.52 532.59 -102.5 527.7 C-102.5 525.83 -102.5 523.97 -102.51 522.1 C-102.52 517.03 -102.52 511.96 -102.51 506.89 C-102.5 501.4 -102.51 495.91 -102.52 490.42 C-102.53 479.68 -102.53 468.95 -102.52 458.21 C-102.51 449.49 -102.51 440.76 -102.52 432.03 C-102.52 430.78 -102.52 429.53 -102.52 428.25 C-102.52 425.72 -102.52 423.19 -102.52 420.66 C-102.53 397.63 -102.52 374.61 -102.51 351.58 C-102.49 330.61 -102.49 309.63 -102.51 288.66 C-102.52 265.04 -102.53 241.42 -102.52 217.8 C-102.52 215.28 -102.52 212.76 -102.52 210.24 C-102.52 209 -102.52 207.76 -102.52 206.48 C-102.51 197.77 -102.52 189.05 -102.52 180.34 C-102.53 169.72 -102.53 159.09 -102.51 148.46 C-102.51 143.05 -102.5 137.63 -102.51 132.22 C-102.52 127.25 -102.52 122.28 -102.5 117.31 C-102.5 115.53 -102.5 113.74 -102.51 111.96 C-102.62 80.95 -95.69 53.19 -74.12 30.13 C-73.8 29.78 -73.8 29.78 -72.21 28.02 C-54.51 9.19 -25.21 -0.06 0 0 Z M-42.12 54.13 C-42.75 54.6 -43.38 55.08 -44.03 55.56 C-52.18 61.92 -56.72 70.56 -60.12 80.13 C-60.46 80.84 -60.8 81.56 -61.15 82.29 C-62.36 85.86 -62.39 89.16 -62.37 92.88 C-62.38 93.66 -62.38 94.44 -62.38 95.24 C-62.39 97.85 -62.39 100.46 -62.38 103.08 C-62.39 104.97 -62.39 106.86 -62.4 108.74 C-62.41 113.94 -62.41 119.14 -62.41 124.34 C-62.41 129.95 -62.42 135.55 -62.43 141.15 C-62.44 152.14 -62.45 163.12 -62.45 174.1 C-62.45 183.03 -62.45 191.96 -62.46 200.89 C-62.48 222.08 -62.49 243.27 -62.49 264.46 C-62.49 265.14 -62.49 265.81 -62.49 266.51 C-62.49 269.95 -62.49 273.38 -62.49 276.82 C-62.49 277.16 -62.49 277.16 -62.49 278.89 C-62.49 280.27 -62.49 281.65 -62.49 283.03 C-62.48 304.48 -62.5 325.94 -62.53 347.39 C-62.56 371.5 -62.57 395.61 -62.57 419.72 C-62.57 432.48 -62.58 445.25 -62.6 458.01 C-62.62 468.88 -62.62 479.75 -62.61 490.62 C-62.6 496.16 -62.6 501.71 -62.62 507.25 C-62.63 512.33 -62.63 517.41 -62.61 522.49 C-62.61 524.33 -62.62 526.16 -62.63 527.99 C-62.73 545.54 -59 559.62 -46.69 572.71 C-34.59 584.11 -20.35 588.31 -3.96 588.26 C-3.17 588.26 -2.37 588.26 -1.55 588.27 C1.12 588.27 3.78 588.27 6.45 588.27 C8.38 588.27 10.31 588.27 12.25 588.27 C17.56 588.28 22.86 588.28 28.17 588.28 C33.9 588.28 39.62 588.28 45.35 588.29 C56.57 588.3 67.78 588.3 79 588.3 C88.12 588.3 97.24 588.3 106.35 588.3 C128 588.31 149.64 588.32 171.29 588.32 C171.63 588.32 171.63 588.32 173.39 588.32 C176.89 588.32 180.4 588.32 183.91 588.32 C184.61 588.32 185.3 588.32 186.02 588.32 C187.43 588.32 188.84 588.32 190.25 588.32 C212.16 588.32 234.07 588.32 255.99 588.34 C280.61 588.35 305.24 588.36 329.86 588.36 C342.9 588.36 355.94 588.36 368.97 588.37 C380.07 588.38 391.17 588.38 402.27 588.38 C407.94 588.37 413.6 588.37 419.26 588.38 C424.45 588.39 429.63 588.39 434.82 588.38 C436.69 588.38 438.57 588.38 440.44 588.39 C458.98 588.44 475.46 587.07 489.88 574.13 C490.66 573.46 491.43 572.79 492.23 572.1 C501.72 563.35 507.5 551.1 508.16 538.14 C508.31 533.29 508.29 528.43 508.27 523.58 C508.28 521.7 508.28 519.81 508.29 517.93 C508.3 512.78 508.3 507.63 508.29 502.48 C508.29 496.92 508.3 491.35 508.31 485.79 C508.33 474.9 508.33 464.01 508.32 453.12 C508.32 444.27 508.32 435.41 508.33 426.56 C508.33 425.3 508.33 424.04 508.33 422.74 C508.33 420.18 508.33 417.62 508.33 415.06 C508.34 397.87 508.35 380.68 508.34 363.48 C508.34 362.81 508.34 362.14 508.34 361.45 C508.33 355.99 508.33 350.54 508.33 345.09 C508.32 323.81 508.33 302.53 508.35 281.26 C508.38 257.34 508.39 233.41 508.38 209.49 C508.38 196.83 508.38 184.17 508.4 171.51 C508.41 160.74 508.41 149.96 508.4 139.19 C508.39 133.69 508.39 128.19 508.4 122.7 C508.42 117.66 508.41 112.63 508.39 107.59 C508.39 105.77 508.39 103.96 508.4 102.14 C508.48 87.66 506.3 76.31 497.88 64.13 C497.68 63.82 497.68 63.82 496.62 62.27 C488.81 52.05 476.89 46.64 464.88 43.13 C464.61 43.04 464.61 43.04 463.19 42.59 C459.8 41.92 456.43 41.99 452.99 41.99 C452.18 41.99 451.38 41.99 450.55 41.99 C447.83 41.98 445.12 41.98 442.4 41.98 C440.44 41.97 438.48 41.97 436.52 41.96 C431.13 41.95 425.73 41.95 420.33 41.94 C414.51 41.94 408.69 41.92 402.88 41.91 C388.82 41.89 374.76 41.87 360.7 41.86 C356.73 41.86 352.76 41.85 348.79 41.85 C324.13 41.82 299.47 41.8 274.81 41.79 C269.09 41.79 263.38 41.78 257.67 41.78 C257.31 41.78 257.31 41.78 255.51 41.78 C232.52 41.77 209.52 41.74 186.52 41.7 C162.87 41.65 139.22 41.63 115.57 41.62 C101.64 41.62 87.72 41.61 73.79 41.57 C62.5 41.54 51.21 41.53 39.92 41.54 C34.16 41.55 28.4 41.55 22.65 41.52 C17.37 41.5 12.09 41.5 6.81 41.52 C4.91 41.52 3 41.52 1.1 41.5 C-15.08 41.38 -29.21 43.44 -42.12 54.13 Z " fill="#1F4798" transform="translate(102.11530017852783,-0.13142776489257813)"/>
<path d="M0 0 C0.33 0 0.66 0 1 0 C1.14 0.58 1.27 1.17 1.41 1.77 C6.96 22.9 24.54 41.04 43 52 C59.25 60.85 76.81 65.18 95.28 65.13 C96.07 65.13 96.85 65.13 97.66 65.13 C100.28 65.14 102.9 65.14 105.52 65.13 C107.42 65.14 109.33 65.14 111.23 65.14 C116.45 65.15 121.67 65.15 126.88 65.15 C132.52 65.15 138.15 65.15 143.78 65.16 C154.81 65.16 165.84 65.17 176.87 65.17 C185.84 65.17 194.81 65.17 203.78 65.17 C225.08 65.18 246.38 65.19 267.67 65.19 C268.35 65.19 269.04 65.19 269.74 65.19 C273.19 65.19 276.64 65.19 280.09 65.19 C280.77 65.19 281.46 65.19 282.16 65.19 C283.55 65.19 284.94 65.19 286.32 65.19 C307.87 65.18 329.42 65.19 350.98 65.21 C375.2 65.22 399.43 65.23 423.66 65.23 C436.48 65.23 449.31 65.23 462.13 65.24 C473.05 65.25 483.97 65.25 494.88 65.25 C500.45 65.24 506.02 65.24 511.59 65.25 C516.69 65.26 521.79 65.26 526.9 65.25 C528.74 65.25 530.58 65.25 532.41 65.26 C546.27 65.29 559.79 64.63 573.19 60.75 C573.94 60.53 574.7 60.32 575.48 60.09 C595.89 54 612.18 40.67 625 24 C625.49 23.38 625.99 22.77 626.5 22.13 C629.78 17.86 631.72 13.26 633.69 8.26 C635 6 635 6 637.15 5.18 C637.76 5.12 638.37 5.06 639 5 C640.57 20.36 630.72 36.33 621.5 47.88 C620.02 49.6 618.52 51.31 617 53 C616.69 53.35 616.69 53.35 615.11 55.14 C598.06 73.34 572.02 83.14 547.41 84.27 C542.4 84.42 537.39 84.4 532.39 84.38 C530.46 84.38 528.54 84.39 526.61 84.4 C521.37 84.41 516.13 84.4 510.89 84.39 C505.22 84.39 499.55 84.4 493.89 84.4 C482.8 84.42 471.71 84.41 460.62 84.41 C451.6 84.4 442.59 84.4 433.57 84.4 C432.29 84.4 431 84.4 429.67 84.4 C427.06 84.4 424.45 84.4 421.84 84.41 C398.06 84.41 374.29 84.41 350.52 84.39 C328.85 84.38 307.19 84.38 285.52 84.39 C261.14 84.41 236.75 84.41 212.37 84.4 C209.77 84.4 207.17 84.4 204.56 84.4 C203.92 84.4 203.92 84.4 200.68 84.4 C191.68 84.4 182.68 84.4 173.68 84.41 C162.71 84.42 151.73 84.41 140.76 84.4 C135.16 84.39 129.57 84.39 123.97 84.4 C118.84 84.41 113.71 84.4 108.58 84.39 C106.73 84.38 104.89 84.38 103.04 84.39 C74.89 84.49 48.27 78.49 27 59 C26.07 58.17 25.15 57.33 24.2 56.48 C11.45 44.43 -0.53 26.25 -2.25 8.45 C-2.36 4.18 -2.36 4.18 -2 2 C-1.34 1.34 -0.68 0.68 0 0 Z " fill="#18397C" transform="translate(6,561)"/>
<path d="M0 0 C5.61 0 11.22 0 17 0 C17 179.85 17 359.7 17 545 C141.41 545 265.82 545 394 545 C394 545.33 394 545.66 394 546 C239.23 546 84.46 546 -75 546 C-75 545.67 -75 545.34 -75 545 C-49.92 545 -24.84 545 1 545 C0.93 538.97 0.86 532.93 0.78 526.72 C0.03 458.21 -0.1 389.7 -0.1 321.19 C-0.1 320.03 -0.1 318.87 -0.1 317.67 C-0.1 287.68 -0.09 257.69 -0.07 227.7 C-0.06 210.29 -0.06 192.88 -0.05 175.47 C-0.05 174.23 -0.05 172.99 -0.05 171.71 C-0.05 165.48 -0.05 159.24 -0.05 153.01 C-0.04 102.01 -0.02 51 0 0 Z " fill="#2E385A" transform="translate(165,42)"/>
<path d="M0 0 C4.3 0.59 5.69 1.32 8.62 4.5 C9.14 7.58 9.35 10.12 9.33 13.2 C9.35 14.04 9.36 14.88 9.38 15.74 C9.42 18.41 9.43 21.08 9.44 23.75 C9.46 25.56 9.49 27.38 9.51 29.19 C9.58 33.63 9.61 38.06 9.62 42.5 C10.23 41.89 10.83 41.28 11.45 40.65 C12.25 39.85 13.05 39.05 13.88 38.22 C14.66 37.42 15.45 36.63 16.27 35.81 C18.94 33.19 21.73 30.75 24.59 28.34 C26.94 26.22 29 23.9 31.12 21.56 C34.01 18.63 35.81 16.9 40 16.75 C43.62 17.5 43.62 17.5 45.62 18.56 C47.24 21.69 47.04 24.04 46.62 27.5 C44.2 31.54 40.61 34.3 37.05 37.32 C33.42 40.58 30.04 44.07 26.66 47.59 C25.35 48.93 23.99 50.22 22.62 51.5 C21.97 51.5 21.31 51.5 20.62 51.5 C20.62 52.16 20.62 52.82 20.62 53.5 C21.17 53.49 21.17 53.49 23.96 53.44 C28.04 53.36 32.13 53.32 36.21 53.28 C37.98 53.26 39.75 53.23 41.52 53.2 C44.06 53.15 46.6 53.13 49.14 53.11 C49.53 53.1 49.53 53.1 51.53 53.05 C55.09 53.05 57.2 53.19 60.12 55.31 C62.32 58.52 62.17 60.7 61.62 64.5 C60.12 66.68 60.12 66.68 57.62 68.5 C54.68 68.92 52.09 69.1 49.14 69.11 C48.33 69.13 47.51 69.14 46.67 69.16 C44.07 69.21 41.47 69.23 38.88 69.25 C37.11 69.28 35.35 69.31 33.58 69.34 C29.26 69.41 24.94 69.46 20.62 69.5 C21.12 69.92 21.61 70.34 22.12 70.78 C26.9 74.91 31.44 79.19 35.88 83.69 C36.47 84.29 37.07 84.89 37.69 85.51 C38.83 86.67 39.97 87.82 41.11 88.98 C42.38 90.26 43.7 91.49 45.02 92.7 C46.62 94.5 46.62 94.5 47.06 98.06 C46.62 101.5 46.62 101.5 45.62 103.44 C42.24 105.24 39.25 105.52 35.62 104.5 C33.35 102.75 31.54 100.84 29.62 98.71 C27.76 96.65 25.86 94.9 23.75 93.12 C20.47 90.32 17.41 87.34 14.37 84.27 C13.48 83.38 12.59 82.48 11.67 81.56 C10.99 80.88 10.32 80.2 9.62 79.5 C9.62 80.62 9.62 81.75 9.61 82.91 C9.59 87.09 9.54 91.28 9.47 95.46 C9.45 97.27 9.43 99.08 9.43 100.89 C9.42 103.49 9.38 106.09 9.33 108.7 C9.34 109.5 9.34 110.31 9.34 111.14 C9.23 115.37 8.97 117.05 6.31 120.51 C3.62 122.5 3.62 122.5 0 123.06 C-3.38 122.5 -3.38 122.5 -5.05 121.02 C-7.02 117.27 -6.85 113.76 -6.89 109.58 C-6.9 108.72 -6.92 107.86 -6.94 106.97 C-7 104.23 -7.03 101.49 -7.06 98.75 C-7.1 96.89 -7.13 95.03 -7.17 93.17 C-7.25 88.61 -7.32 84.06 -7.38 79.5 C-8.12 80.25 -8.86 81 -9.63 81.77 C-10.62 82.77 -11.62 83.77 -12.61 84.77 C-13.1 85.26 -13.59 85.75 -14.09 86.26 C-17.45 89.63 -20.91 92.81 -24.55 95.86 C-26.48 97.6 -28.11 99.48 -29.81 101.44 C-32.51 104.19 -34.26 104.99 -38.12 105.12 C-40.78 105.02 -41.99 104.8 -44.09 103.16 C-45.38 101.5 -45.38 101.5 -46.19 98.38 C-45.07 93.02 -42.18 91.1 -38.05 87.71 C-35.31 85.45 -32.88 83.03 -30.38 80.5 C-29.41 79.53 -28.45 78.57 -27.48 77.61 C-27 77.13 -26.52 76.65 -26.03 76.15 C-23.81 73.93 -21.59 71.72 -19.38 69.5 C-19.91 69.5 -19.91 69.5 -22.6 69.49 C-26.56 69.47 -30.52 69.41 -34.48 69.35 C-36.19 69.32 -37.9 69.31 -39.62 69.3 C-42.08 69.3 -44.55 69.25 -47.01 69.21 C-47.77 69.21 -48.54 69.21 -49.32 69.22 C-53.32 69.11 -55.18 68.65 -58.36 66.15 C-60.38 63.5 -60.38 63.5 -60.94 60.44 C-60.22 56.72 -59.41 55.76 -56.38 53.5 C-53.43 53.08 -50.84 52.9 -47.89 52.89 C-47.08 52.87 -46.26 52.86 -45.42 52.84 C-42.82 52.79 -40.22 52.77 -37.62 52.75 C-35.86 52.72 -34.1 52.69 -32.33 52.66 C-28.01 52.59 -23.69 52.54 -19.38 52.5 C-20.79 51.07 -22.21 49.64 -23.62 48.22 C-24.41 47.42 -25.2 46.63 -26.02 45.81 C-28.08 43.79 -30.18 41.88 -32.38 40 C-35.42 37.36 -38.43 34.69 -41.38 31.94 C-42.14 31.23 -42.9 30.53 -43.69 29.81 C-45.86 26.84 -45.81 25.1 -45.38 21.5 C-43.81 19.12 -43.81 19.12 -41.38 17.5 C-36.97 16.93 -35.02 17.05 -31.34 19.63 C-30.31 20.61 -29.3 21.61 -28.31 22.62 C-28.04 22.89 -28.04 22.89 -26.67 24.22 C-24.88 25.97 -23.13 27.73 -21.38 29.5 C-20.06 30.81 -18.74 32.11 -17.42 33.41 C-14.05 36.75 -10.71 40.12 -7.38 43.5 C-7.36 42.34 -7.35 41.18 -7.33 39.98 C-7.27 35.67 -7.2 31.37 -7.11 27.06 C-7.08 25.19 -7.05 23.33 -7.03 21.46 C-6.99 18.78 -6.94 16.1 -6.89 13.42 C-6.88 13.01 -6.88 13.01 -6.87 10.9 C-6.78 7.43 -6.68 5.08 -5.05 1.97 C-3.38 0.5 -3.38 0.5 0 0 Z " fill="#F9984A" transform="translate(507.375,77.5)"/>
<path d="M0 0 C44.95 -0.05 89.91 -0.1 134.86 -0.13 C135.19 -0.13 135.19 -0.13 136.88 -0.13 C151.34 -0.14 165.8 -0.15 180.26 -0.15 C187.35 -0.16 194.45 -0.16 201.54 -0.16 C202.24 -0.17 202.95 -0.17 203.68 -0.17 C226.55 -0.18 249.42 -0.2 272.29 -0.23 C295.8 -0.26 319.3 -0.28 342.81 -0.28 C357.95 -0.29 373.1 -0.3 388.24 -0.32 C398.17 -0.34 408.1 -0.34 418.02 -0.34 C423.75 -0.34 429.48 -0.34 435.21 -0.36 C440.46 -0.37 445.7 -0.37 450.95 -0.36 C452.84 -0.36 454.74 -0.37 456.64 -0.37 C474.82 -0.46 474.82 -0.46 483 3 C483.63 3.25 484.26 3.51 484.9 3.77 C501.65 10.91 510.85 22.2 517.84 38.7 C519.84 44.37 520.15 49.81 520.13 55.77 C520.13 56.53 520.13 57.3 520.13 58.09 C520.14 60.66 520.14 63.23 520.13 65.81 C520.14 67.67 520.14 69.53 520.14 71.39 C520.15 76.51 520.15 81.63 520.15 86.75 C520.15 92.27 520.15 97.79 520.16 103.31 C520.16 114.12 520.17 124.94 520.17 135.75 C520.17 144.54 520.17 153.34 520.17 162.13 C520.18 182.99 520.19 203.86 520.19 224.72 C520.19 225.39 520.19 226.06 520.19 226.75 C520.19 230.13 520.19 233.51 520.19 236.89 C520.19 237.23 520.19 237.23 520.19 238.93 C520.19 240.29 520.19 241.64 520.19 243 C520.18 264.13 520.19 285.26 520.21 306.38 C520.22 330.13 520.23 353.87 520.23 377.61 C520.23 390.17 520.23 402.74 520.24 415.31 C520.25 426.01 520.25 436.72 520.25 447.42 C520.24 452.88 520.24 458.34 520.25 463.8 C520.26 468.8 520.26 473.8 520.25 478.8 C520.25 480.6 520.25 482.41 520.26 484.22 C520.31 501.51 518.45 514.82 508 529 C507.5 529.68 507 530.36 506.48 531.06 C497.63 542.08 485.05 548.13 471.19 549.79 C467.66 550.13 464.15 550.14 460.6 550.13 C460.19 550.13 460.19 550.13 458.14 550.14 C455.43 550.14 452.72 550.14 450.01 550.14 C448.04 550.14 446.08 550.15 444.11 550.15 C438.71 550.16 433.32 550.16 427.92 550.16 C422.1 550.16 416.27 550.17 410.45 550.18 C397.72 550.19 384.99 550.2 372.26 550.2 C364.32 550.2 356.37 550.21 348.42 550.21 C326.41 550.22 304.4 550.23 282.39 550.24 C280.96 550.24 279.54 550.24 278.12 550.24 C276.69 550.24 275.27 550.24 273.84 550.24 C270.98 550.24 268.12 550.24 265.26 550.24 C264.9 550.24 264.9 550.24 263.11 550.24 C240.11 550.24 217.11 550.26 194.12 550.28 C169.79 550.31 145.46 550.32 121.13 550.32 C107.88 550.32 94.62 550.33 81.36 550.35 C70.08 550.36 58.79 550.37 47.5 550.36 C41.75 550.36 35.99 550.36 30.23 550.37 C24.96 550.38 19.68 550.38 14.41 550.37 C12.5 550.37 10.6 550.37 8.7 550.38 C-11.08 550.47 -26.78 546.89 -41.56 532.67 C-52.23 521 -56.18 507.66 -56.13 492.12 C-56.13 491.36 -56.13 490.61 -56.13 489.83 C-56.13 487.31 -56.13 484.79 -56.13 482.27 C-56.13 480.45 -56.13 478.62 -56.13 476.79 C-56.14 471.77 -56.13 466.75 -56.13 461.74 C-56.13 456.32 -56.13 450.91 -56.13 445.49 C-56.14 434.89 -56.14 424.29 -56.14 413.69 C-56.13 405.07 -56.13 396.45 -56.13 387.84 C-56.13 386.61 -56.13 385.38 -56.13 384.12 C-56.13 381.63 -56.13 379.14 -56.14 376.65 C-56.14 353.29 -56.13 329.93 -56.13 306.57 C-56.12 286.53 -56.13 266.48 -56.13 246.43 C-56.14 223.16 -56.14 199.88 -56.13 176.61 C-56.13 174.13 -56.13 171.65 -56.13 169.16 C-56.13 167.94 -56.13 166.72 -56.13 165.46 C-56.13 156.86 -56.13 148.25 -56.14 139.64 C-56.14 129.15 -56.14 118.67 -56.13 108.18 C-56.13 102.83 -56.13 97.48 -56.13 92.12 C-56.14 87.22 -56.13 82.33 -56.13 77.43 C-56.13 75.65 -56.13 73.88 -56.13 72.11 C-56.13 69.7 -56.13 67.29 -56.13 64.88 C-56.13 64.19 -56.13 63.51 -56.13 62.8 C-56.11 58.11 -55.65 53.63 -55 49 C-54.67 49 -54.34 49 -54 49 C-54 49.95 -54 50.89 -54 51.87 C-53.96 107.98 -53.91 164.1 -53.82 220.22 C-53.81 226.96 -53.8 233.7 -53.79 240.44 C-53.79 240.77 -53.79 240.77 -53.79 242.47 C-53.76 264.19 -53.74 285.91 -53.73 307.63 C-53.72 330.6 -53.69 353.56 -53.65 376.52 C-53.62 390.27 -53.61 404.02 -53.61 417.77 C-53.61 427.21 -53.59 436.64 -53.57 446.07 C-53.55 451.51 -53.54 456.95 -53.55 462.39 C-53.56 467.38 -53.55 472.37 -53.53 477.36 C-53.52 479.15 -53.52 480.95 -53.53 482.75 C-53.61 501.81 -50.07 518.41 -36.47 532.71 C-24.85 543.47 -10.41 547.17 5.15 547.13 C5.95 547.13 6.75 547.13 7.57 547.13 C10.23 547.14 12.9 547.14 15.57 547.13 C17.5 547.14 19.43 547.14 21.36 547.14 C26.67 547.15 31.98 547.15 37.29 547.15 C43.01 547.15 48.74 547.15 54.46 547.16 C65.68 547.16 76.9 547.17 88.12 547.17 C97.23 547.17 106.35 547.17 115.47 547.17 C137.11 547.18 158.76 547.19 180.4 547.19 C180.75 547.19 180.75 547.19 182.5 547.19 C186.01 547.19 189.52 547.19 193.02 547.19 C193.72 547.19 194.42 547.19 195.13 547.19 C196.54 547.19 197.95 547.19 199.36 547.19 C221.27 547.18 243.19 547.19 265.1 547.21 C289.73 547.22 314.35 547.23 338.98 547.23 C352.02 547.23 365.05 547.23 378.09 547.24 C389.19 547.25 400.29 547.25 411.39 547.25 C417.05 547.24 422.71 547.24 428.37 547.25 C433.56 547.26 438.75 547.26 443.94 547.25 C445.81 547.25 447.68 547.25 449.55 547.26 C468.12 547.31 484.54 545.92 499 533 C499.7 532.4 500.4 531.81 501.12 531.2 C510.28 522.85 515.65 510.36 516.28 498.01 C516.43 493.15 516.41 488.3 516.39 483.45 C516.39 481.56 516.4 479.68 516.4 477.8 C516.42 472.65 516.41 467.5 516.41 462.35 C516.4 456.78 516.41 451.22 516.42 445.66 C516.44 434.77 516.44 423.88 516.44 412.99 C516.43 404.13 516.44 395.28 516.44 386.43 C516.44 385.17 516.44 383.91 516.44 382.61 C516.44 380.05 516.45 377.49 516.45 374.93 C516.46 357.73 516.46 340.54 516.45 323.35 C516.45 322.68 516.45 322.01 516.45 321.32 C516.45 315.86 516.45 310.41 516.45 304.95 C516.43 283.68 516.44 262.4 516.47 241.13 C516.49 217.2 516.51 193.28 516.5 169.36 C516.49 156.7 516.5 144.04 516.51 131.38 C516.53 120.61 516.53 109.83 516.51 99.05 C516.5 93.56 516.5 88.06 516.52 82.57 C516.53 77.53 516.53 72.5 516.51 67.46 C516.5 65.64 516.51 63.83 516.52 62.01 C516.61 44.95 513.06 30.82 501 18 C492.72 11.06 484.36 7.03 474 4 C473.43 3.82 472.87 3.64 472.28 3.45 C469.02 2.8 465.78 2.86 462.46 2.86 C461.7 2.86 460.93 2.86 460.14 2.86 C457.56 2.85 454.97 2.85 452.39 2.85 C450.53 2.84 448.66 2.84 446.8 2.84 C441.66 2.82 436.52 2.82 431.39 2.81 C425.85 2.81 420.32 2.8 414.78 2.79 C405.18 2.77 395.59 2.75 385.99 2.74 C372.09 2.72 358.2 2.7 344.3 2.67 C321.74 2.63 299.17 2.59 276.61 2.55 C275.93 2.55 275.26 2.55 274.56 2.55 C264.98 2.53 255.39 2.52 245.81 2.5 C234.19 2.48 222.57 2.47 210.96 2.45 C210.28 2.45 209.61 2.45 208.92 2.44 C185.77 2.41 162.63 2.37 139.48 2.32 C125.63 2.3 111.78 2.27 97.92 2.26 C88.42 2.24 78.92 2.23 69.42 2.21 C63.94 2.2 58.46 2.19 52.98 2.18 C47.96 2.18 42.93 2.17 37.91 2.16 C36.1 2.15 34.29 2.15 32.48 2.15 C21.61 2.15 10.84 1.82 0 1 C0 0.67 0 0.34 0 0 Z " fill="#3D69B6" transform="translate(93,40)"/>
<path d="M0 0 C44.95 -0.05 89.91 -0.1 134.86 -0.13 C135.19 -0.13 135.19 -0.13 136.88 -0.13 C151.34 -0.14 165.8 -0.15 180.26 -0.15 C187.35 -0.16 194.45 -0.16 201.54 -0.16 C202.24 -0.17 202.95 -0.17 203.68 -0.17 C226.55 -0.18 249.42 -0.2 272.29 -0.23 C295.8 -0.26 319.3 -0.28 342.81 -0.28 C357.95 -0.29 373.1 -0.3 388.24 -0.32 C398.17 -0.34 408.1 -0.34 418.02 -0.34 C423.75 -0.34 429.48 -0.34 435.21 -0.36 C440.46 -0.37 445.7 -0.37 450.95 -0.36 C452.84 -0.36 454.74 -0.37 456.64 -0.37 C474.82 -0.46 474.82 -0.46 483 3 C483.31 3.13 483.31 3.13 484.9 3.77 C501.65 10.91 510.85 22.2 517.84 38.7 C519.84 44.38 520.15 49.82 520.12 55.8 C520.12 56.57 520.13 57.34 520.13 58.13 C520.13 60.71 520.12 63.3 520.12 65.88 C520.12 67.75 520.12 69.62 520.12 71.49 C520.13 76.63 520.12 81.77 520.12 86.91 C520.11 92.45 520.11 97.99 520.11 103.54 C520.11 113.14 520.11 122.74 520.11 132.34 C520.1 146.23 520.09 160.11 520.09 173.99 C520.09 196.52 520.08 219.04 520.08 241.57 C520.07 263.45 520.06 285.33 520.05 307.21 C520.05 307.55 520.05 307.55 520.05 309.26 C520.05 316.03 520.05 322.81 520.05 329.58 C520.04 386.39 520.02 443.19 520 500 C518.52 498.96 518.52 498.96 517 497 C516.71 494.46 516.6 492.16 516.63 489.62 C516.62 488.86 516.62 488.1 516.61 487.31 C516.6 484.74 516.62 482.17 516.63 479.6 C516.63 477.74 516.62 475.89 516.62 474.04 C516.61 468.92 516.61 463.81 516.63 458.7 C516.63 453.19 516.63 447.68 516.62 442.18 C516.61 432.63 516.61 423.08 516.62 413.53 C516.63 399.71 516.62 385.88 516.61 372.06 C516.58 349.62 516.57 327.18 516.57 304.74 C516.57 304.07 516.57 303.4 516.57 302.71 C516.56 287.73 516.56 272.74 516.56 257.76 C516.56 251.65 516.56 245.54 516.56 239.43 C516.56 238.76 516.56 238.09 516.56 237.4 C516.57 214.38 516.55 191.36 516.52 168.34 C516.51 154.56 516.51 140.77 516.52 126.99 C516.53 117.54 516.53 108.09 516.51 98.64 C516.5 93.19 516.5 87.74 516.51 82.29 C516.53 77.29 516.52 72.3 516.5 67.3 C516.5 65.5 516.5 63.7 516.51 61.89 C516.61 44.89 513.02 30.78 501 18 C492.72 11.06 484.36 7.03 474 4 C473.43 3.82 472.87 3.64 472.28 3.45 C469.02 2.8 465.78 2.86 462.46 2.86 C461.7 2.86 460.93 2.86 460.14 2.86 C457.56 2.85 454.97 2.85 452.39 2.85 C450.53 2.84 448.66 2.84 446.8 2.84 C441.66 2.82 436.52 2.82 431.39 2.81 C425.85 2.81 420.32 2.8 414.78 2.79 C405.18 2.77 395.59 2.75 385.99 2.74 C372.09 2.72 358.2 2.7 344.3 2.67 C321.74 2.63 299.17 2.59 276.61 2.55 C275.93 2.55 275.26 2.55 274.56 2.55 C264.98 2.53 255.39 2.52 245.81 2.5 C234.19 2.48 222.57 2.47 210.96 2.45 C210.28 2.45 209.61 2.45 208.92 2.44 C185.77 2.41 162.63 2.37 139.48 2.32 C125.63 2.3 111.78 2.27 97.92 2.26 C88.42 2.24 78.92 2.23 69.42 2.21 C63.94 2.2 58.46 2.19 52.98 2.18 C47.96 2.18 42.93 2.17 37.91 2.16 C36.1 2.15 34.29 2.15 32.48 2.15 C21.61 2.15 10.84 1.82 0 1 C0 0.67 0 0.34 0 0 Z " fill="#355A9F" transform="translate(93,40)"/>
<path d="M0 0 C0.8 -0 1.6 -0 2.43 -0 C5.11 -0.01 7.8 -0 10.49 0 C12.43 0 14.37 0 16.32 0 C21.66 -0 27.01 0 32.35 0.01 C38.12 0.01 43.88 0.01 49.64 0.01 C59.63 0.01 69.61 0.01 79.6 0.02 C94.04 0.03 108.47 0.03 122.91 0.03 C146.33 0.03 169.76 0.04 193.18 0.05 C215.94 0.06 238.69 0.06 261.45 0.07 C262.15 0.07 262.85 0.07 263.57 0.07 C270.61 0.07 277.66 0.07 284.7 0.07 C299.05 0.07 313.4 0.08 327.75 0.08 C329.07 0.08 330.39 0.08 331.74 0.08 C375.14 0.09 418.53 0.11 461.92 0.12 C461.92 0.45 461.92 0.78 461.92 1.12 C313.09 1.45 164.26 1.78 10.92 2.12 C10.92 2.45 10.92 2.78 10.92 3.12 C10.31 3.13 9.7 3.13 9.06 3.14 C-8.71 3.34 -23.88 4.43 -38.08 16.12 C-38.6 16.5 -38.6 16.5 -41.27 18.44 C-48.03 24.9 -51.98 32.39 -55.08 41.12 C-55.25 41.48 -55.25 41.48 -56.11 43.29 C-57.32 46.84 -57.36 50.13 -57.34 53.83 C-57.34 54.6 -57.35 55.37 -57.35 56.17 C-57.36 58.77 -57.36 61.36 -57.36 63.96 C-57.36 65.84 -57.37 67.71 -57.37 69.59 C-57.39 74.76 -57.39 79.92 -57.4 85.09 C-57.4 90.65 -57.41 96.22 -57.43 101.79 C-57.45 111.44 -57.47 121.08 -57.48 130.73 C-57.49 144.68 -57.52 158.63 -57.54 172.58 C-57.59 195.21 -57.63 217.84 -57.66 240.47 C-57.69 262.46 -57.72 284.44 -57.76 306.43 C-57.76 307.11 -57.76 307.78 -57.76 308.48 C-57.78 315.29 -57.79 322.09 -57.8 328.9 C-57.91 385.97 -58 443.05 -58.08 500.12 C-58.41 500.12 -58.74 500.12 -59.08 500.12 C-59.41 354.26 -59.74 208.4 -60.08 58.12 C-60.41 58.12 -60.74 58.12 -61.08 58.12 C-61.88 42.41 -56.47 30.13 -46.33 18.31 C-34.06 5.51 -17.56 -0.06 0 0 Z " fill="#28498A" transform="translate(98.07845115661621,38.876952171325684)"/>
<path d="M0 0 C1.21 -0.01 2.42 -0.03 3.66 -0.04 C4.96 -0.03 6.26 -0.02 7.6 -0.01 C8.96 -0.02 10.31 -0.02 11.66 -0.03 C14.49 -0.03 17.32 -0.02 20.15 -0 C23.78 0.02 27.4 0.01 31.03 -0.02 C33.82 -0.03 36.61 -0.03 39.4 -0.02 C41.39 -0.01 43.37 -0.03 45.36 -0.04 C45.96 -0.03 45.96 -0.03 49.02 0 C50.08 0 51.14 0.01 52.24 0.01 C55.68 0.64 56.86 1.81 59.01 4.52 C59.54 6.52 59.54 6.52 59.51 8.52 C59.51 8.85 59.51 8.85 59.54 10.52 C58.76 13.45 57.35 14.61 55.01 16.52 C52.23 17.02 52.23 17.02 49 17.02 C47.79 17.03 46.58 17.04 45.33 17.05 C44.03 17.04 42.72 17.03 41.38 17.01 C40.03 17.01 38.67 17.02 37.32 17.02 C34.48 17.02 31.65 17.01 28.81 16.98 C25.18 16.96 21.54 16.96 17.91 16.97 C15.11 16.98 12.32 16.97 9.52 16.96 C7.53 16.95 5.54 16.96 3.55 16.96 C2.34 16.95 1.13 16.93 -0.11 16.92 C-1.18 16.92 -2.24 16.91 -3.34 16.91 C-6.34 16.47 -7.2 15.91 -8.99 13.52 C-10.54 10.43 -10.28 7.92 -9.99 4.52 C-7.02 0.55 -4.85 0.01 0 0 Z " fill="#384264" transform="translate(78.990234375,220.482421875)"/>
<path d="M0 0 C1.21 -0.01 2.42 -0.03 3.66 -0.04 C4.96 -0.03 6.26 -0.02 7.6 -0.01 C8.96 -0.02 10.31 -0.02 11.66 -0.03 C14.49 -0.03 17.32 -0.02 20.15 -0 C23.78 0.02 27.4 0.01 31.03 -0.02 C33.82 -0.03 36.61 -0.03 39.4 -0.02 C41.39 -0.01 43.37 -0.03 45.36 -0.04 C45.96 -0.03 45.96 -0.03 49.02 0 C50.08 0 51.14 0.01 52.24 0.01 C55.71 0.65 56.89 1.74 59.01 4.52 C59.68 8.62 59.55 10.66 57.32 14.2 C52.88 18.32 46.18 17.23 40.54 17.18 C39.22 17.19 37.91 17.19 36.55 17.2 C33.77 17.2 31 17.19 28.22 17.17 C24.66 17.14 21.11 17.16 17.55 17.19 C14.15 17.21 10.75 17.19 7.35 17.18 C6.07 17.19 4.8 17.2 3.48 17.21 C2.3 17.2 1.11 17.18 -0.11 17.16 C-1.15 17.16 -2.19 17.16 -3.27 17.15 C-5.99 16.52 -5.99 16.52 -8.33 14.2 C-10.51 10.68 -10.58 8.59 -9.99 4.52 C-6.99 0.57 -4.87 0.01 0 0 Z " fill="#3A4568" transform="translate(78.990234375,120.482421875)"/>
<path d="M0 0 C1.23 -0.01 2.46 -0.02 3.72 -0.03 C5.06 -0.02 6.4 -0.02 7.75 -0.01 C9.12 -0.01 10.5 -0.02 11.87 -0.02 C14.76 -0.02 17.64 -0.02 20.53 -0 C24.22 0.01 27.91 0 31.61 -0.01 C34.45 -0.02 37.29 -0.02 40.13 -0.01 C41.5 -0.01 42.86 -0.01 44.22 -0.02 C46.12 -0.03 48.03 -0.01 49.93 0 C50.48 0 50.48 0 53.22 0.01 C56.4 0.44 57.79 1.1 60.03 3.39 C60.71 7.47 60.56 9.55 58.34 13.08 C53.9 17.19 47.2 16.08 41.56 16.02 C40.24 16.02 38.93 16.02 37.57 16.02 C34.8 16.03 32.02 16.01 29.24 15.99 C25.68 15.95 22.13 15.96 18.57 15.98 C15.17 15.99 11.77 15.97 8.37 15.95 C7.1 15.96 5.82 15.96 4.5 15.97 C3.91 15.96 3.91 15.96 0.91 15.92 C-0.13 15.92 -1.17 15.91 -2.24 15.9 C-5.65 15.26 -6.84 14.07 -8.97 11.39 C-9.68 8.48 -9.31 6.45 -8.97 3.39 C-6.58 -0.17 -4.08 0.01 0 0 Z " fill="#03C2B2" transform="translate(77.968505859375,171.61181640625)"/>
<path d="M0 0 C0 0.33 0 0.66 0 1 C-0.61 1 -1.23 1.01 -1.86 1.01 C-19.63 1.22 -34.8 2.31 -49 14 C-50.05 14.76 -51.1 15.53 -52.19 16.31 C-58.96 22.78 -62.9 30.27 -66 39 C-66.35 39.85 -66.7 40.71 -67.07 41.59 C-68.14 44.37 -68.59 47.05 -69 50 C-69.33 50 -69.66 50 -70 50 C-70.16 50.99 -70.16 50.99 -71 56 C-71.33 56 -71.66 56 -72 56 C-72.8 40.28 -67.39 28 -57.25 16.19 C-40.7 -1.09 -22.54 -1.89 0 0 Z " fill="#3158A4" transform="translate(109,41)"/>
<path d="M0 0 C2.54 3.81 2.68 6.61 2 11 C-0.45 18.73 -4.12 25.56 -9 32 C-9.5 32.68 -10 33.35 -10.52 34.05 C-18.74 44.33 -30.63 50.83 -43.64 52.46 C-46.77 52.71 -49.87 52.9 -53 53 C-53 52.34 -53 51.68 -53 51 C-51.72 50.73 -50.44 50.46 -49.12 50.19 C-34.95 46.99 -24.41 42.41 -14 32 C-13.48 31.48 -12.97 30.97 -12.44 30.44 C-4.68 21.91 -2.42 10.89 0 0 Z " fill="#335BA6" transform="translate(610,537)"/>
<path d="M0 0 C1.86 2.79 2.72 4.91 3.75 8.06 C8.69 21.86 16.98 31.26 30 38 C36.49 40.5 43.07 42.36 50 43 C50 43.33 50 43.66 50 44 C39.08 46.18 30.67 42.59 21.48 36.75 C12.98 30.75 7.01 24.11 2 15 C1.63 14.35 1.25 13.7 0.87 13.03 C-1.49 8.37 -0.95 4.94 0 0 Z " fill="#3059A4" transform="translate(40,544)"/>
</svg>
