<?xml version="1.0" encoding="UTF-8"?>
<!-- Generator: visioncortex VTracer 0.6.5 -->
<svg version="1.1" xmlns="http://www.w3.org/2000/svg" width="649" height="645">
<path d="M0 0 C0.39 -0 0.39 -0 2.36 -0.01 C4.97 -0.01 7.58 -0.01 10.18 -0.01 C12.07 -0.01 13.96 -0.01 15.85 -0.02 C21.04 -0.03 26.23 -0.03 31.42 -0.03 C37.02 -0.03 42.62 -0.04 48.22 -0.04 C60.47 -0.06 72.71 -0.06 84.96 -0.07 C92.61 -0.07 100.26 -0.08 107.91 -0.08 C129.1 -0.09 150.29 -0.1 171.49 -0.11 C172.86 -0.11 174.23 -0.11 175.6 -0.11 C176.97 -0.11 178.34 -0.11 179.72 -0.11 C182.47 -0.11 185.22 -0.11 187.98 -0.11 C188.66 -0.11 189.34 -0.11 190.05 -0.11 C212.17 -0.11 234.3 -0.13 256.42 -0.15 C279.84 -0.18 303.25 -0.19 326.67 -0.19 C339.42 -0.19 352.18 -0.2 364.93 -0.22 C375.79 -0.23 386.66 -0.24 397.52 -0.23 C403.06 -0.22 408.6 -0.23 414.13 -0.24 C419.22 -0.25 424.3 -0.25 429.38 -0.24 C431.21 -0.24 433.03 -0.24 434.86 -0.25 C464.92 -0.38 492.68 6.31 515.88 26.13 C516.22 26.41 516.22 26.41 517.89 27.83 C529.79 38.82 538.05 54.31 542.7 69.63 C542.89 70.27 543.09 70.91 543.29 71.57 C546.95 84.6 547.18 97.69 547.15 111.11 C547.15 113 547.15 114.89 547.16 116.78 C547.17 121.94 547.17 127.11 547.16 132.27 C547.16 137.85 547.17 143.43 547.17 149.01 C547.19 159.94 547.19 170.86 547.19 181.78 C547.19 190.67 547.19 199.55 547.19 208.43 C547.19 209.7 547.19 210.96 547.19 212.27 C547.19 214.84 547.2 217.41 547.2 219.99 C547.2 237.25 547.21 254.52 547.2 271.78 C547.2 272.46 547.2 273.13 547.2 273.83 C547.2 277.24 547.2 280.66 547.2 284.08 C547.2 284.76 547.2 285.44 547.2 286.14 C547.2 287.51 547.2 288.88 547.2 290.25 C547.19 311.6 547.2 332.94 547.22 354.29 C547.24 378.3 547.25 402.32 547.25 426.33 C547.25 439.04 547.25 451.74 547.26 464.44 C547.27 475.26 547.28 486.07 547.26 496.89 C547.26 502.4 547.26 507.91 547.27 513.42 C547.28 518.48 547.28 523.54 547.26 528.6 C547.26 530.41 547.26 532.23 547.27 534.05 C547.4 564.16 541.46 591.22 520.88 614.13 C520.57 614.48 520.57 614.48 518.99 616.27 C501.95 634.47 475.9 644.28 451.29 645.41 C446.28 645.55 441.28 645.53 436.27 645.51 C434.35 645.52 432.42 645.52 430.5 645.53 C425.26 645.54 420.02 645.53 414.78 645.52 C409.11 645.52 403.44 645.53 397.77 645.54 C386.68 645.55 375.59 645.55 364.51 645.54 C355.49 645.53 346.47 645.53 337.46 645.53 C336.17 645.53 334.88 645.53 333.56 645.53 C330.95 645.54 328.33 645.54 325.72 645.54 C301.95 645.55 278.18 645.54 254.41 645.52 C232.74 645.51 211.07 645.51 189.41 645.52 C165.02 645.54 140.64 645.54 116.26 645.54 C113.65 645.53 111.05 645.53 108.45 645.53 C107.81 645.53 107.81 645.53 104.57 645.53 C95.57 645.53 86.57 645.53 77.57 645.54 C66.59 645.55 55.62 645.55 44.64 645.53 C39.05 645.52 33.45 645.52 27.86 645.53 C22.73 645.54 17.6 645.53 12.46 645.52 C10.62 645.51 8.77 645.52 6.93 645.52 C-21.23 645.63 -47.85 639.62 -69.12 620.13 C-70.04 619.3 -70.97 618.47 -71.92 617.61 C-92.57 598.1 -101.14 570.21 -102.39 542.35 C-102.53 537.47 -102.52 532.59 -102.5 527.7 C-102.5 525.83 -102.5 523.97 -102.51 522.1 C-102.52 517.03 -102.52 511.96 -102.51 506.89 C-102.5 501.4 -102.51 495.91 -102.52 490.42 C-102.53 479.68 -102.53 468.95 -102.52 458.21 C-102.51 449.49 -102.51 440.76 -102.52 432.03 C-102.52 430.78 -102.52 429.53 -102.52 428.25 C-102.52 425.72 -102.52 423.19 -102.52 420.66 C-102.53 397.63 -102.52 374.61 -102.51 351.58 C-102.49 330.61 -102.49 309.63 -102.51 288.66 C-102.52 265.04 -102.53 241.42 -102.52 217.8 C-102.52 215.28 -102.52 212.76 -102.52 210.24 C-102.52 209 -102.52 207.76 -102.52 206.48 C-102.51 197.77 -102.52 189.05 -102.52 180.34 C-102.53 169.72 -102.53 159.09 -102.51 148.46 C-102.51 143.05 -102.5 137.63 -102.51 132.22 C-102.52 127.25 -102.52 122.28 -102.5 117.31 C-102.5 115.53 -102.5 113.74 -102.51 111.96 C-102.62 80.95 -95.69 53.19 -74.12 30.13 C-73.8 29.78 -73.8 29.78 -72.21 28.02 C-54.51 9.19 -25.21 -0.06 0 0 Z M-50.86 62.44 C-58.18 72.28 -62.44 83.93 -62.37 96.19 C-62.38 96.96 -62.38 97.73 -62.38 98.53 C-62.39 101.11 -62.39 103.7 -62.38 106.28 C-62.39 108.15 -62.39 110.03 -62.4 111.9 C-62.41 117.05 -62.41 122.19 -62.41 127.34 C-62.41 132.89 -62.42 138.44 -62.43 143.99 C-62.44 154.86 -62.45 165.74 -62.45 176.61 C-62.45 185.45 -62.45 194.29 -62.46 203.13 C-62.48 224.11 -62.49 245.1 -62.49 266.09 C-62.49 266.76 -62.49 267.43 -62.49 268.12 C-62.49 271.52 -62.49 274.92 -62.49 278.32 C-62.49 279 -62.49 279.67 -62.49 280.37 C-62.49 281.74 -62.49 283.1 -62.49 284.47 C-62.48 305.71 -62.5 326.95 -62.53 348.19 C-62.56 372.07 -62.57 395.95 -62.57 419.82 C-62.57 432.46 -62.58 445.1 -62.6 457.74 C-62.62 468.5 -62.62 479.26 -62.61 490.02 C-62.6 495.51 -62.6 501 -62.62 506.48 C-62.63 511.51 -62.63 516.54 -62.61 521.57 C-62.61 523.39 -62.62 525.2 -62.63 527.01 C-62.73 544.47 -59.26 559.07 -47.08 572.26 C-36.59 582.29 -23.45 587.3 -9.05 587.26 C-8.24 587.26 -7.43 587.27 -6.59 587.27 C-3.86 587.27 -1.13 587.27 1.6 587.27 C3.57 587.27 5.54 587.28 7.51 587.28 C12.94 587.29 18.37 587.29 23.8 587.29 C29.65 587.29 35.5 587.3 41.35 587.31 C54.82 587.32 68.29 587.33 81.76 587.33 C88.41 587.33 95.07 587.34 101.72 587.34 C124.51 587.35 147.3 587.37 170.09 587.37 C171.52 587.37 172.95 587.37 174.38 587.37 C175.81 587.37 177.25 587.37 178.68 587.37 C181.56 587.37 184.43 587.37 187.31 587.37 C188.02 587.37 188.73 587.37 189.47 587.37 C212.59 587.38 235.71 587.39 258.84 587.41 C283.29 587.44 307.74 587.45 332.19 587.45 C334.87 587.45 337.56 587.45 340.24 587.45 C340.9 587.46 341.56 587.46 342.24 587.46 C352.22 587.46 362.19 587.47 372.17 587.48 C383.51 587.49 394.86 587.5 406.21 587.49 C412 587.49 417.79 587.49 423.58 587.5 C428.88 587.52 434.18 587.51 439.49 587.5 C441.4 587.5 443.32 587.5 445.23 587.51 C463.6 587.59 478.92 584.64 492.7 571.41 C506.22 557.29 508.19 541.72 508.15 522.97 C508.15 521.11 508.15 519.24 508.16 517.38 C508.17 512.27 508.17 507.16 508.16 502.05 C508.16 496.53 508.17 491.02 508.17 485.5 C508.19 474.7 508.19 463.9 508.19 453.1 C508.19 444.32 508.19 435.54 508.19 426.76 C508.19 425.51 508.19 424.26 508.19 422.97 C508.19 420.43 508.2 417.89 508.2 415.35 C508.2 398.31 508.21 381.26 508.2 364.21 C508.2 363.55 508.2 362.88 508.2 362.19 C508.2 358.82 508.2 355.44 508.2 352.06 C508.2 351.39 508.2 350.72 508.2 350.03 C508.2 348.67 508.2 347.32 508.2 345.96 C508.19 324.86 508.2 303.76 508.22 282.66 C508.24 258.94 508.25 235.22 508.25 211.5 C508.25 198.94 508.25 186.39 508.26 173.83 C508.27 163.15 508.28 152.46 508.26 141.77 C508.26 136.32 508.26 130.87 508.27 125.41 C508.28 120.42 508.28 115.43 508.26 110.43 C508.26 108.63 508.26 106.83 508.27 105.02 C508.34 87.4 505.8 71.96 493.01 58.69 C477.8 44.54 461.18 41.81 440.99 41.88 C439.4 41.88 437.81 41.88 436.22 41.88 C431.86 41.87 427.51 41.88 423.16 41.88 C418.46 41.89 413.76 41.89 409.06 41.88 C399.85 41.88 390.65 41.88 381.45 41.89 C370.74 41.9 360.02 41.9 349.31 41.9 C330.19 41.9 311.07 41.91 291.95 41.93 C273.4 41.94 254.85 41.95 236.3 41.95 C235.16 41.95 234.01 41.95 232.83 41.95 C232.26 41.95 232.26 41.95 229.38 41.95 C208.25 41.95 187.12 41.95 166 41.96 C158.53 41.96 151.06 41.96 143.59 41.96 C134.49 41.97 125.39 41.97 116.29 41.98 C111.65 41.98 107 41.99 102.36 41.99 C98.11 41.98 93.86 41.99 89.61 41.99 C88.07 42 86.54 42 85 42 C82.91 41.99 80.82 42 78.73 42 C77.57 42 76.41 42 75.21 42 C71.69 42.14 68.34 42.45 64.88 43.13 C64.55 43.79 64.22 44.45 63.88 45.13 C63.88 44.14 63.88 43.15 63.88 42.13 C54.12 42.04 44.36 41.97 34.6 41.92 C30.06 41.9 25.52 41.88 20.99 41.83 C16.6 41.79 12.21 41.76 7.82 41.75 C6.16 41.74 4.5 41.73 2.84 41.71 C-17.92 41.45 -36.85 45.73 -50.86 62.44 Z " fill="#1F4798" transform="translate(102.11530017852783,-0.13142776489257813)"/>
<path d="M0 0 C4.28 0.48 6.23 2.88 9 6 C9.44 6.79 9.88 7.57 10.33 8.38 C12.26 11.41 14.45 13.36 17.19 15.69 C18.83 17.08 20.44 18.51 22 20 C22 20.66 22 21.32 22 22 C22.57 22.27 23.14 22.54 23.73 22.81 C26.08 24.04 28.12 25.43 30.25 27 C30.96 27.52 31.66 28.03 32.39 28.56 C32.92 29.04 33.45 29.51 34 30 C34 30.66 34 31.32 34 32 C34.54 32.1 35.08 32.2 35.63 32.3 C38.65 33.19 41.12 34.66 43.88 36.19 C59.86 44.45 76.78 46.9 94.55 46.75 C96.52 46.75 98.48 46.76 100.44 46.77 C105.77 46.79 111.1 46.78 116.43 46.76 C122.21 46.74 127.98 46.75 133.76 46.77 C145.04 46.79 156.32 46.77 167.61 46.75 C180.77 46.72 193.93 46.72 207.09 46.73 C231.29 46.74 255.48 46.71 279.68 46.67 C301.73 46.63 323.78 46.62 345.83 46.63 C347.25 46.63 348.67 46.63 350.08 46.63 C350.43 46.63 350.43 46.63 352.2 46.63 C355.73 46.64 359.26 46.64 362.78 46.64 C363.48 46.64 364.17 46.64 364.89 46.64 C383.37 46.65 401.84 46.64 420.32 46.62 C422.97 46.62 425.62 46.62 428.27 46.61 C429.57 46.61 430.88 46.61 432.22 46.61 C441.38 46.6 450.54 46.6 459.7 46.61 C470.86 46.61 482.03 46.6 493.2 46.57 C498.89 46.56 504.59 46.55 510.28 46.56 C515.5 46.57 520.72 46.56 525.94 46.53 C527.82 46.52 529.7 46.53 531.57 46.53 C554.3 46.63 573.54 41.7 593 30 C593.86 29.5 594.72 29 595.6 28.49 C602.79 24.03 608.33 19.01 613 12 C613.66 12 614.32 12 615 12 C615.23 11.46 615.45 10.93 615.69 10.38 C618.16 5.89 621.07 1.82 626 0 C626.33 1.32 626.66 2.64 627 4 C627.66 4 628.32 4 629 4 C628.53 9.47 627.09 13.43 624.19 18.12 C623.79 18.77 623.4 19.42 622.99 20.08 C611.39 38.35 593.61 52.3 573.19 59.31 C572.53 59.54 571.86 59.77 571.18 60.01 C556.81 64.61 542.35 65.44 527.39 65.38 C525.46 65.38 523.54 65.39 521.61 65.4 C516.37 65.41 511.13 65.4 505.89 65.39 C500.22 65.39 494.55 65.4 488.89 65.4 C477.8 65.42 466.71 65.41 455.62 65.41 C446.6 65.4 437.59 65.4 428.57 65.4 C427.29 65.4 426 65.4 424.67 65.4 C422.06 65.4 419.45 65.4 416.84 65.41 C393.06 65.41 369.29 65.41 345.52 65.39 C323.85 65.38 302.19 65.38 280.52 65.39 C256.14 65.41 231.75 65.41 207.37 65.4 C204.77 65.4 202.17 65.4 199.56 65.4 C198.92 65.4 198.92 65.4 195.68 65.4 C186.68 65.4 177.68 65.4 168.68 65.41 C157.71 65.42 146.73 65.41 135.76 65.4 C130.16 65.39 124.57 65.39 118.97 65.4 C113.84 65.41 108.71 65.4 103.58 65.39 C101.73 65.38 99.89 65.38 98.04 65.39 C69.89 65.49 43.27 59.49 22 40 C21.07 39.17 20.15 38.33 19.2 37.48 C11.27 29.99 4.36 21.08 0 11 C-0.04 9.33 -0.04 7.67 0 6 C-0.33 5.01 -0.66 4.02 -1 3 C-0.67 2.01 -0.34 1.02 0 0 Z " fill="#17387B" transform="translate(11,580)"/>
<path d="M0 0 C2.16 1.52 2.16 1.52 4 4 C4.42 6.95 4.6 9.54 4.61 12.48 C4.63 13.3 4.64 14.12 4.66 14.96 C4.71 17.55 4.73 20.15 4.75 22.75 C4.78 24.51 4.81 26.28 4.84 28.04 C4.91 32.36 4.96 36.68 5 41 C7.67 38.5 10.33 36 13 33.5 C13.74 32.8 14.49 32.11 15.25 31.39 C19.72 27.2 24.09 22.93 28.37 18.55 C30.58 16.45 31.77 16.03 34.81 15.62 C38 16 38 16 40.88 18.12 C43.42 21.56 43.55 22.82 43 27 C41.15 29.55 41.15 29.55 38.58 32.04 C37.66 32.95 36.73 33.86 35.78 34.8 C34.79 35.74 33.8 36.68 32.81 37.62 C31.84 38.57 30.87 39.52 29.9 40.48 C25.74 44.53 21.59 48.42 17 52 C18.1 52 19.2 52.01 20.33 52.01 C24.42 52.03 28.5 52.09 32.59 52.15 C34.36 52.18 36.12 52.19 37.89 52.2 C40.43 52.2 42.97 52.25 45.52 52.29 C46.3 52.29 47.09 52.29 47.91 52.28 C51.79 52.38 53.62 52.65 56.53 55.32 C58 58 58 58 58 61.62 C57 65 57 65 55.45 66.68 C51.96 68.56 48.61 68.48 44.73 68.51 C44.34 68.52 44.34 68.52 42.33 68.57 C39.8 68.62 37.28 68.65 34.75 68.69 C33.03 68.72 31.32 68.76 29.6 68.79 C25.4 68.88 21.2 68.94 17 69 C18.25 70.26 19.5 71.53 20.76 72.79 C21.46 73.49 22.15 74.2 22.87 74.92 C24.82 76.82 26.81 78.61 28.88 80.38 C32.14 83.21 35.35 86.1 38.5 89.06 C39.36 89.86 40.21 90.65 41.09 91.47 C43 94 43 94 43.41 97.13 C43 100 43 100 40.88 102.88 C38 105 38 105 35.19 105.75 C27.5 103.94 21.83 95.87 16.47 90.44 C13.12 87.13 9.58 84.06 6 81 C5.67 80.67 5.34 80.34 5 80 C4.99 81.13 4.98 82.26 4.97 83.42 C4.93 87.62 4.87 91.82 4.79 96.02 C4.76 97.83 4.74 99.65 4.73 101.46 C4.71 104.07 4.66 106.69 4.61 109.3 C4.61 110.11 4.61 110.92 4.61 111.75 C4.51 115.38 4.34 117.55 2.11 120.49 C-0.41 122.29 -1.89 122.92 -5 123 C-8.49 121.38 -9.84 120.24 -12 117 C-12.24 114.25 -12.37 111.59 -12.41 108.83 C-12.43 108.04 -12.45 107.24 -12.47 106.42 C-12.53 103.89 -12.58 101.35 -12.62 98.81 C-12.66 97.09 -12.7 95.37 -12.74 93.65 C-12.84 89.43 -12.92 85.22 -13 81 C-15.69 83.52 -18.38 86.04 -21.06 88.56 C-21.81 89.27 -22.57 89.97 -23.34 90.7 C-27.51 94.61 -31.6 98.57 -35.59 102.67 C-37.9 104.85 -39.12 105.01 -42.38 105.31 C-46 105 -46 105 -48.44 103.44 C-50.59 100.08 -50.39 97.94 -50 94 C-48.24 91.43 -48.24 91.43 -45.8 89.08 C-44.92 88.22 -44.04 87.36 -43.13 86.47 C-42.2 85.59 -41.27 84.72 -40.31 83.81 C-39.4 82.92 -38.49 82.03 -37.55 81.12 C-34.21 77.89 -30.91 74.72 -27.26 71.84 C-25 70 -25 70 -24 68 C-25.1 68.02 -26.2 68.04 -27.33 68.06 C-31.42 68.14 -35.5 68.18 -39.59 68.22 C-41.36 68.24 -43.12 68.27 -44.89 68.3 C-47.43 68.35 -49.97 68.37 -52.52 68.39 C-52.91 68.4 -52.91 68.4 -54.91 68.45 C-58.47 68.45 -60.57 68.31 -63.5 66.19 C-65.7 62.98 -65.54 60.8 -65 57 C-63.5 54.82 -63.5 54.82 -61 53 C-58.05 52.58 -55.46 52.4 -52.52 52.39 C-51.7 52.37 -50.88 52.36 -50.04 52.34 C-47.45 52.29 -44.85 52.27 -42.25 52.25 C-40.49 52.22 -38.72 52.19 -36.96 52.16 C-32.64 52.09 -28.32 52.04 -24 52 C-24.27 51.77 -24.27 51.77 -25.63 50.59 C-26.34 49.97 -27.05 49.36 -27.78 48.72 C-28.48 48.11 -29.19 47.5 -29.91 46.87 C-31.84 45.14 -33.68 43.35 -35.5 41.5 C-38.59 38.35 -41.85 35.45 -45.2 32.58 C-45.8 32.06 -46.39 31.54 -47 31 C-47.56 30.52 -48.12 30.04 -48.7 29.54 C-50.65 27.23 -50.53 24.87 -50.41 21.95 C-50 20 -50 20 -47.94 17.44 C-45 16 -45 16 -41.75 15.69 C-36.98 17.36 -34.66 19.94 -31.26 23.6 C-29.24 25.74 -27.18 27.66 -24.94 29.56 C-22.08 32 -19.4 34.55 -16.75 37.21 C-16.05 37.93 -15.34 38.64 -14.61 39.37 C-14.08 39.91 -13.55 40.45 -13 41 C-12.99 39.94 -12.98 38.87 -12.97 37.77 C-12.93 33.81 -12.87 29.85 -12.79 25.89 C-12.76 24.18 -12.74 22.47 -12.73 20.76 C-12.71 18.29 -12.66 15.83 -12.61 13.36 C-12.61 12.6 -12.61 11.84 -12.61 11.06 C-12.47 6.1 -11.56 3.48 -8 0 C-5.03 -1.49 -3.17 -0.82 0 0 Z " fill="#F7974B" transform="translate(512,78)"/>
<path d="M0 0 C0.33 0.49 0.33 0.49 2 3 C3.32 3 4.64 3 6 3 C6 3.66 6 4.32 6 5 C6.62 5.12 7.24 5.25 7.88 5.38 C10 6 10 6 12 8 C12.99 7.67 13.98 7.34 15 7 C15.79 21.74 16.15 36.42 16.13 51.17 C16.13 53.3 16.13 55.43 16.13 57.56 C16.14 63.3 16.14 69.04 16.13 74.78 C16.13 79.66 16.13 84.54 16.14 89.42 C16.14 102.46 16.14 115.49 16.13 128.53 C16.13 137.31 16.12 146.08 16.12 154.86 C16.11 235.58 15.91 316.29 15 397 C13.68 396.34 12.36 395.68 11 395 C8 398.75 8 398.75 8 401 C8.66 401.33 9.32 401.66 10 402 C9.34 402.99 8.68 403.98 8 405 C8.16 405.5 8.16 405.5 9 408 C8.34 408 7.68 408 7 408 C7.33 409.32 7.66 410.64 8 412 C7.34 412 6.68 412 6 412 C6.21 412.85 6.41 413.69 6.62 414.56 C7.06 418.54 6.28 421.25 5 425 C4.01 425 3.02 425 2 425 C1.34 425.99 0.68 426.98 0 428 C0 286.76 0 145.52 0 0 Z M8 381 C7.34 381.66 6.68 382.32 6 383 C6.99 383 7.98 383 9 383 C8.67 382.34 8.34 381.68 8 381 Z M10 382 C10.66 383.32 11.32 384.64 12 386 C12 384.68 12 383.36 12 382 C11.34 382 10.68 382 10 382 Z " fill="#7BA0D8" transform="translate(166,48)"/>
<path d="M0 0 C1.32 0 2.64 0 4 0 C5.85 4.71 6.28 8.92 6.25 13.93 C6.25 14.71 6.26 15.49 6.26 16.3 C6.27 18.93 6.26 21.56 6.25 24.19 C6.26 26.1 6.26 28 6.26 29.9 C6.27 35.14 6.27 40.37 6.26 45.61 C6.26 51.25 6.26 56.9 6.27 62.54 C6.28 73.6 6.28 84.66 6.27 95.72 C6.27 104.71 6.27 113.7 6.27 122.69 C6.27 123.97 6.27 125.24 6.27 126.56 C6.27 129.16 6.27 131.76 6.27 134.35 C6.28 158.03 6.27 181.7 6.26 205.37 C6.25 226.98 6.25 248.58 6.26 270.19 C6.27 294.46 6.28 318.74 6.27 343.01 C6.27 345.6 6.27 348.19 6.27 350.78 C6.27 352.05 6.27 353.32 6.27 354.64 C6.26 363.61 6.27 372.59 6.27 381.57 C6.28 392.51 6.28 403.45 6.27 414.39 C6.26 419.98 6.26 425.56 6.27 431.14 C6.27 436.25 6.27 441.37 6.26 446.48 C6.26 448.33 6.26 450.17 6.26 452.02 C6.31 470.63 3.86 484.73 -9.55 498.78 C-13.67 502.51 -18.13 505.34 -23 508 C-23.75 508.41 -24.5 508.82 -25.28 509.25 C-37.13 515.1 -50.61 514.29 -63.48 514.26 C-65.46 514.26 -67.43 514.27 -69.4 514.27 C-74.79 514.28 -80.18 514.28 -85.57 514.28 C-91.4 514.27 -97.22 514.28 -103.05 514.29 C-114.45 514.3 -125.85 514.3 -137.25 514.3 C-146.51 514.3 -155.77 514.3 -165.04 514.31 C-165.7 514.31 -165.7 514.31 -169.04 514.31 C-171.05 514.31 -173.05 514.31 -175.06 514.31 C-193.72 514.32 -212.39 514.32 -231.05 514.32 C-231.75 514.32 -232.45 514.32 -233.18 514.32 C-236.74 514.32 -240.3 514.32 -243.86 514.32 C-244.57 514.32 -245.28 514.32 -246.01 514.32 C-247.44 514.32 -248.87 514.32 -250.3 514.32 C-272.57 514.31 -294.84 514.32 -317.11 514.34 C-342.15 514.36 -367.18 514.37 -392.22 514.36 C-405.47 514.36 -418.72 514.36 -431.97 514.38 C-443.25 514.39 -454.53 514.39 -465.8 514.38 C-471.56 514.37 -477.31 514.37 -483.06 514.38 C-488.33 514.4 -493.6 514.39 -498.86 514.38 C-500.77 514.38 -502.67 514.38 -504.58 514.39 C-522.87 514.46 -522.87 514.46 -531 511 C-530.67 510.01 -530.34 509.02 -530 508 C-529.45 508.14 -528.9 508.28 -528.33 508.43 C-522.95 509.73 -517.97 510.29 -512.44 510.25 C-512.03 510.26 -512.03 510.26 -509.97 510.26 C-507.25 510.27 -504.53 510.27 -501.81 510.26 C-499.83 510.26 -497.86 510.27 -495.88 510.27 C-490.46 510.28 -485.04 510.28 -479.62 510.28 C-473.77 510.27 -467.92 510.28 -462.07 510.29 C-450.62 510.3 -439.16 510.3 -427.71 510.3 C-418.4 510.3 -409.09 510.3 -399.78 510.31 C-398.44 510.31 -397.1 510.31 -395.76 510.31 C-393.75 510.31 -391.73 510.31 -389.71 510.31 C-370.97 510.32 -352.22 510.32 -333.47 510.32 C-333.12 510.32 -333.12 510.32 -331.33 510.32 C-327.75 510.32 -324.17 510.32 -320.59 510.32 C-320.23 510.32 -320.23 510.32 -318.43 510.32 C-316.99 510.32 -315.55 510.32 -314.12 510.32 C-291.74 510.31 -269.36 510.32 -246.99 510.34 C-221.84 510.36 -196.69 510.37 -171.54 510.36 C-168.85 510.36 -166.17 510.36 -163.49 510.36 C-162.17 510.36 -160.85 510.36 -159.49 510.36 C-150.19 510.36 -140.89 510.37 -131.6 510.38 C-120.26 510.39 -108.93 510.39 -97.6 510.38 C-91.82 510.37 -86.03 510.37 -80.25 510.38 C-74.96 510.4 -69.66 510.39 -64.37 510.38 C-62.46 510.38 -60.54 510.38 -58.63 510.39 C-40.34 510.46 -24.92 507.53 -11.18 494.34 C-1.51 483.96 3.17 471.33 3.13 457.24 C3.13 456.47 3.14 455.71 3.14 454.92 C3.14 452.35 3.14 449.78 3.14 447.21 C3.14 445.35 3.15 443.49 3.15 441.63 C3.16 436.51 3.16 431.4 3.16 426.28 C3.16 420.77 3.17 415.25 3.18 409.73 C3.19 397.67 3.2 385.61 3.2 373.55 C3.2 366.02 3.21 358.48 3.21 350.95 C3.22 330.09 3.23 309.24 3.24 288.38 C3.24 287.03 3.24 285.68 3.24 284.34 C3.24 282.98 3.24 281.63 3.24 280.28 C3.24 277.57 3.24 274.86 3.24 272.15 C3.24 271.47 3.24 270.8 3.24 270.11 C3.24 248.32 3.26 226.53 3.28 204.73 C3.31 181.68 3.32 158.63 3.32 135.58 C3.32 123.02 3.33 110.46 3.35 97.9 C3.36 87.2 3.37 76.51 3.36 65.81 C3.36 60.35 3.36 54.9 3.37 49.44 C3.38 44.44 3.38 39.44 3.37 34.44 C3.37 32.64 3.37 30.84 3.38 29.03 C3.43 18.88 2.89 9.81 0 0 Z " fill="#5178BA" transform="translate(606,76)"/>
<path d="M0 0 C0.99 0 1.98 0 3 0 C2.05 4.86 -0.38 9.1 -2.53 13.52 C-5.29 20.05 -6.3 26.02 -6.25 33.07 C-6.25 33.85 -6.25 34.62 -6.26 35.42 C-6.26 38.01 -6.26 40.6 -6.25 43.2 C-6.25 45.07 -6.25 46.95 -6.25 48.83 C-6.26 53.99 -6.25 59.15 -6.25 64.31 C-6.24 69.87 -6.25 75.44 -6.25 81 C-6.25 91.9 -6.25 102.8 -6.24 113.7 C-6.23 126.39 -6.23 139.08 -6.23 151.76 C-6.23 175.08 -6.22 198.4 -6.2 221.72 C-6.19 243.01 -6.18 264.3 -6.19 285.59 C-6.19 286.96 -6.19 288.32 -6.19 289.69 C-6.19 290.37 -6.19 291.04 -6.19 291.74 C-6.19 295.14 -6.19 298.55 -6.19 301.95 C-6.19 302.62 -6.19 303.29 -6.19 303.98 C-6.19 325.59 -6.18 347.19 -6.17 368.8 C-6.17 377.65 -6.17 386.5 -6.17 395.35 C-6.17 406.12 -6.16 416.9 -6.15 427.68 C-6.15 433.18 -6.14 438.69 -6.15 444.19 C-6.15 449.22 -6.14 454.25 -6.14 459.29 C-6.13 461.11 -6.13 462.93 -6.14 464.76 C-6.14 467.23 -6.13 469.7 -6.13 472.18 C-6.13 472.89 -6.13 473.6 -6.13 474.34 C-6.12 478.33 -5.77 482.08 -5 486 C-5.99 486.33 -6.98 486.66 -8 487 C-9.83 482.32 -10.29 478.14 -10.25 473.18 C-10.26 472.4 -10.26 471.63 -10.26 470.83 C-10.27 468.24 -10.27 465.65 -10.26 463.05 C-10.26 461.18 -10.27 459.3 -10.27 457.42 C-10.28 452.26 -10.28 447.1 -10.28 441.94 C-10.27 436.38 -10.28 430.81 -10.29 425.25 C-10.3 414.34 -10.3 403.44 -10.3 392.54 C-10.3 383.67 -10.3 374.81 -10.31 365.94 C-10.31 364.68 -10.31 363.42 -10.31 362.12 C-10.31 359.56 -10.31 357 -10.31 354.44 C-10.32 337.23 -10.32 320.02 -10.32 302.82 C-10.32 302.14 -10.32 301.47 -10.32 300.78 C-10.32 297.37 -10.32 293.95 -10.32 290.54 C-10.32 289.87 -10.32 289.19 -10.32 288.49 C-10.32 287.12 -10.32 285.75 -10.32 284.38 C-10.31 263.08 -10.32 241.78 -10.34 220.48 C-10.36 196.54 -10.37 172.6 -10.36 148.66 C-10.36 135.99 -10.36 123.31 -10.38 110.64 C-10.39 99.85 -10.39 89.06 -10.38 78.27 C-10.37 72.76 -10.37 67.26 -10.38 61.75 C-10.4 56.71 -10.39 51.66 -10.38 46.62 C-10.38 44.8 -10.38 42.98 -10.39 41.16 C-10.44 28.66 -10.21 16.19 -3.5 5.19 C-2.91 4.19 -2.32 3.19 -1.72 2.17 C-1.15 1.45 -0.58 0.74 0 0 Z " fill="#4C78C1" transform="translate(47,63)"/>
<path d="M0 0 C0.33 0 0.66 0 1 0 C1.05 53.42 1.08 106.84 1.1 160.26 C1.1 166.56 1.11 172.87 1.11 179.17 C1.11 180.42 1.11 181.68 1.11 182.97 C1.12 203.3 1.14 223.64 1.15 243.97 C1.17 264.83 1.18 285.68 1.19 306.54 C1.19 319.41 1.2 332.29 1.22 345.16 C1.23 353.98 1.23 362.8 1.23 371.62 C1.23 376.72 1.23 381.81 1.24 386.91 C1.25 391.57 1.25 396.23 1.24 400.89 C1.24 402.58 1.24 404.27 1.25 405.95 C1.26 408.24 1.25 410.54 1.25 412.83 C1.25 414.1 1.25 415.37 1.25 416.69 C1.01 419.89 0.38 422.12 -1 425 C-1.33 425 -1.66 425 -2 425 C-2.05 371.29 -2.08 317.58 -2.1 263.87 C-2.1 257.54 -2.11 251.2 -2.11 244.87 C-2.11 243.61 -2.11 242.34 -2.11 241.04 C-2.12 220.6 -2.14 200.15 -2.15 179.71 C-2.17 158.74 -2.18 137.78 -2.19 116.81 C-2.19 103.87 -2.2 90.92 -2.22 77.98 C-2.23 69.11 -2.23 60.24 -2.23 51.38 C-2.23 46.25 -2.23 41.13 -2.24 36.01 C-2.25 31.33 -2.25 26.64 -2.24 21.96 C-2.24 20.26 -2.24 18.56 -2.25 16.86 C-2.26 14.56 -2.25 12.26 -2.25 9.96 C-2.25 8.68 -2.25 7.4 -2.25 6.08 C-2 3 -2 3 0 0 Z " fill="#164090" transform="translate(647,97)"/>
<path d="M0 0 C0.41 -0 0.41 -0 2.46 -0.01 C5.18 -0.01 7.91 -0.01 10.63 -0.01 C12.6 -0.01 14.57 -0.01 16.54 -0.01 C21.96 -0.02 27.38 -0.02 32.8 -0.02 C38.64 -0.02 44.49 -0.02 50.33 -0.03 C61.77 -0.04 73.22 -0.04 84.67 -0.04 C93.97 -0.04 103.26 -0.04 112.56 -0.04 C115.24 -0.05 117.92 -0.05 120.59 -0.05 C121.26 -0.05 121.92 -0.05 122.61 -0.05 C141.32 -0.05 160.03 -0.06 178.74 -0.06 C179.09 -0.06 179.09 -0.06 180.87 -0.06 C184.45 -0.06 188.02 -0.06 191.6 -0.06 C192.31 -0.06 193.02 -0.06 193.75 -0.06 C195.19 -0.06 196.62 -0.06 198.06 -0.06 C220.42 -0.06 242.77 -0.06 265.13 -0.08 C290.24 -0.09 315.34 -0.1 340.45 -0.1 C353.75 -0.1 367.05 -0.1 380.35 -0.11 C391.67 -0.12 402.98 -0.12 414.3 -0.12 C420.08 -0.11 425.86 -0.11 431.64 -0.12 C436.92 -0.13 442.2 -0.13 447.48 -0.12 C449.4 -0.12 451.32 -0.12 453.24 -0.13 C455.83 -0.13 458.42 -0.13 461.02 -0.12 C461.77 -0.13 462.53 -0.13 463.31 -0.14 C467.03 -0.11 468.64 0.01 471.82 2.13 C470.82 3.13 470.82 3.13 468.2 3.25 C467.02 3.25 465.84 3.25 464.62 3.25 C463.97 3.25 463.31 3.25 462.63 3.25 C460.4 3.25 458.17 3.25 455.93 3.24 C454.33 3.24 452.72 3.24 451.12 3.24 C446.69 3.24 442.25 3.24 437.82 3.23 C433.05 3.22 428.28 3.22 423.5 3.22 C415.23 3.22 406.95 3.21 398.67 3.2 C386.7 3.19 374.72 3.19 362.75 3.18 C343.32 3.17 323.88 3.16 304.45 3.15 C303.28 3.15 302.12 3.15 300.92 3.15 C291.48 3.14 282.03 3.13 272.59 3.13 C264.34 3.12 256.09 3.11 247.84 3.11 C247.26 3.11 247.26 3.11 244.33 3.11 C224.97 3.09 205.62 3.08 186.27 3.08 C174.32 3.07 162.38 3.06 150.43 3.05 C142.25 3.04 134.06 3.04 125.88 3.03 C121.15 3.03 116.42 3.03 111.7 3.02 C107.37 3.02 103.05 3.01 98.72 3.02 C97.16 3.02 95.59 3.01 94.03 3.01 C91.9 3 89.77 3.01 87.65 3.01 C86.46 3.01 85.28 3.01 84.07 3.01 C80.14 3.15 76.37 3.35 72.82 5.13 C72.82 4.14 72.82 3.15 72.82 2.13 C63.06 2.17 53.29 2.23 43.53 2.31 C39 2.35 34.46 2.38 29.93 2.4 C25.54 2.41 21.15 2.45 16.76 2.5 C15.1 2.51 13.43 2.52 11.77 2.52 C-6.79 2.54 -23.67 5.46 -37.43 19.07 C-38.69 20.41 -39.95 21.76 -41.18 23.13 C-41.51 21.81 -41.84 20.49 -42.18 19.13 C-41.52 19.13 -40.86 19.13 -40.18 19.13 C-40.18 18.47 -40.18 17.81 -40.18 17.13 C-39.52 17.13 -38.86 17.13 -38.18 17.13 C-38.1 16.54 -38.02 15.95 -37.95 15.34 C-36.34 10.71 -31.24 8.47 -27.18 6.13 C-18.06 1.96 -10.01 -0.03 0 0 Z " fill="#3C65AD" transform="translate(93.17939281463623,39.871365547180176)"/>
<path d="M0 0 C0.6 -0.01 0.6 -0.01 3.66 -0.04 C4.31 -0.04 4.31 -0.04 7.6 -0.03 C8.96 -0.03 10.31 -0.04 11.66 -0.05 C14.49 -0.05 17.32 -0.05 20.15 -0.04 C23.78 -0.03 27.4 -0.05 31.03 -0.08 C33.82 -0.1 36.61 -0.1 39.4 -0.09 C41.39 -0.09 43.37 -0.11 45.36 -0.13 C46.57 -0.12 47.77 -0.11 49.02 -0.1 C49.55 -0.1 49.55 -0.1 52.24 -0.1 C55.7 0.53 56.85 1.69 59.01 4.4 C60.39 7.89 60.12 9.13 58.7 12.65 C57.01 15.4 57.01 15.4 55.01 16.4 C53.1 16.52 51.18 16.57 49.26 16.6 C48.06 16.61 46.85 16.63 45.61 16.65 C40.1 16.69 34.58 16.73 29.07 16.75 C26.16 16.77 23.25 16.8 20.34 16.84 C16.82 16.89 13.31 16.91 9.79 16.92 C7.8 16.93 5.81 16.96 3.83 17 C-6.22 16.97 -6.22 16.97 -9.32 14 C-11.03 11.33 -11.59 10.35 -11.05 7.28 C-10.96 6.62 -10.87 5.95 -10.78 5.27 C-8.74 0.43 -4.78 0.02 0 0 Z " fill="#03C4B3" transform="translate(78.990234375,170.595947265625)"/>
<path d="M0 0 C1.29 -0 2.58 -0.01 3.91 -0.01 C6.64 -0.02 9.36 -0.01 12.09 0.01 C15.58 0.04 19.06 0.02 22.55 -0.01 C25.89 -0.03 29.23 -0.01 32.56 0 C33.81 -0.01 35.06 -0.02 36.35 -0.03 C45.97 0.1 45.97 0.1 49.07 3.01 C51.17 6.27 51.51 7.86 50.78 11.66 C48.91 13.97 47.42 15.34 44.78 16.66 C42.99 16.77 41.2 16.81 39.4 16.83 C38.28 16.83 37.15 16.84 35.99 16.85 C35.38 16.86 35.38 16.86 32.29 16.87 C31.67 16.87 31.67 16.87 28.5 16.88 C25.85 16.89 23.2 16.9 20.55 16.9 C17.16 16.91 13.77 16.93 10.38 16.96 C7.15 16.99 3.91 16.99 0.67 16.99 C-0.55 17 -1.76 17.02 -3.01 17.03 C-4.15 17.03 -5.28 17.02 -6.45 17.02 C-7.45 17.02 -8.44 17.03 -9.47 17.03 C-12.7 16.6 -14.59 15.57 -17.22 13.66 C-18.1 11.8 -18.1 11.8 -18.34 9.79 C-18.4 9.46 -18.4 9.46 -18.66 7.8 C-18.12 5.18 -17.06 3.59 -15.13 1.75 C-10.66 -0.78 -4.99 -0.04 0 0 Z " fill="#7BA0D8" transform="translate(87.21875,120.3359375)"/>
<path d="M0 0 C1.12 -0.01 2.25 -0.02 3.41 -0.03 C4.02 -0.03 4.02 -0.03 7.11 -0.04 C7.73 -0.04 7.73 -0.04 10.9 -0.06 C13.55 -0.07 16.2 -0.08 18.85 -0.08 C22.24 -0.08 25.63 -0.11 29.02 -0.14 C32.26 -0.16 35.49 -0.16 38.73 -0.17 C39.95 -0.18 41.16 -0.19 42.41 -0.2 C43.55 -0.2 44.68 -0.2 45.85 -0.2 C46.85 -0.2 47.84 -0.2 48.87 -0.21 C52.11 0.23 53.99 1.25 56.62 3.16 C58.06 6.05 58 7.96 57.62 11.16 C55.97 13.75 55.24 14.73 52.62 16.16 C48.22 16.92 43.86 16.86 39.4 16.83 C38.76 16.83 38.76 16.83 35.49 16.84 C32.76 16.85 30.04 16.84 27.31 16.81 C23.82 16.78 20.34 16.8 16.85 16.83 C13.51 16.85 10.18 16.84 6.84 16.83 C5.59 16.84 4.34 16.85 3.05 16.86 C-6.57 16.73 -6.57 16.73 -9.71 13.85 C-11.38 11.16 -11.38 11.16 -11.38 7.54 C-10.43 4.35 -10.02 3.06 -7.38 1.16 C-4.79 -0.13 -2.9 0.02 0 0 Z " fill="#7BA0D8" transform="translate(80.380126953125,220.8388671875)"/>
<path d="M0 0 C1.32 0 2.64 0 4 0 C5.85 4.71 6.28 8.93 6.25 13.93 C6.25 14.72 6.26 15.5 6.26 16.31 C6.27 18.95 6.26 21.58 6.25 24.21 C6.26 26.12 6.26 28.03 6.26 29.93 C6.27 35.17 6.27 40.41 6.26 45.65 C6.26 51.3 6.26 56.95 6.27 62.6 C6.28 73.67 6.28 84.75 6.27 95.82 C6.27 104.81 6.27 113.81 6.27 122.8 C6.27 123.44 6.27 123.44 6.27 126.68 C6.27 129.28 6.27 131.88 6.27 134.48 C6.28 158.17 6.27 181.85 6.26 205.54 C6.25 227.17 6.25 248.79 6.26 270.41 C6.27 294.71 6.28 319 6.27 343.29 C6.27 345.88 6.27 348.47 6.27 351.06 C6.27 352.34 6.27 353.61 6.27 354.92 C6.26 363.91 6.27 372.9 6.27 381.88 C6.28 392.83 6.28 403.78 6.27 414.73 C6.26 420.32 6.26 425.91 6.27 431.5 C6.27 436.61 6.27 441.73 6.26 446.84 C6.26 448.69 6.26 450.54 6.26 452.4 C6.27 454.91 6.26 457.43 6.25 459.94 C6.26 460.66 6.26 461.38 6.27 462.13 C6.23 466.81 5.45 470.6 4 475 C3.01 474.67 2.02 474.34 1 474 C1.32 472.89 1.65 471.78 1.98 470.63 C3.7 462.84 3.28 454.79 3.26 446.85 C3.26 444.98 3.27 443.12 3.27 441.26 C3.28 436.15 3.28 431.04 3.28 425.93 C3.27 420.42 3.28 414.91 3.29 409.39 C3.3 398.59 3.3 387.8 3.3 377 C3.3 368.22 3.3 359.44 3.31 350.67 C3.31 349.42 3.31 348.17 3.31 346.88 C3.31 344.34 3.31 341.8 3.31 339.26 C3.32 322.22 3.32 305.18 3.32 288.13 C3.32 287.47 3.32 286.8 3.32 286.12 C3.32 282.74 3.32 279.36 3.32 275.99 C3.32 275.31 3.32 274.64 3.32 273.95 C3.32 272.6 3.32 271.24 3.32 269.89 C3.31 248.79 3.32 227.7 3.34 206.6 C3.36 182.89 3.37 159.17 3.36 135.46 C3.36 122.91 3.36 110.36 3.38 97.81 C3.39 87.12 3.39 76.44 3.38 65.75 C3.37 60.3 3.37 54.85 3.38 49.4 C3.4 44.41 3.39 39.41 3.38 34.42 C3.38 32.62 3.38 30.82 3.39 29.02 C3.43 18.87 2.88 9.8 0 0 Z " fill="#6189CC" transform="translate(606,76)"/>
<path d="M0 0 C151.8 0 303.6 0 460 0 C460 0.33 460 0.66 460 1 C451.19 2.24 442.37 2.23 433.48 2.31 C431.69 2.33 429.89 2.35 428.1 2.37 C423.17 2.43 418.25 2.48 413.32 2.52 C410.17 2.55 407.01 2.59 403.86 2.62 C350.89 3.14 297.91 3.15 244.94 3.13 C234.86 3.12 224.79 3.13 214.71 3.13 C112.07 3.18 112.07 3.18 64.32 2.55 C63.55 2.54 62.77 2.54 61.98 2.52 C41.31 2.26 20.66 1.74 0 1 C0 0.67 0 0.34 0 0 Z " fill="#4F72B5" transform="translate(94,0)"/>
<path d="M0 0 C0.33 0 0.66 0 1 0 C2.99 11.12 3.28 21.85 3.24 33.11 C3.24 35.01 3.24 36.92 3.25 38.83 C3.25 44.03 3.24 49.23 3.23 54.43 C3.22 60.05 3.23 65.67 3.23 71.3 C3.23 81.03 3.22 90.76 3.21 100.49 C3.2 114.55 3.19 128.62 3.19 142.69 C3.18 165.51 3.17 188.34 3.15 211.16 C3.13 233.33 3.12 255.5 3.11 277.66 C3.11 278.35 3.11 279.03 3.11 279.74 C3.11 286.6 3.1 293.47 3.1 300.34 C3.08 357.89 3.05 415.45 3 473 C2.67 473 2.34 473 2 473 C2 472.04 2 471.09 2 470.1 C1.92 413.43 1.82 356.75 1.72 300.08 C1.71 293.28 1.69 286.48 1.68 279.68 C1.68 279.34 1.68 279.34 1.68 277.63 C1.64 255.68 1.61 233.74 1.58 211.8 C1.54 188.61 1.5 165.43 1.46 142.25 C1.43 128.36 1.41 114.46 1.39 100.57 C1.38 91.05 1.36 81.54 1.34 72.02 C1.33 66.52 1.32 61.02 1.32 55.53 C1.31 50.5 1.3 45.47 1.29 40.45 C1.28 38.62 1.28 36.8 1.28 34.98 C1.28 32.51 1.27 30.04 1.26 27.57 C1.26 27.21 1.26 27.21 1.27 25.4 C1.24 21.7 0.85 19.2 -1 16 C-1.32 10.64 -1.32 10.64 0 8 C0.07 6.63 0.08 5.25 0.06 3.88 C0.04 2.6 0.02 1.32 0 0 Z " fill="#365BA0" transform="translate(646,78)"/>
<path d="M0 0 C0.79 0.01 1.58 0.02 2.4 0.03 C4.99 0.06 7.59 0.1 10.19 0.14 C12 0.17 13.8 0.19 15.61 0.21 C20.35 0.28 25.1 0.35 29.84 0.42 C34.69 0.49 39.54 0.55 44.38 0.62 C53.88 0.75 63.38 0.88 72.88 1.02 C72.88 1.35 72.88 1.68 72.88 2.02 C71.95 2.03 71.03 2.03 70.07 2.03 C61.24 2.07 52.42 2.13 43.59 2.21 C39.06 2.24 34.52 2.28 29.99 2.29 C25.6 2.31 21.21 2.34 16.82 2.39 C15.16 2.4 13.5 2.41 11.84 2.41 C-6.73 2.43 -23.61 5.35 -37.37 18.96 C-38.63 20.3 -39.89 21.65 -41.12 23.02 C-41.45 21.7 -41.78 20.38 -42.12 19.02 C-41.46 19.02 -40.8 19.02 -40.12 19.02 C-40.12 18.36 -40.12 17.7 -40.12 17.02 C-39.46 17.02 -38.8 17.02 -38.12 17.02 C-38.04 16.43 -37.96 15.84 -37.88 15.24 C-36.28 10.61 -31.17 8.36 -27.12 6.02 C-18.01 1.86 -10.01 -0.18 0 0 Z " fill="#3A5C9C" transform="translate(93.11669921875,39.978271484375)"/>
<path d="M0 0 C0.33 0 0.66 0 1 0 C3.78 13.61 3.25 27.36 3.2 41.18 C3.19 43.81 3.19 46.43 3.19 49.06 C3.18 55.23 3.16 61.39 3.14 67.56 C3.12 74.6 3.11 81.63 3.1 88.66 C3.08 103.11 3.04 117.55 3 132 C2.67 132 2.34 132 2 132 C2 131.43 1.99 130.85 1.99 130.26 C1.91 116.31 1.82 102.35 1.71 88.4 C1.66 81.65 1.62 74.9 1.58 68.15 C1.54 61.64 1.49 55.13 1.44 48.62 C1.42 46.14 1.41 43.65 1.4 41.16 C1.38 37.69 1.35 34.21 1.32 30.74 C1.32 29.7 1.31 28.67 1.31 27.61 C1.3 26.66 1.29 25.71 1.28 24.73 C1.27 23.91 1.27 23.09 1.26 22.24 C0.97 19.77 0.15 18.19 -1 16 C-1.32 10.64 -1.32 10.64 0 8 C0.07 6.63 0.08 5.25 0.06 3.88 C0.04 2.6 0.02 1.32 0 0 Z " fill="#365DA1" transform="translate(646,78)"/>
<path d="M0 0 C3.08 1.54 3.8 4.56 5.19 7.56 C11.13 19.82 20.07 28.22 33 33 C33 33.99 33 34.98 33 36 C22.66 34.4 13.4 26.45 6.99 18.51 C-1.38 6.95 -1.38 6.95 -0.69 1.56 C-0.46 1.05 -0.23 0.53 0 0 Z " fill="#3C66B1" transform="translate(41,550)"/>
<path d="M0 0 C0.33 0.66 0.66 1.32 1 2 C1.99 2 2.98 2 4 2 C3.65 9.24 2.94 15.34 0 22 C-0.33 21.34 -0.66 20.68 -1 20 C-1.66 20 -2.32 20 -3 20 C-3.66 19.01 -4.32 18.02 -5 17 C-8 18 -8 18 -9.19 20.06 C-9.46 20.7 -9.72 21.34 -10 22 C-10.33 21.01 -10.66 20.02 -11 19 C-10.34 19 -9.68 19 -9 19 C-9 18.34 -9 17.68 -9 17 C-8.77 16.79 -8.77 16.79 -7.63 15.72 C-5.52 13.5 -4.9 11.39 -3.94 8.5 C-2.85 5.24 -1.92 2.89 0 0 Z " fill="#214389" transform="translate(641,564)"/>
<path d="M0 0 C0.33 1.32 0.66 2.64 1 4 C1.66 4 2.32 4 3 4 C4.13 6.56 5.25 9.12 6.38 11.69 C6.69 12.41 7.01 13.13 7.34 13.87 C8.95 17.56 10.54 21.25 12 25 C10.68 24.67 9.36 24.34 8 24 C7.88 28.75 7.88 28.75 9 31 C8.34 31.66 7.68 32.32 7 33 C1.46 20.21 1.46 20.21 1.96 12.93 C2.02 10.06 0.97 7.67 0 5 C-0.12 2.12 -0.12 2.12 0 0 Z " fill="#173A82" transform="translate(3,556)"/>
<path d="M0 0 C7.75 -0.09 15.51 -0.16 23.26 -0.21 C26.86 -0.23 30.46 -0.26 34.06 -0.3 C37.54 -0.35 41.01 -0.37 44.49 -0.38 C46.46 -0.39 48.43 -0.42 50.4 -0.45 C51 -0.45 51 -0.45 54.04 -0.45 C55.1 -0.46 56.15 -0.47 57.24 -0.48 C60.7 0.12 61.85 1.27 64 4 C65.06 7.35 65.13 8.62 64 12 C63.34 12 62.68 12 62 12 C61.34 12.66 60.68 13.32 60 14 C59.34 13.67 58.68 13.34 58 13 C57.55 10.75 57.55 10.75 57.31 8 C57.23 7.09 57.14 6.19 57.05 5.25 C57.03 4.51 57.02 3.76 57 3 C57.33 2.67 57.66 2.34 58 2 C38.86 1.67 19.72 1.34 0 1 C0 0.67 0 0.34 0 0 Z " fill="#0E928A" transform="translate(74,171)"/>
<path d="M0 0 C-3.15 1.65 -6.37 2.92 -9.69 4.19 C-15.64 6.65 -20.17 9.8 -25 14 C-25.7 14.59 -26.39 15.18 -27.11 15.78 C-28.75 17.17 -30.38 18.58 -32 20 C-32 18.68 -32 17.36 -32 16 C-31.34 16 -30.68 16 -30 16 C-30 15.34 -30 14.68 -30 14 C-29.34 14 -28.68 14 -28 14 C-27.93 13.41 -27.86 12.83 -27.79 12.22 C-25.91 6.92 -18.37 3.51 -13.5 1.06 C-8.92 -0.33 -4.74 -0.26 0 0 Z " fill="#3E65AE" transform="translate(83,43)"/>
<path d="M0 0 C0.66 0.33 1.32 0.66 2 1 C0.61 5.04 -1.34 7.69 -4 11 C-7.7 16.47 -11.24 22 -14 28 C-14.99 28 -15.98 28 -17 28 C-15.62 23.38 -13.71 19.29 -11.31 15.12 C-11.14 14.82 -11.14 14.82 -10.26 13.28 C-7.36 8.35 -4.03 4.06 0 0 Z " fill="#375DA7" transform="translate(26,32)"/>
<path d="M0 0 C0.66 0 1.32 0 2 0 C1.44 3.55 0.34 4.9 -2.44 7.12 C-6.87 10.81 -10.87 14.84 -14.9 18.96 C-17.8 21.78 -18.48 21.99 -22.62 22.06 C-23.74 22.04 -24.85 22.02 -26 22 C-26 21.67 -26 21.34 -26 21 C-24.02 21 -22.04 21 -20 21 C-20 20.01 -20 19.02 -20 18 C-20.66 17.67 -21.32 17.34 -22 17 C-21.24 16.9 -20.47 16.79 -19.69 16.69 C-16.74 15.93 -15.83 15.36 -14 13 C-12.81 10.81 -12.81 10.81 -12 9 C-11.01 9.33 -10.02 9.66 -9 10 C-9 9.34 -9 8.68 -9 8 C-8.34 8 -7.68 8 -7 8 C-7 7.34 -7 6.68 -7 6 C-6.01 6 -5.02 6 -4 6 C-4 5.01 -4 4.02 -4 3 C-3.01 3 -2.02 3 -1 3 C-0.67 2.01 -0.34 1.02 0 0 Z " fill="#D67F42" transform="translate(492,161)"/>
<path d="M0 0 C0 0.66 0 1.32 0 2 C-1.5 3.24 -3.01 4.48 -4.53 5.69 C-6.29 7.26 -7.19 8.8 -8 11 C-8.66 11 -9.32 11 -10 11 C-10.29 11.58 -10.58 12.16 -10.88 12.75 C-11.25 13.49 -11.62 14.24 -12 15 C-12.27 15.66 -12.54 16.32 -12.81 17 C-14.4 19.68 -16.52 21.17 -19 23 C-19 22.34 -19 21.68 -19 21 C-19.66 21 -20.32 21 -21 21 C-21 22.65 -21 24.3 -21 26 C-20.01 26.33 -19.02 26.66 -18 27 C-18 27.99 -18 28.98 -18 30 C-18.99 29.67 -19.98 29.34 -21 29 C-22.56 25.89 -22.31 23.43 -22 20 C-20.2 17.37 -20.2 17.37 -17.7 14.94 C-17.25 14.5 -17.25 14.5 -14.99 12.28 C-14.04 11.38 -13.1 10.48 -12.12 9.56 C-11.19 8.64 -10.25 7.72 -9.29 6.77 C-2.32 0 -2.32 0 0 0 Z " fill="#C97B46" transform="translate(484,152)"/>
<path d="M0 0 C0.66 0 1.32 0 2 0 C2.02 1.2 2.04 2.4 2.06 3.64 C2.14 8.09 2.22 12.53 2.32 16.98 C2.36 18.91 2.39 20.83 2.42 22.76 C2.47 25.52 2.53 28.29 2.59 31.05 C2.59 31.49 2.59 31.49 2.62 33.67 C2.77 39.77 2.77 39.77 5 42 C4.5 42.16 4.5 42.16 2 43 C-0.56 39.16 -0.37 35.92 -0.45 31.46 C-0.47 30.63 -0.49 29.8 -0.52 28.94 C-0.56 27.17 -0.6 25.41 -0.63 23.65 C-0.69 20.94 -0.76 18.24 -0.83 15.54 C-0.87 13.83 -0.91 12.11 -0.95 10.4 C-0.97 9.59 -0.99 8.78 -1.01 7.94 C-1.12 2.23 -1.12 2.23 0 0 Z " fill="#AE6C48" transform="translate(500,155)"/>
<path d="M0 0 C0.66 0.99 1.32 1.98 2 3 C1.67 3.99 1.34 4.98 1 6 C-1.7 7.35 -3.8 7.12 -6.83 7.11 C-8.05 7.11 -9.27 7.11 -10.53 7.11 C-11.86 7.11 -13.2 7.1 -14.54 7.1 C-15.9 7.1 -17.27 7.09 -18.63 7.09 C-22.23 7.09 -25.82 7.08 -29.41 7.07 C-33.08 7.06 -36.75 7.05 -40.41 7.05 C-47.61 7.04 -54.8 7.02 -62 7 C-62 6.67 -62 6.34 -62 6 C-61.35 5.99 -60.71 5.98 -60.04 5.97 C-53.29 5.86 -46.54 5.75 -39.8 5.63 C-37.28 5.58 -34.76 5.54 -32.25 5.5 C-28.62 5.44 -25 5.38 -21.38 5.32 C-20.26 5.3 -19.14 5.28 -17.99 5.27 C-12.25 5.16 -6.68 4.85 -1 4 C-0.67 2.68 -0.34 1.36 0 0 Z " fill="#09B2A7" transform="translate(135,180)"/>
<path d="M0 0 C0.66 0 1.32 0 2 0 C2.33 1.65 2.66 3.3 3 5 C2.34 4.67 1.68 4.34 1 4 C0.99 5.13 0.98 6.26 0.97 7.42 C0.93 11.62 0.87 15.82 0.79 20.02 C0.76 21.83 0.74 23.65 0.73 25.46 C0.71 28.07 0.66 30.69 0.61 33.3 C0.61 33.7 0.61 33.7 0.61 35.75 C0.51 39.38 0.34 41.55 -1.88 44.49 C-4.34 46.24 -5.98 46.85 -9 47 C-9.99 46.34 -10.98 45.68 -12 45 C-11.01 44.84 -11.01 44.84 -6 44 C-6.66 43.67 -7.32 43.34 -8 43 C-8 42.34 -8 41.68 -8 41 C-7.22 41.02 -6.43 41.04 -5.62 41.06 C-3 41 -3 41 -1 40 C-1.01 38.82 -1.01 37.65 -1.02 36.44 C-1.03 32.09 -1.05 27.74 -1.05 23.39 C-1.06 21.51 -1.07 19.62 -1.08 17.74 C-1.09 15.03 -1.09 12.33 -1.1 9.63 C-1.1 8.78 -1.11 7.93 -1.11 7.06 C-1.11 5.04 -1.06 3.02 -1 1 C-0.67 0.67 -0.34 0.34 0 0 Z " fill="#C17349" transform="translate(516,154)"/>
<path d="M0 0 C0.33 0 0.66 0 1 0 C1 5.94 1 11.88 1 18 C1.66 18 2.32 18 3 18 C2.84 18.85 2.68 19.7 2.51 20.58 C2 24.02 1.87 27.27 1.88 30.75 C1.87 31.88 1.87 33.01 1.87 34.17 C2 37 2 37 3 39 C3.99 39.33 4.98 39.66 6 40 C6 40.66 6 41.32 6 42 C6.99 42.33 7.98 42.66 9 43 C9 43.33 9 43.66 9 44 C6.36 44 3.72 44 1 44 C1 43.01 1 42.02 1 41 C0.67 41 0.34 41 0 41 C0 27.47 0 13.94 0 0 Z " fill="#FD9A46" transform="translate(502,155)"/>
<path d="M0 0 C1.13 0.96 2.25 1.92 3.38 2.88 C4 3.41 4.63 3.94 5.27 4.49 C8.95 7.71 8.95 7.71 9.44 10.81 C9 14 9 14 6.88 16.88 C3.57 19.32 2.02 19.47 -2 19 C-2 18.67 -2 18.34 -2 18 C-0.35 18 1.3 18 3 18 C3.06 17.36 3.12 16.72 3.18 16.07 C3.27 15.24 3.35 14.41 3.44 13.56 C3.52 12.74 3.6 11.92 3.68 11.07 C4 9 4 9 5 8 C2.74 5.66 0.72 3.81 -2 2 C-1.34 1.34 -0.68 0.68 0 0 Z " fill="#CC753C" transform="translate(546,164)"/>
<path d="M0 0 C8.64 -0.63 14.8 2.36 22 7 C21.67 7.16 21.67 7.16 20 8 C19.67 8.66 19.34 9.32 19 10 C18.01 9.4 17.02 8.8 16 8.19 C10.94 5.29 5.67 3.34 0 2 C0 1.34 0 0.68 0 0 Z " fill="#3B64AD" transform="translate(566,42)"/>
<path d="M0 0 C1.32 0 2.64 0 4 0 C6.41 5.63 6.23 10.87 6.12 16.88 C6.12 17.85 6.11 18.82 6.1 19.83 C6.07 22.22 6.04 24.61 6 27 C5.67 27 5.34 27 5 27 C4.89 26.14 4.78 25.28 4.67 24.39 C3.56 16.12 2.02 8.1 0 0 Z " fill="#476FB8" transform="translate(606,76)"/>
<path d="M0 0 C4.07 3.69 6.5 7.26 8.88 12.19 C9.19 12.82 9.51 13.44 9.84 14.09 C10.63 15.7 11.32 17.35 12 19 C11.67 19.66 11.34 20.32 11 21 C10.01 20.67 9.02 20.34 8 20 C7.23 18.18 7.23 18.18 6.62 15.88 C5.61 12.48 4.48 10 2.31 7.19 C0 4 0 4 0 0 Z " fill="#4666AC" transform="translate(629,40)"/>
<path d="M0 0 C0.33 0 0.66 0 1 0 C2.85 10.45 3.23 20.42 3 31 C2.67 31 2.34 31 2 31 C1.95 30.25 1.9 29.5 1.85 28.73 C1.81 28.24 1.81 28.24 1.62 25.75 C1.56 24.78 1.49 23.8 1.41 22.8 C1.01 20.07 0.27 18.4 -1 16 C-1.32 10.64 -1.32 10.64 0 8 C0.07 6.63 0.08 5.25 0.06 3.88 C0.04 2.6 0.02 1.32 0 0 Z " fill="#5272B0" transform="translate(646,78)"/>
<path d="M0 0 C5.21 1.36 8.29 3.2 12 7 C12.38 9.81 12.38 9.81 12 12 C11.55 11.61 11.11 11.23 10.64 10.83 C10.04 10.31 9.44 9.79 8.81 9.25 C8.18 8.7 7.54 8.16 6.89 7.59 C5.32 6.27 3.7 5 2.06 3.75 C1.38 3.17 0.7 2.59 0 2 C0 1.34 0 0.68 0 0 Z " fill="#426BB4" transform="translate(587,51)"/>
<path d="M0 0 C0.99 0 1.98 0 3 0 C4.34 2.67 3.95 4.47 3.69 7.44 C3.61 8.41 3.53 9.37 3.45 10.37 C3 13 3 13 1 16 C1.33 13.36 1.66 10.72 2 8 C1.01 8 0.02 8 -1 8 C-0.67 5.36 -0.34 2.72 0 0 Z " fill="#375796" transform="translate(643,558)"/>
<path d="M0 0 C1.16 0.66 1.16 0.66 7 4 C6.67 4.99 6.34 5.98 6 7 C6.66 7 7.32 7 8 7 C9.63 9 9.63 9 11 11 C10.01 11.33 9.02 11.66 8 12 C4.7 8.7 1.4 5.4 -2 2 C-1.34 1.34 -0.68 0.68 0 0 Z " fill="#234385" transform="translate(24,607)"/>
<path d="M0 0 C0.66 0.33 1.32 0.66 2 1 C0.63 4.99 -1.15 7.88 -4 11 C-4.66 11 -5.32 11 -6 11 C-6 11.66 -6 12.32 -6 13 C-6.99 13 -7.98 13 -9 13 C-7.48 7.6 -3.73 4.02 0 0 Z " fill="#496AAE" transform="translate(26,32)"/>
<path d="M0 0 C0.66 0 1.32 0 2 0 C2 6.27 2 12.54 2 19 C1.67 18.34 1.34 17.68 1 17 C0.34 17 -0.32 17 -1 17 C-1.07 13.11 -0.97 9.75 0 6 C0.04 4 0.05 2 0 0 Z " fill="#153D89" transform="translate(645,541)"/>
<path d="M0 0 C11.55 0 23.1 0 35 0 C35 0.33 35 0.66 35 1 C34.41 1.03 33.82 1.05 33.21 1.08 C30.54 1.19 27.86 1.31 25.19 1.44 C24.72 1.46 24.72 1.46 22.37 1.56 C21.48 1.6 20.59 1.64 19.67 1.68 C18.85 1.72 18.02 1.76 17.18 1.79 C15 2 15 2 12 3 C12 2.34 12 1.68 12 1 C8.04 1 4.08 1 0 1 C0 0.67 0 0.34 0 0 Z " fill="#FEA550" transform="translate(530,132)"/>
<path d="M0 0 C0.33 0.66 0.66 1.32 1 2 C1.66 2.33 2.32 2.66 3 3 C5.19 4.75 5.19 4.75 7 7 C6.69 9.62 6.69 9.62 6 12 C6.33 12.66 6.66 13.32 7 14 C6.34 14.66 5.68 15.32 5 16 C4.16 13.9 3.33 11.79 2.5 9.69 C2.04 8.52 1.57 7.34 1.09 6.14 C0 3 0 3 0 0 Z " fill="#4A669C" transform="translate(5,573)"/>
<path d="M0 0 C0.33 0 0.66 0 1 0 C1.37 14.78 1.37 14.78 -1 21 C-1.99 20.67 -2.98 20.34 -4 20 C-2.68 13.4 -1.36 6.8 0 0 Z " fill="#466EB7" transform="translate(611,530)"/>
<path d="M0 0 C0.66 1.32 1.32 2.64 2 4 C1.18 4.5 1.18 4.5 -3 7 C-3 6.34 -3 5.68 -3 5 C-3.66 5 -4.32 5 -5 5 C-5 6.65 -5 8.3 -5 10 C-4.01 10.33 -3.02 10.66 -2 11 C-2 11.99 -2 12.98 -2 14 C-2.99 13.67 -3.98 13.34 -5 13 C-6.58 9.83 -6.42 7.48 -6 4 C-3 1.56 -3 1.56 0 0 Z " fill="#DD8542" transform="translate(468,168)"/>
<path d="M0 0 C-7.02 1.1 -13.91 1.1 -21 1 C-15.42 -2.72 -5.83 -3.88 0 0 Z " fill="#375FA9" transform="translate(97,42)"/>
<path d="M0 0 C2.57 3.85 1.83 5.59 1 10 C-0.65 9.67 -2.3 9.34 -4 9 C-4 7.02 -4 5.04 -4 3 C-2.68 2.67 -1.36 2.34 0 2 C0 1.34 0 0.68 0 0 Z " fill="#294885" transform="translate(642,571)"/>
<path d="M0 0 C0.66 0.33 1.32 0.66 2 1 C1.67 1.66 1.34 2.32 1 3 C2.32 3.33 3.64 3.66 5 4 C3.62 6.5 3.62 6.5 2 9 C1.34 9 0.68 9 0 9 C-0.33 9.66 -0.66 10.32 -1 11 C-2 10 -2 10 -2.19 6.62 C-2 3 -2 3 0 0 Z " fill="#F8994A" transform="translate(449,132)"/>
<path d="M0 0 C0.33 0 0.66 0 1 0 C1.2 3.48 1.38 6.96 1.56 10.44 C1.62 11.43 1.67 12.42 1.73 13.45 C1.78 14.39 1.83 15.34 1.88 16.31 C1.93 17.18 1.97 18.06 2.02 18.96 C2 21 2 21 1 22 C0.77 23.51 0.59 25.04 0.44 26.56 C0.35 27.39 0.27 28.22 0.18 29.07 C0.12 29.7 0.06 30.34 0 31 C-0.33 31 -0.66 31 -1 31 C-1.19 20.64 -0.61 10.34 0 0 Z " fill="#1C459C" transform="translate(2,524)"/>
<path d="M0 0 C-0.66 0 -1.32 0 -2 0 C-2 0.66 -2 1.32 -2 2 C-4.64 2 -7.28 2 -10 2 C-10.33 2.66 -10.66 3.32 -11 4 C-12.38 5.62 -12.38 5.62 -14 7 C-17 7 -17 7 -20 5 C-18.08 4.18 -16.17 3.37 -14.25 2.56 C-13.18 2.11 -12.12 1.66 -11.02 1.19 C-6.84 -0.46 -4.33 -1.39 0 0 Z " fill="#5A79B7" transform="translate(76,5)"/>
<path d="M0 0 C4.02 -0.47 5.57 -0.32 8.88 2.12 C11 5 11 5 11.5 8.19 C11.34 9.12 11.17 10.04 11 11 C10.01 11.66 9.02 12.32 8 13 C8 10.03 8 7.06 8 4 C5.36 3.01 2.72 2.02 0 1 C0 0.67 0 0.34 0 0 Z " fill="#B36B3F" transform="translate(544,94)"/>
<path d="M0 0 C0 0.33 0 0.66 0 1 C-1.89 1.34 -3.79 1.67 -5.69 2 C-6.74 2.19 -7.8 2.37 -8.89 2.56 C-11.65 2.95 -14.22 3.08 -17 3 C-17 2.34 -17 1.68 -17 1 C-11.02 -1.21 -6.26 -0.93 0 0 Z " fill="#365EA8" transform="translate(574,587)"/>
<path d="M0 0 C1.88 0.69 1.88 0.69 4 2 C5.06 4.38 5.06 4.38 6 7 C6.96 8.36 7.95 9.71 9 11 C8.34 11.66 7.68 12.32 7 13 C5.83 11.21 4.66 9.42 3.5 7.62 C2.85 6.63 2.2 5.63 1.53 4.6 C0 2 0 2 0 0 Z " fill="#3F5C97" transform="translate(13,593)"/>
<path d="M0 0 C1.65 0.33 1.65 0.33 10 2 C10.33 2.99 10.66 3.98 11 5 C9.54 4.86 8.08 4.71 6.62 4.56 C6.22 4.52 6.22 4.52 4.16 4.32 C2 4 2 4 0 3 C0 2.01 0 1.02 0 0 Z " fill="#406AB2" transform="translate(75,584)"/>
<path d="M0 0 C0.66 0 1.32 0 2 0 C1.81 1.81 1.81 1.81 1 4 C-1.25 5.81 -1.25 5.81 -4 7 C-6.81 6.69 -6.81 6.69 -9 6 C-9 5.67 -9 5.34 -9 5 C-7.02 4.67 -5.04 4.34 -3 4 C-3.66 3.67 -4.32 3.34 -5 3 C-5 2.34 -5 1.68 -5 1 C-3.35 1 -1.7 1 0 1 C0 0.67 0 0.34 0 0 Z " fill="#D58751" transform="translate(513,194)"/>
<path d="M0 0 C0 0.99 0 1.98 0 3 C0.99 3.66 1.98 4.32 3 5 C3 5.99 3 6.98 3 8 C-1.27 6.42 -3.27 3.49 -6 0 C-2.25 -1.12 -2.25 -1.12 0 0 Z " fill="#C8814C" transform="translate(470,107)"/>
<path d="M0 0 C0.99 0 1.98 0 3 0 C2.67 2.64 2.34 5.28 2 8 C1.34 7.67 0.68 7.34 0 7 C-0.99 7.33 -1.98 7.66 -3 8 C-1.12 1.12 -1.12 1.12 0 0 Z " fill="#133579" transform="translate(642,566)"/>
<path d="M0 0 C0.66 0.33 1.32 0.66 2 1 C1.67 1.66 1.34 2.32 1 3 C0.34 3 -0.32 3 -1 3 C-0.01 4.32 0.98 5.64 2 7 C0.68 8.65 -0.64 10.3 -2 12 C-3.35 5.72 -3.35 5.72 -1.56 2.06 C-1.05 1.38 -0.53 0.7 0 0 Z " fill="#099991" transform="translate(71,172)"/>
<path d="M0 0 C0 0.99 0 1.98 0 3 C-3.66 5.91 -6.39 6.32 -11 6 C-11 5.34 -11 4.68 -11 4 C-7.37 2.68 -3.74 1.36 0 0 Z " fill="#4771B8" transform="translate(580,581)"/>
<path d="M0 0 C0.66 0.33 1.32 0.66 2 1 C1.89 2.48 1.76 3.96 1.62 5.44 C1.56 6.26 1.49 7.08 1.41 7.93 C1.28 8.62 1.14 9.3 1 10 C-1.71 11.35 -4.01 11.07 -7 11 C-7 10.67 -7 10.34 -7 10 C-5.35 10 -3.7 10 -2 10 C-1.94 9.36 -1.88 8.72 -1.82 8.07 C-1.73 7.24 -1.65 6.41 -1.56 5.56 C-1.48 4.74 -1.4 3.92 -1.32 3.07 C-1 1 -1 1 0 0 Z " fill="#DE8442" transform="translate(551,172)"/>
<path d="M0 0 C1.3 0.93 2.59 1.87 3.88 2.81 C4.59 3.33 5.31 3.86 6.05 4.39 C8 6 8 6 10 9 C8.68 9 7.36 9 6 9 C6 8.34 6 7.68 6 7 C5.01 7 4.02 7 3 7 C0 2.78 0 2.78 0 0 Z " fill="#CF7B47" transform="translate(478,100)"/>
<path d="M0 0 C1.32 0 2.64 0 4 0 C5.42 3.82 6.24 6.91 6 11 C4.01 9.01 3.1 7.44 1.88 4.94 C1.52 4.22 1.17 3.51 0.8 2.78 C0 1 0 1 0 0 Z " fill="#345FAB" transform="translate(606,76)"/>
<path d="M0 0 C3.3 0 6.6 0 10 0 C9.34 1.65 8.68 3.3 8 5 C4.35 3.72 2.83 2.83 0 0 Z " fill="#3A5892" transform="translate(43,627)"/>
<path d="M0 0 C0.66 0.33 1.32 0.66 2 1 C-0.05 4.99 -1.89 7.1 -6 9 C-6.66 8.67 -7.32 8.34 -8 8 C-5.36 5.36 -2.72 2.72 0 0 Z " fill="#4C6CAD" transform="translate(35,23)"/>
<path d="M0 0 C0.99 0 1.98 0 3 0 C2.52 4.31 1.25 6.17 -2 9 C-1.12 2.25 -1.12 2.25 0 0 Z " fill="#3A5890" transform="translate(632,595)"/>
<path d="M0 0 C4.4 0.5 6.71 2.09 10 5 C9.67 5.99 9.34 6.98 9 8 C7.68 7.05 6.37 6.09 5.06 5.12 C4.33 4.59 3.6 4.06 2.85 3.51 C1 2 1 2 0 0 Z " fill="#D98544" transform="translate(523,163)"/>
<path d="M0 0 C3.26 0.35 4.02 1.02 6.25 3.56 C6.83 4.37 7.41 5.17 8 6 C7.01 6.33 6.02 6.66 5 7 C3.29 5.38 1.63 3.71 0 2 C0 1.34 0 0.68 0 0 Z " fill="#315BA7" transform="translate(50,569)"/>
<path d="M0 0 C1.32 0.33 2.64 0.66 4 1 C1.36 2.98 -1.28 4.96 -4 7 C-4.33 5.68 -4.66 4.36 -5 3 C-3.35 2.67 -1.7 2.34 0 2 C0 1.34 0 0.68 0 0 Z " fill="#CE8147" transform="translate(532,123)"/>
<path d="M0 0 C1.32 0.33 2.64 0.66 4 1 C1.69 3.31 -0.62 5.62 -3 8 C-3.33 6.68 -3.66 5.36 -4 4 C-3.34 4 -2.68 4 -2 4 C-2 3.34 -2 2.68 -2 2 C-1.34 2 -0.68 2 0 2 C0 1.34 0 0.68 0 0 Z " fill="#4B73BA" transform="translate(55,55)"/>
<path d="M0 0 C1.32 0.33 2.64 0.66 4 1 C3.34 1.99 3.34 1.99 0 7 C-0.66 6.67 -1.32 6.34 -2 6 C-1.49 3.83 -1 2 0 0 Z " fill="#2D54A2" transform="translate(16,45)"/>
<path d="M0 0 C-0.33 0.66 -0.66 1.32 -1 2 C-3.31 1.84 -3.31 1.84 -15 1 C-15 0.67 -15 0.34 -15 0 C-9.62 -0.85 -5.35 -1 0 0 Z " fill="#466DB0" transform="translate(565,41)"/>
<path d="M0 0 C1.13 0.02 2.27 0.04 3.44 0.06 C3.77 1.38 4.1 2.7 4.44 4.06 C0.7 3.56 -1.37 3.19 -4.56 1.06 C-3.56 0.06 -3.56 0.06 0 0 Z " fill="#405B93" transform="translate(63.5625,634.9375)"/>
<path d="M0 0 C0.99 0 1.98 0 3 0 C2.22 3.92 0.61 7.36 -1 11 C-1.66 11 -2.32 11 -3 11 C-2.85 10.56 -2.85 10.56 -2.06 8.31 C-1.17 5.53 -0.51 2.87 0 0 Z " fill="#345FAD" transform="translate(607,551)"/>
<path d="M0 0 C4.74 3.28 4.74 3.28 5.94 6.56 C6 9 6 9 4 12 C3.88 11.24 3.75 10.47 3.62 9.69 C3 7 3 7 1 4 C0.38 1.81 0.38 1.81 0 0 Z " fill="#0FA39E" transform="translate(133,171)"/>
<path d="M0 0 C0.99 0 1.98 0 3 0 C1.63 3.16 1.01 3.99 -2 6 C-2.66 4.68 -3.32 3.36 -4 2 C-3.34 1.67 -2.68 1.34 -2 1 C-1.34 1.33 -0.68 1.66 0 2 C0 1.34 0 0.68 0 0 Z " fill="#E58A45" transform="translate(483,169)"/>
<path d="M0 0 C2.04 1.62 4.04 3.29 6 5 C6 5.66 6 6.32 6 7 C4.06 6.62 4.06 6.62 2 6 C1.67 5.34 1.34 4.68 1 4 C0.01 3.34 -0.98 2.68 -2 2 C-1.34 1.34 -0.68 0.68 0 0 Z " fill="#DA8747" transform="translate(546,164)"/>
<path d="M0 0 C3.38 0.31 3.38 0.31 7 1 C7.66 1.99 8.32 2.98 9 4 C7.02 4.33 5.04 4.66 3 5 C2.67 4.01 2.34 3.02 2 2 C1.34 1.34 0.68 0.68 0 0 Z " fill="#C37741" transform="translate(467,94)"/>
<path d="M0 0 C3 0.81 3 0.81 6 2.81 C5.67 3.47 5.34 4.13 5 4.81 C4.3 4.48 3.6 4.15 2.88 3.81 C-0.26 2.72 -2.71 2.66 -6 2.81 C-4.05 0.1 -3.42 -0.21 0 0 Z " fill="#AF6E4B" transform="translate(509,77.1875)"/>
<path d="M0 0 C1.48 0.95 2.96 1.91 4.44 2.88 C4.85 3.14 4.85 3.14 6.93 4.49 C9 6 9 6 10 8 C5.18 7.59 3.09 5.62 0 2 C0 1.34 0 0.68 0 0 Z " fill="#5B77B4" transform="translate(607,18)"/>
<path d="M0 0 C0.33 1.32 0.66 2.64 1 4 C-4.75 2.25 -4.75 2.25 -7 0 C-4.33 -1.33 -2.83 -0.67 0 0 Z " fill="#46619A" transform="translate(58,632)"/>
<path d="M0 0 C0.66 0.66 1.32 1.32 2 2 C0.68 4.64 -0.64 7.28 -2 10 C-2.66 10 -3.32 10 -4 10 C-4 8.68 -4 7.36 -4 6 C-3.34 6 -2.68 6 -2 6 C-1.34 4.02 -0.68 2.04 0 0 Z " fill="#456BB2" transform="translate(46,67)"/>
<path d="M0 0 C0.66 0.33 1.32 0.66 2 1 C1.25 3.44 1.25 3.44 0 6 C-2.12 6.81 -2.12 6.81 -4 7 C-2.93 4.08 -2.22 2.22 0 0 Z " fill="#395DA6" transform="translate(26,32)"/>
<path d="M0 0 C0.66 0.33 1.32 0.66 2 1 C1.67 2.65 1.34 4.3 1 6 C0.34 6 -0.32 6 -1 6 C-1.17 6.66 -1.17 6.66 -2 10 C-2.25 3.38 -2.25 3.38 0 0 Z " fill="#C87C46" transform="translate(449,132)"/>
<path d="M0 0 C0.99 0 1.98 0 3 0 C2.19 1.94 2.19 1.94 1 4 C0.01 4.33 -0.98 4.66 -2 5 C-2.66 4.34 -3.32 3.68 -4 3 C-2.68 2.67 -1.36 2.34 0 2 C0 1.34 0 0.68 0 0 Z " fill="#36538D" transform="translate(610,621)"/>
<path d="M0 0 C1.32 0 2.64 0 4 0 C2.25 5.75 2.25 5.75 0 8 C0 5.36 0 2.72 0 0 Z " fill="#526EA2" transform="translate(636,587)"/>
<path d="M0 0 C0.33 0.99 0.66 1.98 1 3 C0.67 3.33 0.34 3.66 0 4 C-0.23 5.51 -0.41 7.04 -0.56 8.56 C-0.65 9.39 -0.73 10.22 -0.82 11.07 C-0.88 11.7 -0.94 12.34 -1 13 C-1.33 13 -1.66 13 -2 13 C-2 9.04 -2 5.08 -2 1 C-1.34 0.67 -0.68 0.34 0 0 Z " fill="#516DAC" transform="translate(3,542)"/>
<path d="M0 0 C0.99 0.17 0.99 0.17 6 1 C6 2.65 6 4.3 6 6 C3.98 4.36 1.98 2.69 0 1 C0 0.67 0 0.34 0 0 Z " fill="#DB8B4D" transform="translate(473,115)"/>
<path d="M0 0 C0.33 1.32 0.66 2.64 1 4 C-3.62 7 -3.62 7 -7 7 C-4.69 4.69 -2.38 2.38 0 0 Z " fill="#AF7144" transform="translate(540,97)"/>
<path d="M0 0 C1.65 1.32 3.3 2.64 5 4 C4.34 4 3.68 4 3 4 C2.67 4.66 2.34 5.32 2 6 C0.68 4.35 -0.64 2.7 -2 1 C-1.34 0.67 -0.68 0.34 0 0 Z " fill="#35518E" transform="translate(24,607)"/>
<path d="M0 0 C3.16 1.37 3.99 1.99 6 5 C5.67 5.66 5.34 6.32 5 7 C2.51 5.75 1.53 4.3 0 2 C0 1.34 0 0.68 0 0 Z " fill="#E18C4E" transform="translate(527,147)"/>
<path d="M0 0 C2 1 2 1 2 1 Z " fill="#7BA0D8" transform="translate(169,44)"/>
<path d="" fill="#7BA0D8" transform="translate(0,0)"/>
<path d="" fill="#7BA0D8" transform="translate(0,0)"/>
<path d="" fill="#7BA0D8" transform="translate(0,0)"/>
<path d="" fill="#7BA0D8" transform="translate(0,0)"/>
<path d="" fill="#7BA0D8" transform="translate(0,0)"/>
</svg>
