<?xml version="1.0" encoding="UTF-8"?>
<!-- Generator: visioncortex VTracer 0.6.5 -->
<svg version="1.1" xmlns="http://www.w3.org/2000/svg" width="649" height="645">
<path d="M0 0 C0.39 -0 0.39 -0 2.36 -0.01 C4.97 -0.01 7.58 -0.01 10.18 -0.01 C12.07 -0.01 13.96 -0.01 15.85 -0.02 C21.04 -0.03 26.23 -0.03 31.42 -0.03 C37.02 -0.03 42.62 -0.04 48.22 -0.04 C60.47 -0.06 72.71 -0.06 84.96 -0.07 C92.61 -0.07 100.26 -0.08 107.91 -0.08 C129.1 -0.09 150.29 -0.1 171.49 -0.11 C172.86 -0.11 174.23 -0.11 175.6 -0.11 C176.97 -0.11 178.34 -0.11 179.72 -0.11 C182.47 -0.11 185.22 -0.11 187.98 -0.11 C188.66 -0.11 189.34 -0.11 190.05 -0.11 C212.17 -0.11 234.3 -0.13 256.42 -0.15 C279.84 -0.18 303.25 -0.19 326.67 -0.19 C339.42 -0.19 352.18 -0.2 364.93 -0.22 C375.79 -0.23 386.66 -0.24 397.52 -0.23 C403.06 -0.22 408.6 -0.23 414.13 -0.24 C419.22 -0.25 424.3 -0.25 429.38 -0.24 C431.21 -0.24 433.03 -0.24 434.86 -0.25 C464.92 -0.38 492.68 6.31 515.88 26.13 C516.22 26.41 516.22 26.41 517.89 27.83 C529.79 38.82 538.05 54.31 542.7 69.63 C542.89 70.27 543.09 70.91 543.29 71.57 C546.95 84.6 547.18 97.69 547.15 111.11 C547.15 113 547.15 114.89 547.16 116.78 C547.17 121.94 547.17 127.11 547.16 132.27 C547.16 137.85 547.17 143.43 547.17 149.01 C547.19 159.94 547.19 170.86 547.19 181.78 C547.19 190.67 547.19 199.55 547.19 208.43 C547.19 209.7 547.19 210.96 547.19 212.27 C547.19 214.84 547.2 217.41 547.2 219.99 C547.2 237.25 547.21 254.52 547.2 271.78 C547.2 272.46 547.2 273.13 547.2 273.83 C547.2 277.24 547.2 280.66 547.2 284.08 C547.2 284.76 547.2 285.44 547.2 286.14 C547.2 287.51 547.2 288.88 547.2 290.25 C547.19 311.6 547.2 332.94 547.22 354.29 C547.24 378.3 547.25 402.32 547.25 426.33 C547.25 439.04 547.25 451.74 547.26 464.44 C547.27 475.26 547.28 486.07 547.26 496.89 C547.26 502.4 547.26 507.91 547.27 513.42 C547.28 518.48 547.28 523.54 547.26 528.6 C547.26 530.41 547.26 532.23 547.27 534.05 C547.4 564.16 541.46 591.22 520.88 614.13 C520.57 614.48 520.57 614.48 518.99 616.27 C501.95 634.47 475.9 644.28 451.29 645.41 C446.28 645.55 441.28 645.53 436.27 645.51 C434.35 645.52 432.42 645.52 430.5 645.53 C425.26 645.54 420.02 645.53 414.78 645.52 C409.11 645.52 403.44 645.53 397.77 645.54 C386.68 645.55 375.59 645.55 364.51 645.54 C355.49 645.53 346.47 645.53 337.46 645.53 C336.17 645.53 334.88 645.53 333.56 645.53 C330.95 645.54 328.33 645.54 325.72 645.54 C301.95 645.55 278.18 645.54 254.41 645.52 C232.74 645.51 211.07 645.51 189.41 645.52 C165.02 645.54 140.64 645.54 116.26 645.54 C113.65 645.53 111.05 645.53 108.45 645.53 C107.81 645.53 107.81 645.53 104.57 645.53 C95.57 645.53 86.57 645.53 77.57 645.54 C66.59 645.55 55.62 645.55 44.64 645.53 C39.05 645.52 33.45 645.52 27.86 645.53 C22.73 645.54 17.6 645.53 12.46 645.52 C10.62 645.51 8.77 645.52 6.93 645.52 C-21.23 645.63 -47.85 639.62 -69.12 620.13 C-70.04 619.3 -70.97 618.47 -71.92 617.61 C-92.57 598.1 -101.14 570.21 -102.39 542.35 C-102.53 537.47 -102.52 532.59 -102.5 527.7 C-102.5 525.83 -102.5 523.97 -102.51 522.1 C-102.52 517.03 -102.52 511.96 -102.51 506.89 C-102.5 501.4 -102.51 495.91 -102.52 490.42 C-102.53 479.68 -102.53 468.95 -102.52 458.21 C-102.51 449.49 -102.51 440.76 -102.52 432.03 C-102.52 430.78 -102.52 429.53 -102.52 428.25 C-102.52 425.72 -102.52 423.19 -102.52 420.66 C-102.53 397.63 -102.52 374.61 -102.51 351.58 C-102.49 330.61 -102.49 309.63 -102.51 288.66 C-102.52 265.04 -102.53 241.42 -102.52 217.8 C-102.52 215.28 -102.52 212.76 -102.52 210.24 C-102.52 209 -102.52 207.76 -102.52 206.48 C-102.51 197.77 -102.52 189.05 -102.52 180.34 C-102.53 169.72 -102.53 159.09 -102.51 148.46 C-102.51 143.05 -102.5 137.63 -102.51 132.22 C-102.52 127.25 -102.52 122.28 -102.5 117.31 C-102.5 115.53 -102.5 113.74 -102.51 111.96 C-102.62 80.95 -95.69 53.19 -74.12 30.13 C-73.8 29.78 -73.8 29.78 -72.21 28.02 C-54.51 9.19 -25.21 -0.06 0 0 Z " fill="#1D253B" fill-opacity="0" transform="translate(102.11530017852783,-0.13142776489257813)"/>
<path d="M0 0 C0.39 -0 0.39 -0 2.36 -0.01 C4.97 -0.01 7.58 -0.01 10.18 -0.01 C12.07 -0.01 13.96 -0.01 15.85 -0.02 C21.04 -0.03 26.23 -0.03 31.42 -0.03 C37.02 -0.03 42.62 -0.04 48.22 -0.04 C60.47 -0.06 72.71 -0.06 84.96 -0.07 C92.61 -0.07 100.26 -0.08 107.91 -0.08 C129.1 -0.09 150.29 -0.1 171.49 -0.11 C172.86 -0.11 174.23 -0.11 175.6 -0.11 C176.97 -0.11 178.34 -0.11 179.72 -0.11 C182.47 -0.11 185.22 -0.11 187.98 -0.11 C188.66 -0.11 189.34 -0.11 190.05 -0.11 C212.17 -0.11 234.3 -0.13 256.42 -0.15 C279.84 -0.18 303.25 -0.19 326.67 -0.19 C339.42 -0.19 352.18 -0.2 364.93 -0.22 C375.79 -0.23 386.66 -0.24 397.52 -0.23 C403.06 -0.22 408.6 -0.23 414.13 -0.24 C419.22 -0.25 424.3 -0.25 429.38 -0.24 C431.21 -0.24 433.03 -0.24 434.86 -0.25 C464.92 -0.38 492.68 6.31 515.88 26.13 C516.22 26.41 516.22 26.41 517.89 27.83 C529.79 38.82 538.05 54.31 542.7 69.63 C542.89 70.27 543.09 70.91 543.29 71.57 C546.95 84.6 547.18 97.69 547.15 111.11 C547.15 113 547.15 114.89 547.16 116.78 C547.17 121.94 547.17 127.11 547.16 132.27 C547.16 137.85 547.17 143.43 547.17 149.01 C547.19 159.94 547.19 170.86 547.19 181.78 C547.19 190.67 547.19 199.55 547.19 208.43 C547.19 209.7 547.19 210.96 547.19 212.27 C547.19 214.84 547.2 217.41 547.2 219.99 C547.2 237.25 547.21 254.52 547.2 271.78 C547.2 272.46 547.2 273.13 547.2 273.83 C547.2 277.24 547.2 280.66 547.2 284.08 C547.2 284.76 547.2 285.44 547.2 286.14 C547.2 287.51 547.2 288.88 547.2 290.25 C547.19 311.6 547.2 332.94 547.22 354.29 C547.24 378.3 547.25 402.32 547.25 426.33 C547.25 439.04 547.25 451.74 547.26 464.44 C547.27 475.26 547.28 486.07 547.26 496.89 C547.26 502.4 547.26 507.91 547.27 513.42 C547.28 518.48 547.28 523.54 547.26 528.6 C547.26 530.41 547.26 532.23 547.27 534.05 C547.4 564.16 541.46 591.22 520.88 614.13 C520.57 614.48 520.57 614.48 518.99 616.27 C501.95 634.47 475.9 644.28 451.29 645.41 C446.28 645.55 441.28 645.53 436.27 645.51 C434.35 645.52 432.42 645.52 430.5 645.53 C425.26 645.54 420.02 645.53 414.78 645.52 C409.11 645.52 403.44 645.53 397.77 645.54 C386.68 645.55 375.59 645.55 364.51 645.54 C355.49 645.53 346.47 645.53 337.46 645.53 C336.17 645.53 334.88 645.53 333.56 645.53 C330.95 645.54 328.33 645.54 325.72 645.54 C301.95 645.55 278.18 645.54 254.41 645.52 C232.74 645.51 211.07 645.51 189.41 645.52 C165.02 645.54 140.64 645.54 116.26 645.54 C113.65 645.53 111.05 645.53 108.45 645.53 C107.81 645.53 107.81 645.53 104.57 645.53 C95.57 645.53 86.57 645.53 77.57 645.54 C66.59 645.55 55.62 645.55 44.64 645.53 C39.05 645.52 33.45 645.52 27.86 645.53 C22.73 645.54 17.6 645.53 12.46 645.52 C10.62 645.51 8.77 645.52 6.93 645.52 C-21.23 645.63 -47.85 639.62 -69.12 620.13 C-70.04 619.3 -70.97 618.47 -71.92 617.61 C-92.57 598.1 -101.14 570.21 -102.39 542.35 C-102.53 537.47 -102.52 532.59 -102.5 527.7 C-102.5 525.83 -102.5 523.97 -102.51 522.1 C-102.52 517.03 -102.52 511.96 -102.51 506.89 C-102.5 501.4 -102.51 495.91 -102.52 490.42 C-102.53 479.68 -102.53 468.95 -102.52 458.21 C-102.51 449.49 -102.51 440.76 -102.52 432.03 C-102.52 430.78 -102.52 429.53 -102.52 428.25 C-102.52 425.72 -102.52 423.19 -102.52 420.66 C-102.53 397.63 -102.52 374.61 -102.51 351.58 C-102.49 330.61 -102.49 309.63 -102.51 288.66 C-102.52 265.04 -102.53 241.42 -102.52 217.8 C-102.52 215.28 -102.52 212.76 -102.52 210.24 C-102.52 209 -102.52 207.76 -102.52 206.48 C-102.51 197.77 -102.52 189.05 -102.52 180.34 C-102.53 169.72 -102.53 159.09 -102.51 148.46 C-102.51 143.05 -102.5 137.63 -102.51 132.22 C-102.52 127.25 -102.52 122.28 -102.5 117.31 C-102.5 115.53 -102.5 113.74 -102.51 111.96 C-102.62 80.95 -95.69 53.19 -74.12 30.13 C-73.8 29.78 -73.8 29.78 -72.21 28.02 C-54.51 9.19 -25.21 -0.06 0 0 Z M-50.41 61.77 C-57.65 71.3 -62.27 80.75 -62.25 92.76 C-62.25 93.53 -62.25 94.31 -62.26 95.11 C-62.26 97.73 -62.26 100.34 -62.26 102.96 C-62.27 104.85 -62.27 106.73 -62.27 108.62 C-62.28 113.82 -62.29 119.02 -62.29 124.23 C-62.29 129.83 -62.3 135.43 -62.31 141.04 C-62.33 154.58 -62.34 168.12 -62.35 181.67 C-62.36 188.04 -62.36 194.42 -62.37 200.8 C-62.38 221.99 -62.4 243.18 -62.4 264.38 C-62.41 265.75 -62.41 267.12 -62.41 268.49 C-62.41 269.17 -62.41 269.85 -62.41 270.55 C-62.41 273.99 -62.41 277.44 -62.41 280.88 C-62.41 281.56 -62.41 282.25 -62.41 282.95 C-62.42 305.1 -62.44 327.25 -62.48 349.41 C-62.51 372.83 -62.53 396.25 -62.53 419.68 C-62.53 432.45 -62.54 445.21 -62.57 457.98 C-62.59 468.85 -62.6 479.73 -62.59 490.6 C-62.58 496.15 -62.59 501.69 -62.61 507.24 C-62.62 512.32 -62.62 517.4 -62.61 522.48 C-62.6 524.32 -62.61 526.15 -62.62 527.99 C-62.73 545.67 -58.93 559.59 -46.57 572.77 C-31.41 587.35 -13.95 588.44 5.97 588.39 C7.91 588.39 9.85 588.39 11.79 588.39 C17.1 588.4 22.41 588.4 27.72 588.39 C33.46 588.39 39.19 588.4 44.93 588.4 C56.15 588.41 67.38 588.41 78.61 588.4 C87.73 588.4 96.86 588.4 105.99 588.4 C107.29 588.4 108.59 588.4 109.92 588.4 C112.56 588.4 115.2 588.4 117.84 588.4 C141.89 588.41 165.93 588.4 189.98 588.39 C211.91 588.38 233.84 588.38 255.78 588.39 C280.44 588.4 305.1 588.41 329.76 588.4 C332.39 588.4 335.02 588.4 337.65 588.4 C338.94 588.4 340.24 588.4 341.57 588.4 C350.68 588.4 359.8 588.4 368.91 588.4 C380.02 588.41 391.13 588.41 402.24 588.4 C407.9 588.39 413.57 588.39 419.24 588.4 C424.43 588.4 429.62 588.4 434.81 588.39 C436.68 588.39 438.56 588.39 440.43 588.39 C453.52 588.42 466.06 588.44 477.88 582.13 C478.67 581.73 479.46 581.33 480.28 580.92 C491.98 574.54 499.85 565.38 504.88 553.13 C505.06 552.72 505.06 552.72 505.97 550.65 C507.9 545.31 508.03 539.93 508.02 534.31 C508.02 533.53 508.02 532.76 508.03 531.96 C508.03 529.37 508.03 526.77 508.03 524.18 C508.04 522.3 508.04 520.42 508.04 518.55 C508.05 513.38 508.06 508.22 508.06 503.06 C508.06 497.49 508.07 491.93 508.08 486.36 C508.1 472.92 508.11 459.47 508.12 446.03 C508.12 439.7 508.13 433.37 508.14 427.03 C508.15 405.99 508.17 384.94 508.17 363.9 C508.17 362.53 508.18 361.17 508.18 359.81 C508.18 359.14 508.18 358.46 508.18 357.77 C508.18 354.35 508.18 350.93 508.18 347.51 C508.18 347.17 508.18 347.17 508.18 345.46 C508.19 323.47 508.21 301.47 508.24 279.48 C508.28 256.22 508.3 232.96 508.3 209.7 C508.3 197.02 508.31 184.34 508.34 171.67 C508.36 160.87 508.37 150.08 508.36 139.28 C508.35 133.78 508.36 128.27 508.37 122.76 C508.39 117.72 508.39 112.68 508.38 107.63 C508.37 105.81 508.38 103.99 508.39 102.17 C508.48 87.71 506.35 76.26 497.88 64.13 C497.41 63.44 496.93 62.76 496.44 62.05 C487.54 50.69 472.78 43.64 458.6 41.84 C452.75 41.4 446.88 41.47 441.02 41.51 C439.05 41.51 437.09 41.5 435.12 41.49 C429.77 41.47 424.41 41.49 419.06 41.51 C413.27 41.52 407.48 41.51 401.69 41.5 C390.36 41.48 379.03 41.5 367.71 41.52 C355.18 41.54 342.65 41.54 330.12 41.54 C305.18 41.53 280.25 41.56 255.32 41.59 C233.19 41.62 211.06 41.64 188.93 41.63 C187.51 41.63 186.09 41.63 184.66 41.63 C184.31 41.63 184.31 41.63 182.53 41.63 C179 41.63 175.46 41.63 171.92 41.63 C171.57 41.63 171.57 41.63 169.8 41.63 C151.29 41.62 132.77 41.63 114.25 41.65 C112.93 41.65 111.61 41.65 110.26 41.65 C107.61 41.65 104.97 41.65 102.32 41.66 C93.13 41.66 83.93 41.66 74.74 41.66 C63.53 41.66 52.32 41.67 41.12 41.69 C35.4 41.71 29.69 41.71 23.97 41.71 C18.74 41.7 13.5 41.71 8.26 41.73 C6.37 41.73 4.49 41.73 2.6 41.73 C-18.31 41.67 -36.03 45.24 -50.41 61.77 Z " fill="#1F4798" transform="translate(102.11530017852783,-0.13142776489257813)"/>
<path d="M0 0 C4.28 0.48 6.23 2.88 9 6 C9.44 6.79 9.88 7.57 10.33 8.38 C12.26 11.41 14.45 13.36 17.19 15.69 C18.83 17.08 20.44 18.51 22 20 C22 20.66 22 21.32 22 22 C22.57 22.27 23.14 22.54 23.73 22.81 C26.08 24.04 28.12 25.43 30.25 27 C30.96 27.52 31.66 28.03 32.39 28.56 C32.92 29.04 33.45 29.51 34 30 C34 30.66 34 31.32 34 32 C34.54 32.1 35.08 32.2 35.63 32.3 C38.65 33.19 41.12 34.66 43.88 36.19 C59.86 44.45 76.78 46.9 94.55 46.75 C96.52 46.75 98.48 46.76 100.44 46.77 C105.77 46.79 111.1 46.78 116.43 46.76 C122.21 46.74 127.98 46.75 133.76 46.77 C145.04 46.79 156.32 46.77 167.61 46.75 C180.77 46.72 193.93 46.72 207.09 46.73 C231.29 46.74 255.48 46.71 279.68 46.67 C301.73 46.63 323.78 46.62 345.83 46.63 C347.25 46.63 348.67 46.63 350.08 46.63 C350.43 46.63 350.43 46.63 352.2 46.63 C355.73 46.64 359.26 46.64 362.78 46.64 C363.48 46.64 364.17 46.64 364.89 46.64 C383.37 46.65 401.84 46.64 420.32 46.62 C422.97 46.62 425.62 46.62 428.27 46.61 C429.57 46.61 430.88 46.61 432.22 46.61 C441.38 46.6 450.54 46.6 459.7 46.61 C470.86 46.61 482.03 46.6 493.2 46.57 C498.89 46.56 504.59 46.55 510.28 46.56 C515.5 46.57 520.72 46.56 525.94 46.53 C527.82 46.52 529.7 46.53 531.57 46.53 C554.3 46.63 573.54 41.7 593 30 C593.86 29.5 594.72 29 595.6 28.49 C602.79 24.03 608.33 19.01 613 12 C613.66 12 614.32 12 615 12 C615.23 11.46 615.45 10.93 615.69 10.38 C618.16 5.89 621.07 1.82 626 0 C626.33 1.32 626.66 2.64 627 4 C627.66 4 628.32 4 629 4 C628.53 9.47 627.09 13.43 624.19 18.12 C623.79 18.77 623.4 19.42 622.99 20.08 C611.39 38.35 593.61 52.3 573.19 59.31 C572.53 59.54 571.86 59.77 571.18 60.01 C556.81 64.61 542.35 65.44 527.39 65.38 C525.46 65.38 523.54 65.39 521.61 65.4 C516.37 65.41 511.13 65.4 505.89 65.39 C500.22 65.39 494.55 65.4 488.89 65.4 C477.8 65.42 466.71 65.41 455.62 65.41 C446.6 65.4 437.59 65.4 428.57 65.4 C427.29 65.4 426 65.4 424.67 65.4 C422.06 65.4 419.45 65.4 416.84 65.41 C393.06 65.41 369.29 65.41 345.52 65.39 C323.85 65.38 302.19 65.38 280.52 65.39 C256.14 65.41 231.75 65.41 207.37 65.4 C204.77 65.4 202.17 65.4 199.56 65.4 C198.92 65.4 198.92 65.4 195.68 65.4 C186.68 65.4 177.68 65.4 168.68 65.41 C157.71 65.42 146.73 65.41 135.76 65.4 C130.16 65.39 124.57 65.39 118.97 65.4 C113.84 65.41 108.71 65.4 103.58 65.39 C101.73 65.38 99.89 65.38 98.04 65.39 C69.89 65.49 43.27 59.49 22 40 C21.07 39.17 20.15 38.33 19.2 37.48 C11.27 29.99 4.36 21.08 0 11 C-0.04 9.33 -0.04 7.67 0 6 C-0.33 5.01 -0.66 4.02 -1 3 C-0.67 2.01 -0.34 1.02 0 0 Z " fill="#17387B" transform="translate(11,580)"/>
<path d="M0 0 C5.61 0 11.22 0 17 0 C17 179.85 17 359.7 17 545 C141.41 545 265.82 545 394 545 C394 545.33 394 545.66 394 546 C238.9 546 83.8 546 -76 546 C-76 545.67 -76 545.34 -76 545 C-50.59 545 -25.18 545 1 545 C0.93 538.97 0.86 532.93 0.78 526.72 C0.03 458.21 -0.1 389.7 -0.1 321.19 C-0.1 320.03 -0.1 318.87 -0.1 317.67 C-0.1 287.68 -0.09 257.69 -0.07 227.7 C-0.06 210.29 -0.06 192.88 -0.05 175.47 C-0.05 174.23 -0.05 172.99 -0.05 171.71 C-0.05 165.48 -0.05 159.24 -0.05 153.01 C-0.04 102.01 -0.02 51 0 0 Z " fill="#5090C0" transform="translate(165,42)"/>
<path d="M0 0 C2.63 1.98 4.64 3.59 5.47 6.88 C5.67 9.13 5.72 11.33 5.71 13.58 C5.72 14.4 5.74 15.21 5.75 16.05 C5.8 18.64 5.8 21.22 5.81 23.81 C5.84 25.57 5.86 27.33 5.89 29.09 C5.95 33.39 5.98 37.7 6 42 C6.6 41.39 7.21 40.78 7.83 40.15 C8.63 39.35 9.43 38.55 10.25 37.72 C11.04 36.92 11.83 36.13 12.64 35.31 C15.32 32.69 18.11 30.25 20.97 27.84 C23.31 25.72 25.37 23.4 27.5 21.06 C30.38 18.13 32.18 16.4 36.38 16.25 C40 17 40 17 42 18.06 C43.61 21.19 43.42 23.54 43 27 C40.59 31.02 37.03 33.75 33.5 36.75 C28.11 41.59 23.1 46.85 18 52 C19.07 52.01 20.14 52.02 21.24 52.03 C25.21 52.07 29.19 52.13 33.16 52.21 C34.88 52.24 36.6 52.26 38.32 52.27 C40.79 52.29 43.26 52.34 45.73 52.39 C46.5 52.39 47.27 52.39 48.06 52.39 C51.55 52.49 53.63 52.73 56.49 54.82 C58.71 58.02 58.54 60.2 58 64 C56.5 66.18 56.5 66.18 54 68 C51.05 68.42 48.46 68.6 45.52 68.61 C44.7 68.63 43.88 68.64 43.04 68.66 C40.45 68.71 37.85 68.73 35.25 68.75 C33.49 68.78 31.72 68.81 29.96 68.84 C25.64 68.91 21.32 68.96 17 69 C17.49 69.42 17.99 69.84 18.5 70.28 C23.27 74.41 27.82 78.69 32.25 83.19 C32.85 83.79 33.45 84.39 34.06 85.01 C35.21 86.17 36.35 87.32 37.49 88.48 C38.76 89.76 40.07 90.99 41.39 92.2 C43 94 43 94 43.44 97.56 C43 101 43 101 42 102.94 C38.62 104.74 35.62 105.02 32 104 C29.72 102.25 27.91 100.34 25.99 98.21 C24.14 96.15 22.24 94.4 20.12 92.62 C16.84 89.82 13.79 86.84 10.74 83.77 C9.85 82.88 8.96 81.98 8.04 81.06 C7.37 80.38 6.69 79.7 6 79 C6 80.12 5.99 81.25 5.99 82.41 C5.97 86.59 5.91 90.78 5.85 94.96 C5.82 96.77 5.81 98.58 5.8 100.39 C5.8 102.99 5.75 105.59 5.71 108.2 C5.71 109 5.71 109.81 5.72 110.64 C5.61 114.89 5.35 116.55 2.65 120.01 C0 122 0 122 -3.06 122.56 C-6.8 121.85 -7.75 121.06 -10 118 C-10.61 115.03 -10.6 112.1 -10.61 109.08 C-10.63 108.22 -10.64 107.36 -10.66 106.47 C-10.71 103.73 -10.73 100.99 -10.75 98.25 C-10.78 96.39 -10.81 94.53 -10.84 92.67 C-10.91 88.11 -10.96 83.56 -11 79 C-11.47 79.48 -11.95 79.96 -12.43 80.45 C-14.62 82.66 -16.81 84.86 -19 87.06 C-19.74 87.81 -20.49 88.57 -21.25 89.34 C-36.53 104.68 -36.53 104.68 -41.94 105.38 C-45 105 -45 105 -47.38 103.44 C-49.69 99.96 -49.61 98.13 -49 94 C-46.89 91.16 -44.31 88.97 -41.62 86.69 C-40.24 85.46 -38.86 84.24 -37.48 83.01 C-37.12 82.7 -37.12 82.7 -35.33 81.12 C-31.06 77.24 -27.04 73.11 -23 69 C-23.53 69 -23.53 69 -26.23 68.99 C-30.19 68.97 -34.15 68.91 -38.11 68.85 C-39.82 68.82 -41.53 68.81 -43.24 68.8 C-45.71 68.8 -48.17 68.75 -50.64 68.71 C-51.4 68.71 -52.16 68.71 -52.94 68.72 C-56.93 68.61 -58.83 68.13 -62.02 65.68 C-64 63 -64 63 -64 59.38 C-62.64 54.78 -62.64 54.78 -60 53 C-57.14 52.67 -54.48 52.51 -51.61 52.49 C-50.8 52.47 -49.98 52.45 -49.14 52.43 C-46.53 52.38 -43.92 52.35 -41.31 52.31 C-39.54 52.28 -37.77 52.24 -36.01 52.21 C-31.67 52.12 -27.34 52.06 -23 52 C-24.58 50.41 -26.16 48.82 -27.74 47.23 C-28.62 46.34 -29.5 45.45 -30.41 44.54 C-32.59 42.4 -34.81 40.36 -37.12 38.38 C-48.69 28.34 -48.69 28.34 -49.75 23.75 C-48.81 20.29 -48 19 -45 17 C-40.84 16.51 -38.73 16.5 -35.22 18.88 C-34.32 19.76 -33.42 20.65 -32.5 21.56 C-32.01 22.04 -31.51 22.52 -31 23.01 C-29.32 24.66 -27.66 26.33 -26 28 C-24.63 29.36 -23.26 30.71 -21.89 32.07 C-18.24 35.69 -14.62 39.34 -11 43 C-10.99 41.84 -10.98 40.68 -10.97 39.48 C-10.93 35.17 -10.87 30.87 -10.79 26.56 C-10.76 24.69 -10.74 22.83 -10.73 20.96 C-10.71 18.28 -10.66 15.6 -10.61 12.92 C-10.61 12.09 -10.61 11.26 -10.61 10.4 C-10.51 6.59 -10.45 4.62 -8.15 1.48 C-5.16 -0.58 -3.55 -0.65 0 0 Z " fill="#FA994B" transform="translate(511,78)"/>
<path d="M0 0 C1.94 -0 3.87 -0.01 5.81 -0.01 C11.11 -0.03 16.42 -0.03 21.72 -0.02 C27.45 -0.02 33.17 -0.03 38.9 -0.04 C50.11 -0.06 61.33 -0.07 72.54 -0.07 C81.65 -0.07 90.77 -0.07 99.89 -0.08 C121.54 -0.09 143.2 -0.11 164.86 -0.1 C165.55 -0.1 166.24 -0.1 166.95 -0.1 C170.46 -0.1 173.97 -0.1 177.48 -0.1 C178.17 -0.1 178.87 -0.1 179.59 -0.1 C180.99 -0.1 182.4 -0.1 183.81 -0.1 C205.72 -0.1 227.63 -0.12 249.53 -0.14 C274.17 -0.17 298.8 -0.19 323.44 -0.19 C336.47 -0.19 349.51 -0.2 362.54 -0.22 C373.64 -0.23 384.74 -0.24 395.84 -0.23 C401.5 -0.22 407.16 -0.22 412.82 -0.24 C418 -0.25 423.19 -0.25 428.38 -0.23 C430.25 -0.23 432.12 -0.23 433.99 -0.24 C454.79 -0.36 474.06 3.56 489.54 18.6 C493.33 22.81 496.44 27.18 498.94 32.27 C499.27 32.94 499.61 33.62 499.95 34.31 C503.87 43.47 503.5 52.44 503.45 62.21 C503.45 64.13 503.46 66.05 503.47 67.98 C503.49 73.25 503.48 78.51 503.46 83.78 C503.46 89.47 503.47 95.16 503.48 100.84 C503.5 111.98 503.49 123.11 503.48 134.25 C503.47 143.3 503.47 152.35 503.48 161.4 C503.48 162.69 503.48 163.98 503.48 165.3 C503.48 167.92 503.48 170.54 503.48 173.16 C503.49 197 503.48 220.84 503.46 244.69 C503.44 266.44 503.44 288.19 503.46 309.95 C503.48 334.4 503.49 358.86 503.48 383.31 C503.48 385.92 503.48 388.53 503.48 391.14 C503.48 392.42 503.48 393.7 503.48 395.02 C503.47 404.06 503.48 413.1 503.49 422.14 C503.5 433.16 503.5 444.17 503.47 455.19 C503.46 460.81 503.46 466.43 503.47 472.05 C503.48 477.19 503.48 482.34 503.46 487.49 C503.45 489.35 503.45 491.21 503.46 493.07 C503.54 507.93 501.33 518.31 491.94 530.27 C491.41 530.98 490.87 531.69 490.32 532.42 C481.87 542.96 468.43 549.51 455.13 551.07 C451.6 551.39 448.09 551.41 444.55 551.4 C443.74 551.4 442.93 551.41 442.09 551.41 C439.38 551.42 436.67 551.42 433.97 551.41 C432 551.42 430.04 551.42 428.07 551.43 C422.68 551.44 417.29 551.44 411.89 551.44 C406.07 551.45 400.25 551.46 394.43 551.46 C380.39 551.48 366.34 551.49 352.29 551.5 C345.67 551.51 339.06 551.51 332.44 551.52 C310.44 551.54 288.43 551.55 266.43 551.56 C265.01 551.56 263.59 551.56 262.17 551.56 C261.46 551.56 260.75 551.56 260.03 551.56 C256.46 551.56 252.88 551.56 249.31 551.56 C248.6 551.56 247.89 551.56 247.16 551.56 C224.18 551.57 201.19 551.59 178.21 551.63 C153.89 551.66 129.58 551.68 105.26 551.68 C92.01 551.69 78.76 551.7 65.52 551.72 C54.23 551.74 42.95 551.75 31.67 551.74 C25.92 551.74 20.16 551.74 14.41 551.76 C9.14 551.78 3.87 551.77 -1.41 551.76 C-3.31 551.76 -5.21 551.76 -7.11 551.77 C-26.23 551.88 -42.44 548.3 -56.77 534.67 C-67.95 522.91 -72.23 509.25 -72.19 493.26 C-72.19 492.88 -72.19 492.88 -72.2 490.93 C-72.2 488.37 -72.2 485.8 -72.2 483.23 C-72.2 481.37 -72.2 479.51 -72.21 477.65 C-72.22 472.54 -72.22 467.43 -72.22 462.32 C-72.22 456.8 -72.23 451.29 -72.23 445.77 C-72.25 433.72 -72.25 421.67 -72.26 409.61 C-72.26 402.08 -72.27 394.56 -72.27 387.03 C-72.28 366.18 -72.29 345.33 -72.3 324.48 C-72.3 323.14 -72.3 321.79 -72.3 320.44 C-72.3 319.09 -72.3 317.74 -72.3 316.39 C-72.3 313.68 -72.3 310.97 -72.3 308.26 C-72.3 307.93 -72.3 307.93 -72.3 306.23 C-72.3 284.45 -72.32 262.67 -72.34 240.89 C-72.37 217.85 -72.38 194.81 -72.38 171.77 C-72.38 159.21 -72.39 146.66 -72.41 134.11 C-72.42 123.42 -72.43 112.73 -72.42 102.04 C-72.41 96.59 -72.42 91.13 -72.43 85.68 C-72.44 80.69 -72.44 75.69 -72.43 70.7 C-72.43 68.89 -72.43 67.09 -72.44 65.29 C-72.53 45.41 -68.85 30.57 -54.73 15.74 C-39.11 1.25 -20.18 -0.04 0 0 Z M-57.36 22.91 C-64.6 32.44 -69.22 41.89 -69.19 53.89 C-69.19 54.67 -69.2 55.45 -69.2 56.25 C-69.21 58.86 -69.21 61.48 -69.21 64.09 C-69.21 65.98 -69.21 67.87 -69.22 69.76 C-69.23 74.96 -69.23 80.16 -69.23 85.36 C-69.24 90.97 -69.25 96.57 -69.26 102.18 C-69.27 115.72 -69.28 129.26 -69.29 142.8 C-69.3 149.18 -69.3 155.56 -69.31 161.93 C-69.33 183.13 -69.34 204.32 -69.35 225.51 C-69.35 226.88 -69.35 228.25 -69.35 229.62 C-69.35 230.3 -69.35 230.98 -69.35 231.68 C-69.35 235.13 -69.35 238.57 -69.35 242.02 C-69.35 242.7 -69.35 243.38 -69.35 244.09 C-69.36 266.24 -69.39 288.39 -69.42 310.54 C-69.45 333.97 -69.47 357.39 -69.48 380.81 C-69.48 393.58 -69.49 406.35 -69.51 419.12 C-69.53 429.99 -69.54 440.86 -69.53 451.74 C-69.53 457.28 -69.53 462.83 -69.55 468.38 C-69.57 473.46 -69.57 478.54 -69.55 483.62 C-69.55 485.46 -69.55 487.29 -69.56 489.12 C-69.67 506.81 -65.88 520.72 -53.51 533.91 C-38.35 548.49 -20.89 549.57 -0.97 549.52 C0.97 549.52 2.91 549.53 4.85 549.53 C10.16 549.54 15.47 549.54 20.78 549.53 C26.51 549.52 32.25 549.53 37.98 549.54 C49.21 549.55 60.44 549.54 71.67 549.54 C80.79 549.53 89.92 549.53 99.04 549.54 C100.34 549.54 101.64 549.54 102.98 549.54 C105.62 549.54 108.26 549.54 110.9 549.54 C134.95 549.54 158.99 549.54 183.03 549.53 C204.97 549.52 226.9 549.52 248.84 549.53 C273.5 549.54 298.15 549.54 322.81 549.54 C325.45 549.54 328.08 549.54 330.71 549.54 C332 549.53 333.29 549.53 334.63 549.53 C343.74 549.53 352.85 549.54 361.97 549.54 C373.08 549.55 384.19 549.54 395.29 549.53 C400.96 549.53 406.63 549.53 412.29 549.53 C417.48 549.54 422.67 549.54 427.86 549.52 C429.74 549.52 431.61 549.52 433.49 549.53 C446.58 549.56 459.11 549.58 470.94 543.27 C471.73 542.87 472.52 542.47 473.33 542.06 C485.04 535.67 492.9 526.52 497.94 514.27 C498.12 513.86 498.12 513.86 499.03 511.79 C500.96 506.44 501.09 501.07 501.08 495.44 C501.08 494.67 501.08 493.89 501.08 493.1 C501.09 490.5 501.09 487.91 501.09 485.32 C501.09 483.44 501.1 481.56 501.1 479.68 C501.11 474.52 501.11 469.36 501.12 464.2 C501.12 458.63 501.13 453.06 501.14 447.5 C501.16 434.05 501.17 420.61 501.18 407.16 C501.18 400.83 501.19 394.5 501.19 388.17 C501.21 367.12 501.22 346.08 501.23 325.03 C501.23 323.67 501.23 322.31 501.23 320.95 C501.23 320.27 501.23 319.6 501.23 318.9 C501.23 315.49 501.24 312.07 501.24 308.65 C501.24 308.31 501.24 308.31 501.24 306.59 C501.25 284.6 501.27 262.61 501.3 240.62 C501.34 217.35 501.36 194.09 501.36 170.83 C501.36 158.16 501.37 145.48 501.4 132.8 C501.42 122.01 501.43 111.21 501.42 100.42 C501.41 94.91 501.41 89.41 501.43 83.9 C501.45 78.86 501.45 73.81 501.43 68.77 C501.43 66.95 501.44 65.12 501.45 63.3 C501.54 48.85 499.41 37.4 490.94 25.27 C490.46 24.58 489.99 23.89 489.49 23.19 C480.6 11.83 465.84 4.77 451.66 2.98 C445.8 2.54 439.94 2.6 434.07 2.65 C432.11 2.64 430.14 2.64 428.18 2.63 C422.83 2.61 417.47 2.62 412.12 2.64 C406.33 2.66 400.54 2.65 394.75 2.64 C383.42 2.62 372.09 2.63 360.77 2.65 C348.23 2.68 335.7 2.68 323.17 2.67 C298.24 2.67 273.31 2.69 248.37 2.73 C226.24 2.76 204.12 2.77 181.99 2.77 C180.56 2.77 179.14 2.77 177.72 2.77 C177.37 2.77 177.37 2.77 175.59 2.76 C172.05 2.76 168.52 2.76 164.98 2.76 C164.63 2.76 164.63 2.76 162.86 2.76 C144.34 2.76 125.82 2.77 107.3 2.78 C105.99 2.78 104.67 2.78 103.31 2.78 C100.67 2.79 98.02 2.79 95.38 2.79 C86.19 2.8 76.99 2.8 67.8 2.8 C56.59 2.8 45.38 2.81 34.17 2.83 C28.46 2.84 22.74 2.85 17.03 2.84 C11.79 2.84 6.56 2.85 1.32 2.87 C-0.57 2.87 -2.46 2.87 -4.35 2.86 C-25.25 2.81 -42.98 6.38 -57.36 22.91 Z " fill="#6AA0DD" transform="translate(109.05815124511719,38.732574462890625)"/>
<path d="M0 0 C0.33 0 0.66 0 1 0 C1 0.95 1 1.89 1 2.87 C1.04 58.98 1.09 115.1 1.18 171.22 C1.19 177.96 1.2 184.7 1.21 191.44 C1.21 191.77 1.21 191.77 1.21 193.47 C1.24 215.19 1.26 236.91 1.27 258.63 C1.28 281.6 1.31 304.56 1.35 327.52 C1.38 341.27 1.39 355.02 1.39 368.77 C1.39 378.21 1.41 387.64 1.43 397.07 C1.45 402.51 1.46 407.95 1.45 413.39 C1.44 418.38 1.45 423.37 1.47 428.36 C1.48 430.15 1.48 431.95 1.47 433.75 C1.39 452.81 4.93 469.41 18.53 483.71 C29.78 494.13 43.94 498.17 59.04 498.13 C59.44 498.13 59.44 498.13 61.46 498.13 C64.13 498.14 66.81 498.14 69.48 498.13 C71.42 498.14 73.35 498.14 75.29 498.14 C80.61 498.15 85.93 498.15 91.26 498.15 C96.99 498.15 102.73 498.15 108.47 498.16 C119.72 498.16 130.96 498.17 142.21 498.17 C151.35 498.17 160.49 498.17 169.63 498.17 C191.32 498.18 213.02 498.19 234.71 498.19 C235.41 498.19 236.1 498.19 236.81 498.19 C240.33 498.19 243.85 498.19 247.36 498.19 C248.06 498.19 248.76 498.19 249.48 498.19 C250.89 498.19 252.31 498.19 253.72 498.19 C275.69 498.18 297.65 498.19 319.62 498.21 C344.3 498.22 368.99 498.23 393.67 498.23 C406.74 498.23 419.8 498.23 432.87 498.24 C444 498.25 455.13 498.25 466.25 498.25 C471.93 498.24 477.61 498.24 483.28 498.25 C488.48 498.26 493.68 498.26 498.88 498.25 C500.76 498.25 502.64 498.25 504.52 498.26 C517.61 498.29 530.17 498.32 542 492 C542.8 491.59 543.6 491.18 544.43 490.76 C555.84 484.47 563 475.95 568 464 C568.33 463.21 568.66 462.43 569 461.62 C572.86 451.5 572.29 440.55 572.28 429.9 C572.28 428.06 572.29 426.23 572.3 424.4 C572.31 419.38 572.32 414.37 572.32 409.36 C572.32 403.94 572.34 398.52 572.35 393.11 C572.37 383.73 572.39 374.36 572.4 364.98 C572.41 351.42 572.44 337.87 572.46 324.31 C572.51 302.32 572.55 280.32 572.58 258.33 C572.61 236.96 572.64 215.6 572.68 194.24 C572.69 192.92 572.69 191.6 572.69 190.25 C572.7 183.64 572.71 177.03 572.73 170.42 C572.83 115.61 572.92 60.81 573 6 C573.33 6 573.66 6 574 6 C574.09 63.52 574.16 121.04 574.2 178.57 C574.21 185.36 574.21 192.15 574.22 198.94 C574.22 199.61 574.22 200.29 574.22 200.99 C574.24 222.88 574.27 244.77 574.31 266.67 C574.34 289.81 574.37 312.95 574.38 336.09 C574.38 349.95 574.4 363.81 574.43 377.68 C574.45 387.18 574.46 396.68 574.45 406.19 C574.45 411.67 574.46 417.15 574.48 422.64 C574.5 427.66 574.5 432.68 574.48 437.71 C574.48 439.52 574.49 441.34 574.5 443.15 C574.6 457.88 572.29 468.16 563 480 C562.47 480.71 561.93 481.42 561.38 482.16 C552.93 492.7 539.49 499.24 526.18 500.8 C522.66 501.12 519.15 501.14 515.61 501.13 C514.79 501.14 513.98 501.14 513.15 501.14 C510.44 501.15 507.73 501.15 505.02 501.15 C503.06 501.15 501.09 501.15 499.13 501.16 C493.74 501.17 488.34 501.17 482.95 501.17 C477.13 501.18 471.31 501.19 465.49 501.2 C451.45 501.22 437.4 501.23 423.35 501.24 C416.73 501.24 410.11 501.25 403.5 501.25 C381.49 501.27 359.49 501.28 337.49 501.29 C336.07 501.29 334.65 501.29 333.22 501.29 C332.87 501.29 332.87 501.29 331.09 501.29 C327.51 501.29 323.94 501.29 320.37 501.3 C319.66 501.3 318.95 501.3 318.22 501.3 C295.24 501.3 272.25 501.33 249.27 501.36 C224.95 501.39 200.64 501.41 176.32 501.42 C163.07 501.42 149.82 501.43 136.57 501.45 C125.29 501.48 114.01 501.48 102.73 501.47 C96.98 501.47 91.22 501.47 85.47 501.49 C80.2 501.51 74.92 501.51 69.65 501.49 C67.75 501.49 65.85 501.49 63.95 501.51 C44.83 501.62 28.62 498.03 14.29 484.41 C3.16 472.69 -1.18 459.05 -1.13 443.12 C-1.13 442.36 -1.13 441.61 -1.13 440.83 C-1.13 438.31 -1.13 435.79 -1.13 433.27 C-1.13 431.45 -1.13 429.62 -1.13 427.79 C-1.14 422.77 -1.13 417.75 -1.13 412.74 C-1.13 407.32 -1.13 401.91 -1.13 396.49 C-1.14 385.89 -1.14 375.29 -1.14 364.69 C-1.13 356.07 -1.13 347.45 -1.13 338.84 C-1.13 337.61 -1.13 336.38 -1.13 335.12 C-1.13 332.63 -1.13 330.14 -1.14 327.65 C-1.14 304.29 -1.13 280.93 -1.13 257.57 C-1.12 237.53 -1.13 217.48 -1.13 197.43 C-1.14 174.16 -1.14 150.88 -1.13 127.61 C-1.13 125.13 -1.13 122.65 -1.13 120.16 C-1.13 118.94 -1.13 117.72 -1.13 116.46 C-1.13 107.86 -1.13 99.25 -1.14 90.64 C-1.14 80.15 -1.14 69.67 -1.13 59.18 C-1.13 53.83 -1.13 48.48 -1.13 43.12 C-1.14 38.22 -1.13 33.33 -1.13 28.43 C-1.13 26.65 -1.13 24.88 -1.13 23.11 C-1.13 20.7 -1.13 18.29 -1.13 15.88 C-1.13 15.19 -1.13 14.51 -1.13 13.8 C-1.11 9.11 -0.65 4.63 0 0 Z " fill="#3D69B6" transform="translate(38,89)"/>
<path d="M0 0 C0.33 0 0.66 0 1 0 C1 147.84 1 295.68 1 448 C-1.54 442.91 -2.13 439.01 -2.06 433.38 C-2.05 432.43 -2.04 431.49 -2.04 430.52 C-2.02 429.69 -2.01 428.86 -2 428 C-2 424.68 -2 421.37 -2.01 418.05 C-2.01 416.56 -2.01 415.07 -2.01 413.58 C-2.01 412.78 -2.01 411.98 -2.01 411.16 C-2.05 361.98 -2.08 312.8 -2.1 263.62 C-2.1 257.29 -2.11 250.97 -2.11 244.64 C-2.11 243.38 -2.11 242.12 -2.11 240.82 C-2.12 220.4 -2.14 199.97 -2.15 179.55 C-2.17 158.6 -2.18 137.64 -2.19 116.69 C-2.19 103.76 -2.2 90.82 -2.22 77.89 C-2.23 69.03 -2.23 60.18 -2.23 51.32 C-2.23 46.2 -2.23 41.09 -2.24 35.97 C-2.25 31.29 -2.25 26.61 -2.24 21.94 C-2.24 20.24 -2.24 18.54 -2.25 16.84 C-2.26 14.55 -2.25 12.25 -2.25 9.95 C-2.25 8.67 -2.25 7.39 -2.25 6.08 C-2 3 -2 3 0 0 Z " fill="#164090" transform="translate(647,97)"/>
<path d="M0 0 C1.22 0 2.44 0 3.7 0 C5.01 0.02 6.33 0.04 7.68 0.06 C9.04 0.07 10.4 0.08 11.77 0.08 C15.34 0.1 18.92 0.14 22.5 0.18 C26.15 0.22 29.8 0.24 33.46 0.26 C40.62 0.3 47.78 0.37 54.95 0.45 C54.95 1.11 54.95 1.77 54.95 2.45 C56.27 3.11 57.59 3.77 58.95 4.45 C59.33 8.41 59.4 10.73 57.27 14.15 C52.82 18.25 46.12 17.16 40.47 17.12 C39.16 17.12 37.84 17.13 36.49 17.13 C33.71 17.14 30.93 17.13 28.15 17.11 C24.6 17.08 21.04 17.09 17.48 17.12 C14.09 17.15 10.69 17.13 7.29 17.12 C6.01 17.13 4.73 17.14 3.42 17.15 C2.23 17.13 1.05 17.12 -0.17 17.1 C-1.21 17.1 -2.26 17.09 -3.33 17.09 C-6.05 16.45 -6.05 16.45 -8.39 14.14 C-10.57 10.62 -10.65 8.52 -10.05 4.45 C-7.04 0.46 -4.9 -0.04 0 0 Z " fill="#5898CC" transform="translate(79.0537109375,220.5458984375)"/>
<path d="M0 0 C1.18 -0.02 2.37 -0.03 3.59 -0.05 C4.87 -0.04 6.14 -0.04 7.46 -0.03 C8.11 -0.04 8.11 -0.04 11.44 -0.05 C14.22 -0.06 17 -0.06 19.78 -0.04 C23.34 -0.03 26.89 -0.05 30.44 -0.08 C33.84 -0.11 37.24 -0.1 40.64 -0.1 C41.92 -0.11 43.19 -0.12 44.51 -0.14 C54.32 -0.03 54.32 -0.03 57.42 2.89 C59.53 6.18 59.92 7.7 59.12 11.53 C57.47 14.11 56.73 15.1 54.12 16.53 C49.63 17.3 45.19 17.23 40.64 17.2 C39.33 17.2 38.01 17.21 36.66 17.21 C33.88 17.22 31.1 17.21 28.33 17.19 C24.77 17.16 21.21 17.17 17.66 17.2 C14.26 17.23 10.86 17.21 7.46 17.2 C6.18 17.21 4.91 17.22 3.59 17.23 C2.41 17.21 1.22 17.2 0 17.18 C-1.04 17.18 -2.08 17.17 -3.16 17.17 C-5.88 16.53 -5.88 16.53 -8.22 14.22 C-10.4 10.7 -10.47 8.6 -9.88 4.53 C-6.91 0.63 -4.82 0.03 0 0 Z " fill="#5898CC" transform="translate(78.882568359375,120.466552734375)"/>
<path d="M0 0 C1.23 -0.01 2.46 -0.02 3.72 -0.03 C5.06 -0.02 6.4 -0.02 7.75 -0.01 C9.12 -0.01 10.5 -0.02 11.87 -0.02 C14.76 -0.02 17.64 -0.02 20.53 -0 C24.22 0.01 27.91 0 31.61 -0.01 C34.45 -0.02 37.29 -0.02 40.13 -0.01 C41.5 -0.01 42.86 -0.01 44.22 -0.02 C46.12 -0.03 48.03 -0.01 49.93 0 C50.48 0 50.48 0 53.22 0.01 C56.4 0.44 57.79 1.1 60.03 3.39 C60.71 7.47 60.56 9.55 58.34 13.08 C53.9 17.19 47.2 16.08 41.56 16.02 C40.24 16.02 38.93 16.02 37.57 16.02 C34.8 16.03 32.02 16.01 29.24 15.99 C25.68 15.95 22.13 15.96 18.57 15.98 C15.17 15.99 11.77 15.97 8.37 15.95 C7.1 15.96 5.82 15.96 4.5 15.97 C3.91 15.96 3.91 15.96 0.91 15.92 C-0.13 15.92 -1.17 15.91 -2.24 15.9 C-5.65 15.26 -6.84 14.07 -8.97 11.39 C-9.68 8.48 -9.31 6.45 -8.97 3.39 C-6.58 -0.17 -4.08 0.01 0 0 Z " fill="#03C3B3" transform="translate(77.968505859375,171.61181640625)"/>
<path d="M0 0 C151.8 0 303.6 0 460 0 C460 0.33 460 0.66 460 1 C451.19 2.24 442.37 2.23 433.48 2.31 C431.69 2.33 429.89 2.35 428.1 2.37 C423.17 2.43 418.25 2.48 413.32 2.52 C410.17 2.55 407.01 2.59 403.86 2.62 C350.89 3.14 297.91 3.15 244.94 3.13 C234.86 3.12 224.79 3.13 214.71 3.13 C112.07 3.18 112.07 3.18 64.32 2.55 C63.55 2.54 62.77 2.54 61.98 2.52 C41.31 2.26 20.66 1.74 0 1 C0 0.67 0 0.34 0 0 Z " fill="#4F72B5" transform="translate(94,0)"/>
<path d="M0 0 C0.33 0 0.66 0 1 0 C2.99 11.12 3.28 21.85 3.24 33.11 C3.24 35.01 3.24 36.92 3.25 38.83 C3.25 44.03 3.24 49.23 3.23 54.43 C3.22 60.05 3.23 65.67 3.23 71.3 C3.23 81.03 3.22 90.76 3.21 100.49 C3.2 114.55 3.19 128.62 3.19 142.69 C3.18 165.51 3.17 188.34 3.15 211.16 C3.13 233.33 3.12 255.5 3.11 277.66 C3.11 278.35 3.11 279.03 3.11 279.74 C3.11 286.6 3.1 293.47 3.1 300.34 C3.08 357.89 3.05 415.45 3 473 C2.67 473 2.34 473 2 473 C2 472.04 2 471.09 2 470.1 C1.92 413.43 1.82 356.75 1.72 300.08 C1.71 293.28 1.69 286.48 1.68 279.68 C1.68 279.34 1.68 279.34 1.68 277.63 C1.64 255.68 1.61 233.74 1.58 211.8 C1.54 188.61 1.5 165.43 1.46 142.25 C1.43 128.36 1.41 114.46 1.39 100.57 C1.38 91.05 1.36 81.54 1.34 72.02 C1.33 66.52 1.32 61.02 1.32 55.53 C1.31 50.5 1.3 45.47 1.29 40.45 C1.28 38.62 1.28 36.8 1.28 34.98 C1.28 32.51 1.27 30.04 1.26 27.57 C1.26 27.21 1.26 27.21 1.27 25.4 C1.24 21.7 0.85 19.2 -1 16 C-1.32 10.64 -1.32 10.64 0 8 C0.07 6.63 0.08 5.25 0.06 3.88 C0.04 2.6 0.02 1.32 0 0 Z " fill="#70A8E5" transform="translate(646,78)"/>
<path d="M0 0 C4.69 3.93 9.24 8 13.75 12.12 C14.32 12.64 14.88 13.15 15.47 13.68 C16.01 14.18 16.55 14.68 17.11 15.2 C17.59 15.64 18.08 16.08 18.58 16.54 C20.24 18.24 21.61 20.08 23 22 C22.43 22 22.43 22 19.56 22.03 C15.35 22.07 11.14 22.13 6.93 22.21 C5.11 22.24 3.28 22.26 1.46 22.27 C-1.16 22.29 -3.78 22.34 -6.39 22.39 C-7.21 22.39 -8.03 22.39 -8.87 22.39 C-14.48 22.54 -14.48 22.54 -17.05 24.81 C-18.5 28.15 -17.9 30.54 -17 34 C-13.19 36.54 -10.03 36.35 -5.61 36.41 C-5.2 36.42 -5.2 36.42 -3.14 36.47 C-0.53 36.53 2.08 36.58 4.69 36.62 C6.46 36.66 8.23 36.7 9.99 36.74 C14.33 36.84 18.66 36.92 23 37 C18.93 41.89 14.66 46.47 10.12 50.94 C9.53 51.53 8.94 52.11 8.33 52.72 C6.89 54.15 5.44 55.58 4 57 C3.34 55.68 2.68 54.36 2 53 C2.66 53 3.32 53 4 53 C4.33 52.01 4.66 51.02 5 50 C6.65 48.97 8.32 47.97 10 47 C10.33 46.34 10.66 45.68 11 45 C11.66 45 12.32 45 13 45 C13.66 43.02 14.32 41.04 15 39 C14.5 39.16 13.99 39.32 13.48 39.49 C7.51 40.72 1.08 40.13 -5 40 C-6.02 39.98 -7.04 39.97 -8.1 39.95 C-12.57 39.71 -14.46 39.43 -18.06 36.56 C-20.77 32.98 -21.12 31.3 -21.06 26.88 C-21.05 25.96 -21.04 25.05 -21.04 24.12 C-21.02 23.42 -21.01 22.72 -21 22 C-9.86 16.31 4.96 18.83 17 20 C16.22 19.26 15.43 18.52 14.62 17.75 C12.43 15.46 11.17 13.88 10 11 C9.34 11 8.68 11 8 11 C7.67 10.34 7.34 9.68 7 9 C6.2 8.59 5.39 8.17 4.56 7.75 C1.33 5.54 0.91 3.72 0 0 Z " fill="#1F2941" fill-opacity="0" transform="translate(466,109)"/>
<path d="M0 0 C2.53 3.79 2.57 6.62 2 11 C-0.02 19.11 -3.88 25.48 -9 32 C-9.53 32.71 -10.07 33.42 -10.62 34.16 C-18.57 44.07 -31.18 50.75 -43.71 52.53 C-46.82 52.77 -49.89 52.94 -53 53 C-53 52.34 -53 51.68 -53 51 C-51.74 50.73 -50.48 50.46 -49.19 50.19 C-48.36 50 -47.53 49.81 -46.68 49.61 C-44.93 49.21 -43.17 48.83 -41.41 48.48 C-28.89 45.63 -17.95 38.02 -10 28 C-7.67 24.12 -5.75 20.17 -4 16 C-3.64 15.18 -3.28 14.36 -2.91 13.51 C-1.91 10.74 -1.36 8.09 -0.88 5.19 C-0.71 4.21 -0.54 3.24 -0.37 2.23 C-0.31 1.86 -0.31 1.86 0 0 Z " fill="#70A8E5" transform="translate(610,537)"/>
<path d="M0 0 C1.11 0.95 2.23 1.89 3.34 2.84 C3.96 3.37 4.58 3.9 5.22 4.44 C7.57 6.5 9.76 8.7 11.94 10.94 C15.62 14.67 19.38 18.17 23.41 21.53 C25 23 25 23 27 26 C23.04 26 21.85 24.59 18.81 22.12 C17.91 21.41 17.01 20.69 16.08 19.95 C15.39 19.3 14.71 18.66 14 18 C14 17.34 14 16.68 14 16 C12.35 16 10.7 16 9 16 C8.9 15.22 8.79 14.43 8.69 13.62 C8 11 8 11 5 9 C5 8.34 5 7.68 5 7 C3 9 3 9 2.84 11.9 C2.87 13.12 2.91 14.33 2.95 15.58 C2.97 16.92 3 18.26 3.02 19.6 C3.07 21.7 3.12 23.81 3.19 25.92 C3.25 27.95 3.29 29.98 3.32 32.02 C3.35 33.24 3.39 34.46 3.42 35.71 C2.92 39.6 1.68 41.21 -1 44 C-2.32 43.67 -3.64 43.34 -5 43 C-4.34 43 -3.68 43 -3 43 C-0.3 39 -0.65 34.72 -0.59 30.08 C-0.57 29.22 -0.55 28.36 -0.53 27.47 C-0.47 24.73 -0.42 21.99 -0.38 19.25 C-0.34 17.39 -0.3 15.53 -0.26 13.67 C-0.16 9.11 -0.08 4.56 0 0 Z " fill="#252D45" fill-opacity="0" transform="translate(516,156)"/>
<path d="M0 0 C13.31 3.33 24.57 11.96 32.17 23.25 C37.95 33.15 39.89 41.33 39.23 52.81 C37.21 49.27 36.41 45.69 35.48 41.75 C31.58 26.36 23.4 15.95 9.9 7.8 C4.96 4.99 -0.28 3.25 -5.77 1.81 C-2.77 -0.19 -2.77 -0.19 0 0 Z " fill="#70A8E5" transform="translate(572.76953125,42.19140625)"/>
<path d="M0 0 C0.33 0 0.66 0 1 0 C1.58 8.76 1.02 16.36 -1.38 24.81 C-1.49 25.2 -1.49 25.2 -2.05 27.18 C-3.71 32.71 -3.71 32.71 -6 35 C-6 34.34 -6 33.68 -6 33 C-6.66 33 -7.32 33 -8 33 C-8.66 32.01 -9.32 31.02 -10 30 C-13 31 -13 31 -14.19 33.06 C-14.46 33.7 -14.72 34.34 -15 35 C-15.16 34.5 -15.16 34.5 -16 32 C-15.34 32 -14.68 32 -14 32 C-14 31.34 -14 30.68 -14 30 C-13.55 29.57 -13.09 29.15 -12.62 28.71 C-10.55 26.52 -9.94 24.48 -9 21.62 C-7.71 17.73 -6.16 14.49 -4 11 C-3.31 8.69 -3.31 8.69 -3 7 C-2.34 7 -1.68 7 -1 7 C-0.67 4.69 -0.34 2.38 0 0 Z " fill="#214389" transform="translate(646,551)"/>
<path d="M0 0 C1.86 2.79 2.72 4.91 3.75 8.06 C8.69 21.86 16.98 31.27 30 38 C35.31 40.03 40.62 41.63 46.24 42.5 C49.27 43.05 50.72 43.98 53 46 C40.16 47.03 27.4 41.67 17.34 33.96 C9.81 27.54 2.92 19.62 0 10 C-0.22 6.65 -0.18 3.35 0 0 Z " fill="#70A8E5" transform="translate(40,544)"/>
<path d="M0 0 C0.01 1.2 0.03 2.39 0.04 3.62 C0.1 8.06 0.18 12.49 0.26 16.93 C0.3 18.84 0.32 20.76 0.35 22.68 C0.38 25.44 0.43 28.2 0.49 30.96 C0.49 31.82 0.5 32.68 0.51 33.56 C0.52 33.96 0.52 33.96 0.57 35.99 C0.58 36.69 0.59 37.4 0.6 38.12 C1.12 40.57 2.05 41.47 4 43 C6.69 43.69 6.69 43.69 9 44 C5.91 45.76 4.77 46 1 46 C1 45.34 1 44.68 1 44 C0.34 44 -0.32 44 -1 44 C-1 42.68 -1 41.36 -1 40 C-1.66 40 -2.32 40 -3 40 C-3 29.44 -3 18.88 -3 8 C-7 10 -7 10 -7.94 11.94 C-9.38 14.74 -11.3 15.43 -14 17 C-15.7 18.63 -17.38 20.29 -19 22 C-19.99 21.34 -20.98 20.68 -22 20 C-21.24 19.31 -20.48 18.62 -19.69 17.91 C-13.86 12.61 -8.14 7.24 -2.64 1.58 C-1 0 -1 0 0 0 Z " fill="#353644" fill-opacity="0" transform="translate(501,156)"/>
<path d="M0 0 C0.33 0 0.66 0 1 0 C3.78 13.61 3.25 27.36 3.2 41.18 C3.19 43.81 3.19 46.43 3.19 49.06 C3.18 55.23 3.16 61.39 3.14 67.56 C3.12 74.6 3.11 81.63 3.1 88.66 C3.08 103.11 3.04 117.55 3 132 C2.67 132 2.34 132 2 132 C2 131.43 1.99 130.85 1.99 130.26 C1.91 116.31 1.82 102.35 1.71 88.4 C1.66 81.65 1.62 74.9 1.58 68.15 C1.54 61.64 1.49 55.13 1.44 48.62 C1.42 46.14 1.41 43.65 1.4 41.16 C1.38 37.69 1.35 34.21 1.32 30.74 C1.32 29.7 1.31 28.67 1.31 27.61 C1.3 26.66 1.29 25.71 1.28 24.73 C1.27 23.91 1.27 23.09 1.26 22.24 C0.97 19.77 0.15 18.19 -1 16 C-1.32 10.64 -1.32 10.64 0 8 C0.07 6.63 0.08 5.25 0.06 3.88 C0.04 2.6 0.02 1.32 0 0 Z " fill="#70A8E5" transform="translate(646,78)"/>
<path d="M0 0 C0.99 0 1.98 0 3 0 C5.19 27.61 5.19 27.61 3 32 C3.99 32 4.98 32 6 32 C6 31.34 6 30.68 6 30 C6.66 30 7.32 30 8 30 C8 28.68 8 27.36 8 26 C11.07 25.09 13.8 24.91 17 25 C12.61 31.04 6.94 35.55 1 40 C0.67 26.8 0.34 13.6 0 0 Z " fill="#222B43" fill-opacity="0" transform="translate(515,81)"/>
<path d="M0 0 C0.16 0.33 0.16 0.33 1 2 C0.1 3.95 0.1 3.95 -2 6 C-5.17 6.68 -8.33 6.7 -11.56 6.75 C-12.42 6.78 -13.28 6.81 -14.16 6.84 C-20.1 7.03 -26.05 7.03 -32 7 C-30.48 10.37 -29.48 11.61 -26 13 C-26 13.99 -26 14.98 -26 16 C-24.68 16.66 -23.36 17.32 -22 18 C-22.33 18.99 -22.66 19.98 -23 21 C-28.29 16.59 -33.18 11.92 -38 7 C-39 6 -40 5 -41 4 C-39.86 3.99 -38.73 3.97 -37.56 3.96 C-33.35 3.9 -29.14 3.82 -24.93 3.74 C-23.11 3.7 -21.28 3.68 -19.46 3.65 C-16.84 3.62 -14.22 3.57 -11.61 3.51 C-11.2 3.51 -11.2 3.51 -9.13 3.49 C-3.39 3.34 -3.39 3.34 -1.26 1.47 C-0.84 0.99 -0.43 0.5 0 0 Z " fill="#242C43" fill-opacity="0" transform="translate(568,142)"/>
<path d="M0 0 C0 0.99 0 1.98 0 3 C-0.76 3.01 -1.52 3.02 -2.3 3.02 C-9.43 3.1 -16.57 3.19 -23.7 3.29 C-27.37 3.34 -31.04 3.38 -34.71 3.42 C-38.25 3.46 -41.79 3.51 -45.33 3.56 C-47.34 3.59 -49.35 3.6 -51.36 3.62 C-52.58 3.64 -53.8 3.66 -55.06 3.68 C-56.14 3.69 -57.21 3.71 -58.32 3.72 C-61 4 -61 4 -64 6 C-64.33 5.01 -64.66 4.02 -65 3 C-61.86 0.23 -59.86 -0.39 -55.7 -0.45 C-55.17 -0.46 -55.17 -0.46 -52.49 -0.52 C-51.35 -0.53 -50.22 -0.54 -49.04 -0.55 C-48.45 -0.56 -48.45 -0.56 -45.48 -0.61 C-42.99 -0.65 -40.5 -0.68 -38.01 -0.71 C-34.21 -0.75 -30.41 -0.81 -26.62 -0.88 C-24.2 -0.92 -21.78 -0.95 -19.36 -0.98 C-18.22 -1 -17.09 -1.02 -15.92 -1.04 C-10.49 -1.09 -5.34 -0.98 0 0 Z " fill="#1D4654" fill-opacity="0" transform="translate(133,169)"/>
<path d="M0 0 C0.33 1.32 0.66 2.64 1 4 C1.66 4 2.32 4 3 4 C4.13 6.56 5.25 9.12 6.38 11.69 C6.69 12.41 7.01 13.13 7.34 13.87 C8.95 17.56 10.54 21.25 12 25 C10.68 24.67 9.36 24.34 8 24 C7.88 28.75 7.88 28.75 9 31 C8.34 31.66 7.68 32.32 7 33 C1.46 20.21 1.46 20.21 1.96 12.93 C2.02 10.06 0.97 7.67 0 5 C-0.12 2.12 -0.12 2.12 0 0 Z " fill="#173A82" transform="translate(3,556)"/>
<path d="M0 0 C0.66 0.33 1.32 0.66 2 1 C2 14.2 2 27.4 2 41 C-5 35 -5 35 -7 32 C-5.02 32.33 -3.04 32.66 -1 33 C-1.01 32.18 -1.01 31.36 -1.02 30.51 C-1.04 26.78 -1.05 23.04 -1.06 19.31 C-1.07 18.02 -1.08 16.73 -1.09 15.39 C-1.09 14.15 -1.09 12.9 -1.1 11.61 C-1.1 10.47 -1.11 9.32 -1.11 8.14 C-1.01 5.3 -0.65 2.76 0 0 Z " fill="#37343E" fill-opacity="0" transform="translate(499,81)"/>
<path d="M0 0 C0.66 0.33 1.32 0.66 2 1 C0.61 5.04 -1.34 7.69 -4 11 C-7.7 16.47 -11.24 22 -14 28 C-14.99 28 -15.98 28 -17 28 C-15.62 23.38 -13.71 19.29 -11.31 15.12 C-11.14 14.82 -11.14 14.82 -10.26 13.28 C-7.36 8.35 -4.03 4.06 0 0 Z " fill="#70A8E5" transform="translate(26,32)"/>
<path d="M0 0 C3.96 0 7.92 0 12 0 C6.17 7.16 -0.44 13.53 -7 20 C-7.66 18.68 -8.32 17.36 -9 16 C-8.34 16 -7.68 16 -7 16 C-6.67 15.01 -6.34 14.02 -6 13 C-4.35 11.97 -2.68 10.97 -1 10 C-0.67 9.34 -0.34 8.68 0 8 C0.66 8 1.32 8 2 8 C2.66 6.02 3.32 4.04 4 2 C2.68 1.34 1.36 0.68 0 0 Z " fill="#2D3247" fill-opacity="0" transform="translate(477,146)"/>
<path d="M0 0 C0.67 2.67 1.33 5.33 2 8 C1.67 8.16 1.67 8.16 0 9 C0 26.82 0 44.64 0 63 C-0.33 63 -0.66 63 -1 63 C-1.19 55.15 -1.37 47.31 -1.54 39.46 C-1.59 36.79 -1.66 34.12 -1.72 31.45 C-1.82 27.61 -1.9 23.77 -1.98 19.93 C-2.01 18.74 -2.04 17.56 -2.07 16.33 C-2.18 10.46 -2.06 5.53 0 0 Z " fill="#1E2643" fill-opacity="0" transform="translate(42,78)"/>
<path d="M0 0 C-4.37 6.01 -10.05 10.62 -16 15 C-15.5 10.62 -14.02 8.2 -11 5 C-10.34 5 -9.68 5 -9 5 C-9 3.68 -9 2.36 -9 1 C-6.04 -0.48 -3.26 -0.06 0 0 Z " fill="#292F42" fill-opacity="0" transform="translate(532,106)"/>
<path d="M0 0 C1.32 3.97 0.18 6.81 -0.94 10.69 C-1.13 11.39 -1.33 12.09 -1.53 12.81 C-2.01 14.55 -2.51 16.27 -3 18 C-4.65 17.67 -6.3 17.34 -8 17 C-8 15.02 -8 13.04 -8 11 C-6.68 10.67 -5.36 10.34 -4 10 C-4.06 9.22 -4.12 8.43 -4.19 7.62 C-4.13 6.76 -4.06 5.89 -4 5 C-3.01 4.34 -2.02 3.68 -1 3 C-1.66 2.67 -2.32 2.34 -3 2 C-2.01 2 -1.02 2 0 2 C0 1.34 0 0.68 0 0 Z " fill="#6AA0DD" transform="translate(646,563)"/>
<path d="M0 0 C0.33 0 0.66 0 1 0 C1.05 1.94 1.09 3.87 1.12 5.81 C1.15 6.89 1.17 7.97 1.2 9.08 C1 12 1 12 -1 15 C-1.62 17.19 -1.62 17.19 -2 19 C-2.33 18.34 -2.66 17.68 -3 17 C-3.33 18.65 -3.66 20.3 -4 22 C-4.99 22.33 -5.98 22.66 -7 23 C-5.68 17.72 -4.36 12.44 -3 7 C-2.34 7 -1.68 7 -1 7 C-0.67 4.69 -0.34 2.38 0 0 Z " fill="#143980" transform="translate(646,551)"/>
<path d="M0 0 C0.99 0 1.98 0 3 0 C3 0.99 3 1.98 3 3 C2.01 3.74 1.02 4.49 0 5.25 C-2.82 7.45 -2.96 7.75 -3.56 11.56 C-3 15.01 -2.39 16.51 0 19 C-0.99 19.33 -1.98 19.66 -3 20 C-5.78 16.54 -7.03 14.83 -6.88 10.31 C-6 7 -6 7 -4 4 C-3.34 4 -2.68 4 -2 4 C-2 3.34 -2 2.68 -2 2 C-1.34 2 -0.68 2 0 2 C0 1.34 0 0.68 0 0 Z " fill="#262C40" fill-opacity="0" transform="translate(466,164)"/>
<path d="M0 0 C1 3 1 3 -0.12 5.5 C-2.2 8.27 -4.02 9.3 -7 11 C-8.7 12.63 -10.38 14.29 -12 16 C-12.99 15.34 -13.98 14.68 -15 14 C-14.17 13.24 -13.34 12.48 -12.48 11.7 C-11.38 10.7 -10.29 9.69 -9.19 8.69 C-8.64 8.19 -8.09 7.69 -7.53 7.17 C-4.97 4.83 -2.42 2.49 0 0 Z " fill="#293045" fill-opacity="0" transform="translate(494,162)"/>
<path d="M0 0 C6.51 5.47 12.75 11.23 19 17 C18.34 17.66 17.68 18.32 17 19 C15.83 18.05 14.66 17.09 13.5 16.12 C12.85 15.59 12.2 15.06 11.53 14.51 C11.03 14.01 10.52 13.51 10 13 C10 12.34 10 11.68 10 11 C9.34 11 8.68 11 8 11 C7.67 10.34 7.34 9.68 7 9 C6.2 8.59 5.39 8.17 4.56 7.75 C1.33 5.54 0.91 3.72 0 0 Z " fill="#313243" fill-opacity="0" transform="translate(466,109)"/>
<path d="M0 0 C3.09 0.33 4 1 6.19 3.31 C9 7.48 9 7.48 9 10 C7.24 13.03 5.48 15.52 3 18 C0.04 17.6 -2.38 16.4 -5 15 C-4.44 14.94 -4.44 14.94 -1.62 14.62 C2 14 2 14 4 12 C4.49 7.71 4.46 5.68 2 2.06 C1.34 1.38 0.68 0.7 0 0 Z " fill="#41353F" fill-opacity="0" transform="translate(549,167)"/>
<path d="M0 0 C4.07 3.69 6.5 7.26 8.88 12.19 C9.19 12.82 9.51 13.44 9.84 14.09 C10.63 15.7 11.32 17.35 12 19 C11.67 19.66 11.34 20.32 11 21 C10.01 20.67 9.02 20.34 8 20 C7.23 18.18 7.23 18.18 6.62 15.88 C5.61 12.48 4.48 10 2.31 7.19 C0 4 0 4 0 0 Z " fill="#75ADEA" transform="translate(629,40)"/>
<path d="M0 0 C0.33 0 0.66 0 1 0 C2.85 10.45 3.23 20.42 3 31 C2.67 31 2.34 31 2 31 C1.95 30.25 1.9 29.5 1.85 28.73 C1.81 28.24 1.81 28.24 1.62 25.75 C1.56 24.78 1.49 23.8 1.41 22.8 C1.01 20.07 0.27 18.4 -1 16 C-1.32 10.64 -1.32 10.64 0 8 C0.07 6.63 0.08 5.25 0.06 3.88 C0.04 2.6 0.02 1.32 0 0 Z " fill="#5272B0" transform="translate(646,78)"/>
<path d="M0 0 C0.33 0.66 0.66 1.32 1 2 C1.66 2 2.32 2 3 2 C1.52 5.45 -0.44 7.65 -3.12 10.25 C-3.85 10.96 -4.57 11.66 -5.32 12.39 C-5.87 12.92 -6.43 13.45 -7 14 C-8.32 13.34 -9.64 12.68 -11 12 C-10.34 11.34 -9.68 10.68 -9 10 C-9 9.01 -9 8.02 -9 7 C-8.34 7 -7.68 7 -7 7 C-6.67 7.66 -6.34 8.32 -6 9 C-0.43 3.86 -0.43 3.86 0 0 Z " fill="#2C2F41" fill-opacity="0" transform="translate(540,92)"/>
<path d="M0 0 C1.32 0 2.64 0 4 0 C2.39 4.07 -0.54 6.77 -3.62 9.75 C-4.14 10.26 -4.66 10.76 -5.19 11.29 C-6.45 12.53 -7.73 13.76 -9 15 C-9.66 14.67 -10.32 14.34 -11 14 C-11 13.34 -11 12.68 -11 12 C-10.34 12 -9.68 12 -9 12 C-9 11.34 -9 10.68 -9 10 C-8.01 10 -7.02 10 -6 10 C-6 9.01 -6 8.02 -6 7 C-5.01 7 -4.02 7 -3 7 C-2.67 6.01 -2.34 5.02 -2 4 C-1.34 4 -0.68 4 0 4 C0 2.68 0 1.36 0 0 Z " fill="#E48845" transform="translate(494,157)"/>
<path d="M0 0 C1.32 0.33 2.64 0.66 4 1 C2.87 4.39 1.79 5.33 -0.88 7.62 C-1.22 7.93 -1.22 7.93 -2.99 9.48 C-5 11 -5 11 -8 12 C-8 11.01 -8 10.02 -8 9 C-8.66 8.67 -9.32 8.34 -10 8 C-9.24 7.9 -8.47 7.79 -7.69 7.69 C-4.74 6.93 -3.83 6.36 -2 4 C-0.81 1.81 -0.81 1.81 0 0 Z " fill="#F59244" transform="translate(480,170)"/>
<path d="M0 0 C0.33 0.66 0.66 1.32 1 2 C0.06 4.12 0.06 4.12 -1 6 C-1.66 6 -2.32 6 -3 6 C-3 6.66 -3 7.32 -3 8 C-3.99 8 -4.98 8 -6 8 C-6.23 8.6 -6.45 9.2 -6.69 9.81 C-8.36 12.6 -10.09 13.62 -13 15 C-13.66 14.67 -14.32 14.34 -15 14 C-14.17 13.24 -13.34 12.48 -12.48 11.7 C-11.38 10.7 -10.29 9.69 -9.19 8.69 C-8.64 8.19 -8.09 7.69 -7.53 7.17 C-4.97 4.83 -2.42 2.49 0 0 Z " fill="#F69547" transform="translate(480,155)"/>
<path d="M0 0 C0.33 0.66 0.66 1.32 1 2 C0.31 4.06 0.31 4.06 -1 6 C-3.12 6.75 -3.12 6.75 -5 7 C-5 7.99 -5 8.98 -5 10 C-3.35 10.33 -1.7 10.66 0 11 C0 11.33 0 11.66 0 12 C-3.63 12 -7.26 12 -11 12 C-7.47 7.82 -3.92 3.81 0 0 Z " fill="#1F2C46" fill-opacity="0" transform="translate(540,118)"/>
<path d="M0 0 C1.16 0.66 1.16 0.66 7 4 C6.67 4.99 6.34 5.98 6 7 C6.66 7 7.32 7 8 7 C9.63 9 9.63 9 11 11 C10.01 11.33 9.02 11.66 8 12 C4.7 8.7 1.4 5.4 -2 2 C-1.34 1.34 -0.68 0.68 0 0 Z " fill="#234385" transform="translate(24,607)"/>
<path d="M0 0 C0.66 0 1.32 0 2 0 C3.27 3.87 3.11 7.73 3.06 11.75 C3.06 12.45 3.05 13.14 3.05 13.86 C3.04 15.58 3.02 17.29 3 19 C2.67 19 2.34 19 2 19 C1.67 17.02 1.34 15.04 1 13 C0.34 14.32 -0.32 15.64 -1 17 C-1.07 13.11 -0.97 9.75 0 6 C0.04 4 0.05 2 0 0 Z " fill="#6AA0DD" transform="translate(645,541)"/>
<path d="M0 0 C0.66 0.33 1.32 0.66 2 1 C0.63 4.99 -1.15 7.88 -4 11 C-4.66 11 -5.32 11 -6 11 C-6 11.66 -6 12.32 -6 13 C-6.99 13 -7.98 13 -9 13 C-7.48 7.6 -3.73 4.02 0 0 Z " fill="#75ADEA" transform="translate(26,32)"/>
<path d="M0 0 C0.82 0.33 0.82 0.33 5 2 C5 1.34 5 0.68 5 0 C5.99 0.16 5.99 0.16 11 1 C10.67 1.99 10.34 2.98 10 4 C7.23 5.39 5.07 5.19 2 5 C1.01 4.34 0.02 3.68 -1 3 C-0.67 2.01 -0.34 1.02 0 0 Z " fill="#EF9147" transform="translate(503,195)"/>
<path d="M0 0 C2.17 0.51 4 1 6 2 C6.38 4.21 6.38 4.21 6.56 6.94 C6.91 11.81 6.91 11.81 8 14 C7.67 14.66 7.34 15.32 7 16 C5.35 16 3.7 16 2 16 C2.33 15.48 2.66 14.97 3 14.44 C4.37 11.1 4.39 8.57 4 5 C2 3.19 2 3.19 0 2 C0 1.34 0 0.68 0 0 Z " fill="#5090C0" transform="translate(133,170)"/>
<path d="M0 0 C1.32 0.66 2.64 1.32 4 2 C2.35 2.33 0.7 2.66 -1 3 C-1 4.65 -1 6.3 -1 8 C-0.01 8.16 -0.01 8.16 5 9 C5 9.66 5 10.32 5 11 C5.99 11.66 6.98 12.32 8 13 C4.5 13.32 2.6 13.4 -0.38 11.44 C-2.58 8.13 -2.43 5.89 -2 2 C-1.34 1.34 -0.68 0.68 0 0 Z " fill="#DA8342" transform="translate(464,170)"/>
<path d="M0 0 C1.98 0 3.96 0 6 0 C7.21 3.62 6.54 4.64 5 8 C3.02 6.35 1.04 4.7 -1 3 C-0.67 2.01 -0.34 1.02 0 0 Z " fill="#FE9A44" transform="translate(527,163)"/>
<path d="M0 0 C1.27 3.81 0.52 5.82 -0.44 9.69 C-0.72 10.87 -1.01 12.05 -1.31 13.26 C-1.54 14.17 -1.76 15.07 -2 16 C-2.33 16 -2.66 16 -3 16 C-3.33 17.98 -3.66 19.96 -4 22 C-4.33 22 -4.66 22 -5 22 C-5.34 13.88 -4.75 6.91 0 0 Z " fill="#75ADEA" transform="translate(42,75)"/>
<path d="M0 0 C0.33 0.66 0.66 1.32 1 2 C1.66 2.33 2.32 2.66 3 3 C5.19 4.75 5.19 4.75 7 7 C6.69 9.62 6.69 9.62 6 12 C6.33 12.66 6.66 13.32 7 14 C6.34 14.66 5.68 15.32 5 16 C4.16 13.9 3.33 11.79 2.5 9.69 C2.04 8.52 1.57 7.34 1.09 6.14 C0 3 0 3 0 0 Z " fill="#70A8E5" transform="translate(5,573)"/>
<path d="M0 0 C0 0.66 0 1.32 0 2 C0.66 2.66 1.32 3.32 2 4 C0.62 6.5 0.62 6.5 -1 9 C-1.66 9 -2.32 9 -3 9 C-3.33 9.66 -3.66 10.32 -4 11 C-5.35 4.64 -5.35 4.64 -3.69 1.56 C-2 0 -2 0 0 0 Z " fill="#EE9249" transform="translate(452,132)"/>
<path d="M0 0 C3.04 0.24 3.04 0.24 6.62 0.88 C7.22 0.98 7.22 0.98 10.23 1.49 C11.14 1.66 12.06 1.83 13 2 C13.33 3.32 13.66 4.64 14 6 C13.46 5.67 12.93 5.34 12.38 5 C9.36 3.73 7.25 3.66 4 4 C1.62 5.5 1.62 5.5 0 7 C-0.66 5.35 -1.32 3.7 -2 2 C-1.34 1.34 -0.68 0.68 0 0 Z " fill="#2C2E3F" fill-opacity="0" transform="translate(501,75)"/>
<path d="M0 0 C1.46 0.48 2.92 0.96 4.38 1.44 C5.19 1.7 6 1.97 6.84 2.25 C9 3 9 3 11 4 C10.67 5.65 10.34 7.3 10 9 C6.79 7.62 4.95 6.08 2.75 3.38 C2.23 2.74 1.71 2.11 1.17 1.46 C0.79 0.98 0.4 0.5 0 0 Z " fill="#ED954C" transform="translate(468,110)"/>
<path d="M0 0 C0.33 0 0.66 0 1 0 C1.2 3.48 1.38 6.96 1.56 10.44 C1.62 11.43 1.67 12.42 1.73 13.45 C1.78 14.39 1.83 15.34 1.88 16.31 C1.93 17.18 1.97 18.06 2.02 18.96 C2 21 2 21 1 22 C0.77 23.51 0.59 25.04 0.44 26.56 C0.35 27.39 0.27 28.22 0.18 29.07 C0.12 29.7 0.06 30.34 0 31 C-0.33 31 -0.66 31 -1 31 C-1.19 20.64 -0.61 10.34 0 0 Z " fill="#1C459C" transform="translate(2,524)"/>
<path d="M0 0 C-0.66 0 -1.32 0 -2 0 C-2 0.66 -2 1.32 -2 2 C-4.64 2 -7.28 2 -10 2 C-10.33 2.66 -10.66 3.32 -11 4 C-12.38 5.62 -12.38 5.62 -14 7 C-17 7 -17 7 -20 5 C-18.08 4.18 -16.17 3.37 -14.25 2.56 C-13.18 2.11 -12.12 1.66 -11.02 1.19 C-6.84 -0.46 -4.33 -1.39 0 0 Z " fill="#5A79B7" transform="translate(76,5)"/>
<path d="M0 0 C-1.38 3.21 -2.92 5.05 -5.62 7.25 C-5.94 7.51 -5.94 7.51 -7.54 8.83 C-8.02 9.21 -8.5 9.6 -9 10 C-9.33 8.68 -9.66 7.36 -10 6 C-9.34 6 -8.68 6 -8 6 C-7.67 5.01 -7.34 4.02 -7 3 C-2.67 0 -2.67 0 0 0 Z " fill="#3B3644" fill-opacity="0" transform="translate(478,156)"/>
<path d="M0 0 C0.33 0 0.66 0 1 0 C1.5 6.15 0.35 9.03 -3 14 C-4.75 15.94 -4.75 15.94 -6 17 C-6.66 15.68 -7.32 14.36 -8 13 C-7.05 12.34 -6.1 11.68 -5.12 11 C-1.28 7.86 -0.81 4.79 0 0 Z " fill="#3C3642" fill-opacity="0" transform="translate(554,99)"/>
<path d="M0 0 C2 3 2 3 3 6 C5.56 7.19 5.56 7.19 8 8 C7.67 9.32 7.34 10.64 7 12 C3.33 8.33 -0.33 4.67 -4 1 C-2 0 -2 0 0 0 Z " fill="#2D2E3F" fill-opacity="0" transform="translate(478,95)"/>
<path d="M0 0 C1.88 0.69 1.88 0.69 4 2 C5.06 4.38 5.06 4.38 6 7 C6.96 8.36 7.95 9.71 9 11 C8.34 11.66 7.68 12.32 7 13 C5.83 11.21 4.66 9.42 3.5 7.62 C2.85 6.63 2.2 5.63 1.53 4.6 C0 2 0 2 0 0 Z " fill="#6AA0DD" transform="translate(13,593)"/>
<path d="M0 0 C1.13 0.93 2.25 1.87 3.38 2.81 C4 3.33 4.63 3.86 5.27 4.39 C7 6 7 6 9 9 C5.41 9 4.89 8.34 2.31 6 C1.69 5.44 1.07 4.89 0.43 4.31 C-0.04 3.88 -0.52 3.45 -1 3 C-0.67 2.01 -0.34 1.02 0 0 Z " fill="#393746" fill-opacity="0" transform="translate(534,173)"/>
<path d="M0 0 C1.5 1.06 1.5 1.06 3 3 C3.19 6.69 3.19 6.69 3 10 C2.01 10 1.02 10 0 10 C0 8.02 0 6.04 0 4 C-0.66 3.67 -1.32 3.34 -2 3 C-1.34 2.01 -0.68 1.02 0 0 Z " fill="#F38D40" transform="translate(551,169)"/>
<path d="M0 0 C2 1 2 1 3 3.88 C3.33 4.91 3.66 5.94 4 7 C4.33 7.5 4.33 7.5 6 10 C5.67 10.66 5.34 11.32 5 12 C4.34 12 3.68 12 3 12 C3 11.01 3 10.02 3 9 C1.68 8.67 0.36 8.34 -1 8 C-0.67 5.36 -0.34 2.72 0 0 Z " fill="#282D41" fill-opacity="0" transform="translate(460,99)"/>
<path d="M0 0 C1.42 4.25 0.19 6.72 -1 11 C-1.99 11 -2.98 11 -4 11 C-4.19 8.12 -4.19 8.12 -4 5 C-3.01 4.34 -2.02 3.68 -1 3 C-1.66 2.67 -2.32 2.34 -3 2 C-2.01 2 -1.02 2 0 2 C0 1.34 0 0.68 0 0 Z " fill="#6AA0DD" transform="translate(646,563)"/>
<path d="M0 0 C1.84 2.75 2.52 4.36 3.25 7.5 C3.44 8.27 3.63 9.05 3.83 9.84 C4 12 4 12 2 15 C-0.59 10.14 -0.19 5.35 0 0 Z " fill="#70A8E5" transform="translate(40,544)"/>
<path d="M0 0 C0.66 0.33 1.32 0.66 2 1 C2.37 7.48 2.37 7.48 0.62 9.94 C-1 11 -1 11 -3 11 C-3 10.01 -3 9.02 -3 8 C-2.34 8 -1.68 8 -1 8 C-1.01 7.43 -1.01 7.43 -1.06 4.56 C-1 1 -1 1 0 0 Z " fill="#F28D47" transform="translate(567,134)"/>
<path d="M0 0 C7.26 0 14.52 0 22 0 C22 0.33 22 0.66 22 1 C21.45 1.07 21.45 1.07 18.69 1.44 C15 2 15 2 12 3 C12 2.34 12 1.68 12 1 C8.04 1 4.08 1 0 1 C0 0.67 0 0.34 0 0 Z " fill="#FEA652" transform="translate(530,132)"/>
<path d="M0 0 C3.3 0 6.6 0 10 0 C9.34 1.65 8.68 3.3 8 5 C4.35 3.72 2.83 2.83 0 0 Z " fill="#6AA0DD" transform="translate(43,627)"/>
<path d="M0 0 C0.66 0.33 1.32 0.66 2 1 C-0.05 4.99 -1.89 7.1 -6 9 C-6.66 8.67 -7.32 8.34 -8 8 C-5.36 5.36 -2.72 2.72 0 0 Z " fill="#75ADEA" transform="translate(35,23)"/>
<path d="M0 0 C0.99 0 1.98 0 3 0 C2.52 4.31 1.25 6.17 -2 9 C-1.12 2.25 -1.12 2.25 0 0 Z " fill="#6AA0DD" transform="translate(632,595)"/>
<path d="M0 0 C1.32 0.33 2.64 0.66 4 1 C3.34 1.99 3.34 1.99 0 7 C-0.66 6.67 -1.32 6.34 -2 6 C-1.49 3.83 -1 2 0 0 Z " fill="#70A8E5" transform="translate(16,45)"/>
<path d="M0 0 C1.13 0.93 2.25 1.87 3.38 2.81 C4 3.33 4.63 3.86 5.27 4.39 C7 6 7 6 9 9 C8.01 9 7.02 9 6 9 C6 8.34 6 7.68 6 7 C5.01 7 4.02 7 3 7 C0 2.78 0 2.78 0 0 Z " fill="#E68849" transform="translate(478,100)"/>
<path d="M0 0 C0.67 2.67 1.33 5.33 2 8 C1.67 8.16 1.67 8.16 0 9 C-0.62 12.06 -0.62 12.06 -1 15 C-1.33 15 -1.66 15 -2 15 C-2.19 9.47 -1.75 5.24 0 0 Z " fill="#223157" fill-opacity="0" transform="translate(42,78)"/>
<path d="M0 0 C1.13 0.02 2.27 0.04 3.44 0.06 C3.77 1.38 4.1 2.7 4.44 4.06 C0.7 3.56 -1.37 3.19 -4.56 1.06 C-3.56 0.06 -3.56 0.06 0 0 Z " fill="#6AA0DD" transform="translate(63.5625,634.9375)"/>
<path d="M0 0 C0 2.84 -0.4 5.24 -1 8 C-2.32 8 -3.64 8 -5 8 C-5.33 7.01 -5.66 6.02 -6 5 C-4.02 3.35 -2.04 1.7 0 0 Z " fill="#3A3543" fill-opacity="0" transform="translate(478,177)"/>
<path d="M0 0 C1.48 0.95 2.96 1.91 4.44 2.88 C4.85 3.14 4.85 3.14 6.93 4.49 C9 6 9 6 10 8 C5.18 7.59 3.09 5.62 0 2 C0 1.34 0 0.68 0 0 Z " fill="#5B77B4" transform="translate(607,18)"/>
<path d="M0 0 C0.33 1.32 0.66 2.64 1 4 C-4.75 2.25 -4.75 2.25 -7 0 C-4.33 -1.33 -2.83 -0.67 0 0 Z " fill="#70A8E5" transform="translate(58,632)"/>
<path d="M0 0 C0.33 0.99 0.66 1.98 1 3 C-4.14 7.43 -4.14 7.43 -8 8 C-5.33 5.33 -2.67 2.67 0 0 Z " fill="#ED8A42" transform="translate(473,162)"/>
<path d="M0 0 C0.99 0.33 1.98 0.66 3 1 C1.85 1.99 1.85 1.99 -4 7 C-4.33 5.68 -4.66 4.36 -5 3 C-3.35 2.67 -1.7 2.34 0 2 C0 1.34 0 0.68 0 0 Z " fill="#E18B48" transform="translate(532,123)"/>
<path d="M0 0 C1 2 1 2 0.44 4 C-1.57 6.8 -3.74 7.15 -7 8 C-6.02 6.85 -5.04 5.71 -4.06 4.56 C-3.52 3.92 -2.97 3.29 -2.41 2.63 C-1.63 1.73 -0.84 0.84 0 0 Z " fill="#323244" fill-opacity="0" transform="translate(540,118)"/>
<path d="M0 0 C0.99 0.33 1.98 0.66 3 1 C1.35 2.65 -0.3 4.3 -2 6 C-2.99 5.67 -3.98 5.34 -5 5 C-3.35 3.35 -1.7 1.7 0 0 Z " fill="#EE944B" transform="translate(525,112)"/>
<path d="M0 0 C0.6 0.17 1.2 0.33 1.81 0.5 C4 1 4 1 7 1 C7 2.98 7 4.96 7 7 C5.83 6.02 4.66 5.04 3.5 4.06 C2.85 3.52 2.2 2.97 1.53 2.41 C1.03 1.94 0.52 1.48 0 1 C0 0.67 0 0.34 0 0 Z " fill="#3A353F" fill-opacity="0" transform="translate(492,113)"/>
<path d="M0 0 C7.51 -0.37 7.51 -0.37 10 1.5 C10.16 1.75 10.16 1.75 11 3 C10.67 3.66 10.34 4.32 10 5 C8.68 4.67 7.36 4.34 6 4 C6 3.01 6 2.02 6 1 C4.02 1 2.04 1 0 1 C0 0.67 0 0.34 0 0 Z " fill="#EE8F45" transform="translate(543,95)"/>
<path d="M0 0 C0.66 0.99 1.32 1.98 2 3 C1.67 3.33 1.34 3.66 1 4 C0.76 6.35 0.59 8.71 0.44 11.06 C0.35 12.35 0.27 13.64 0.18 14.97 C0.12 15.97 0.06 16.97 0 18 C-0.33 18 -0.66 18 -1 18 C-1.03 15.37 -1.05 12.75 -1.06 10.12 C-1.07 9.38 -1.08 8.63 -1.09 7.86 C-1.11 2.23 -1.11 2.23 0 0 Z " fill="#F48C45" transform="translate(502,80)"/>
<path d="M0 0 C0.33 0.99 0.66 1.98 1 3 C-0.98 4.98 -2.96 6.96 -5 9 C-5.66 8.67 -6.32 8.34 -7 8 C-4.69 5.36 -2.38 2.72 0 0 Z " fill="#202D4D" fill-opacity="0" transform="translate(57,56)"/>
<path d="M0 0 C0.66 0.33 1.32 0.66 2 1 C1.25 3.44 1.25 3.44 0 6 C-2.12 6.81 -2.12 6.81 -4 7 C-2.93 4.08 -2.22 2.22 0 0 Z " fill="#70A8E5" transform="translate(26,32)"/>
<path d="M0 0 C0.56 0.47 1.11 0.95 1.69 1.44 C4.18 3.12 6.04 3.59 9 4 C5.91 5.76 4.77 6 1 6 C0.67 4.02 0.34 2.04 0 0 Z " fill="#31344A" fill-opacity="0" transform="translate(501,196)"/>
<path d="M0 0 C2.31 0 4.62 0 7 0 C5.35 1.65 3.7 3.3 2 5 C2 4.34 2 3.68 2 3 C1.34 3 0.68 3 0 3 C0 2.01 0 1.02 0 0 Z " fill="#3C333F" fill-opacity="0" transform="translate(525,106)"/>
<path d="M0 0 C0.66 0.33 0.66 0.33 4 2 C4 4.31 4 6.62 4 9 C0.06 5.68 0.06 5.68 -0.25 2.25 C-0.17 1.51 -0.09 0.76 0 0 Z " fill="#06BAAC" transform="translate(134,173)"/>
<path d="M0 0 C2.49 1.2 4.68 2.45 7 4 C6.67 4.99 6.34 5.98 6 7 C3.96 5.38 1.96 3.71 0 2 C0 1.34 0 0.68 0 0 Z " fill="#E58B44" transform="translate(526,164)"/>
<path d="M0 0 C1.65 0.99 3.3 1.98 5 3 C4.67 3.99 4.34 4.98 4 6 C3.34 5.34 2.68 4.68 2 4 C-0.32 3.6 -2.66 3.26 -5 3 C-5 2.67 -5 2.34 -5 2 C-3.35 2 -1.7 2 0 2 C0 1.34 0 0.68 0 0 Z " fill="#40333B" fill-opacity="0" transform="translate(549,92)"/>
<path d="M0 0 C0.66 0.33 1.32 0.66 2 1 C1.39 3.96 0.75 5.38 -1 8 C-1.66 8 -2.32 8 -3 8 C-1.12 2.25 -1.12 2.25 0 0 Z " fill="#1F2A49" fill-opacity="0" transform="translate(46,70)"/>
<path d="M0 0 C0.99 0 1.98 0 3 0 C2.19 1.94 2.19 1.94 1 4 C0.01 4.33 -0.98 4.66 -2 5 C-2.66 4.34 -3.32 3.68 -4 3 C-2.68 2.67 -1.36 2.34 0 2 C0 1.34 0 0.68 0 0 Z " fill="#6AA0DD" transform="translate(610,621)"/>
<path d="M0 0 C1.32 0 2.64 0 4 0 C2.25 5.75 2.25 5.75 0 8 C0 5.36 0 2.72 0 0 Z " fill="#526EA2" transform="translate(636,587)"/>
<path d="M0 0 C0.33 0.99 0.66 1.98 1 3 C0.67 3.33 0.34 3.66 0 4 C-0.23 5.51 -0.41 7.04 -0.56 8.56 C-0.65 9.39 -0.73 10.22 -0.82 11.07 C-0.88 11.7 -0.94 12.34 -1 13 C-1.33 13 -1.66 13 -2 13 C-2 9.04 -2 5.08 -2 1 C-1.34 0.67 -0.68 0.34 0 0 Z " fill="#516DAC" transform="translate(3,542)"/>
<path d="M0 0 C1.65 1.32 3.3 2.64 5 4 C4.34 4 3.68 4 3 4 C2.67 4.66 2.34 5.32 2 6 C0.68 4.35 -0.64 2.7 -2 1 C-1.34 0.67 -0.68 0.34 0 0 Z " fill="#6AA0DD" transform="translate(24,607)"/>
<path d="M0 0 C0.99 0.33 1.98 0.66 3 1 C2.01 2.32 1.02 3.64 0 5 C-1.32 4.67 -2.64 4.34 -4 4 C-3.34 4 -2.68 4 -2 4 C-1.34 2.68 -0.68 1.36 0 0 Z " fill="#353547" fill-opacity="0" transform="translate(515,195)"/>
<path d="M0 0 C0.12 3.38 0.12 3.38 0 7 C-0.66 7.66 -1.32 8.32 -2 9 C-3.35 6.29 -3.07 3.99 -3 1 C-1 0 -1 0 0 0 Z " fill="#5090C0" transform="translate(69,176)"/>
</svg>
